<?xml version="1.0" encoding="utf-8"?>
<!-- Generator: Adobe Illustrator 17.0.0, SVG Export Plug-In . SVG Version: 6.00 Build 0)  -->
<!DOCTYPE svg PUBLIC "-//W3C//DTD SVG 1.1//EN" "http://www.w3.org/Graphics/SVG/1.1/DTD/svg11.dtd">
<svg version="1.1" id="Layer_1" xmlns="http://www.w3.org/2000/svg" xmlns:xlink="http://www.w3.org/1999/xlink" x="0px" y="0px"
	 width="100px" height="100px" viewBox="0 0 100 100" enable-background="new 0 0 100 100" xml:space="preserve">
<g>
	<path d="M59.821,97.329H55.06V64.053c0-1.315,1.066-2.381,2.381-2.381h9.052l1.381-9.003H57.44c-1.315,0-2.381-1.066-2.381-2.381
		v-8.933c0-6.056,3.886-9.817,10.141-9.817h3.624v-7.28c-1.992-0.262-5.2-0.607-8.278-0.607c-9.918,0-15.605,5.885-15.605,16.146
		v10.491c0,1.315-1.066,2.381-2.381,2.381h-9.71v9.003h9.71c1.315,0,2.381,1.066,2.381,2.381v33.276h-4.762V66.434h-9.71
		c-1.315,0-2.381-1.066-2.381-2.381V50.289c0-1.315,1.066-2.381,2.381-2.381h9.71v-8.11c0-12.896,7.804-20.908,20.367-20.908
		c5.351,0,10.829,0.924,11.06,0.964c1.144,0.195,1.981,1.187,1.981,2.347V33.92c0,1.315-1.066,2.381-2.381,2.381H65.2
		c-3.67,0-5.379,1.606-5.379,5.055v6.552h10.826c0.694,0,1.354,0.303,1.807,0.83c0.452,0.527,0.652,1.225,0.547,1.912L70.89,64.414
		c-0.178,1.162-1.178,2.02-2.354,2.02h-8.715V97.329z"/>
	<path d="M57.438,99.71c-1.152,0-2.165-0.838-2.349-2.012c-0.204-1.299,0.684-2.518,1.983-2.721
		c22.115-3.47,38.167-22.265,38.167-44.688C95.238,25.345,74.944,5.051,50,5.051S4.762,25.345,4.762,50.289
		c0,22.423,16.051,41.218,38.167,44.688c1.299,0.204,2.187,1.422,1.983,2.721c-0.203,1.298-1.422,2.19-2.721,1.983
		C17.744,95.845,0,75.073,0,50.289c0-27.57,22.43-50,50-50s50,22.43,50,50c0,24.784-17.744,45.556-42.19,49.392
		C57.685,99.701,57.56,99.71,57.438,99.71z"/>
</g>
<g>
	<path d="M50,0C35.979,0,34.142-0.059,28.621-0.311c-4.791-0.219-8.487-0.923-11.983-2.282c-3.356-1.304-5.98-3.012-8.507-5.538
		c-2.526-2.527-4.234-5.15-5.538-8.507c-1.36-3.497-2.063-7.193-2.282-11.982C0.06-34.141,0-35.978,0-50
		c0-14.021,0.06-15.858,0.311-21.379c0.218-4.79,0.922-8.485,2.282-11.983c1.305-3.357,3.013-5.981,5.538-8.507
		s5.149-4.234,8.507-5.538c3.498-1.36,7.194-2.063,11.983-2.282C34.142-99.94,35.979-100,50-100c14.022,0,15.859,0.06,21.38,0.311
		c4.789,0.218,8.485,0.922,11.982,2.282c3.357,1.305,5.98,3.013,8.507,5.539c2.526,2.526,4.234,5.15,5.538,8.506
		c1.359,3.497,2.063,7.193,2.282,11.984C99.941-65.858,100-64.021,100-50c0,14.022-0.059,15.859-0.311,21.38
		c-0.219,4.79-0.923,8.486-2.282,11.982c-1.304,3.356-3.012,5.98-5.538,8.507c-2.527,2.526-5.151,4.234-8.507,5.538
		C79.866-1.234,76.17-0.53,71.38-0.311C65.859-0.059,64.022,0,50,0z M50-94.783c-13.944,0-15.602,0.053-21.141,0.306
		c-5.38,0.246-8.347,1.162-10.331,1.933c-2.687,1.044-4.692,2.35-6.707,4.365S8.5-84.158,7.456-81.472
		c-0.771,1.985-1.687,4.951-1.933,10.331C5.271-65.602,5.217-63.944,5.217-50c0,13.943,0.053,15.602,0.306,21.141
		c0.246,5.38,1.162,8.348,1.933,10.331c1.044,2.687,2.35,4.693,4.365,6.707c2.016,2.016,4.022,3.322,6.707,4.365
		c1.986,0.771,4.955,1.689,10.331,1.933C34.384-5.271,36.04-5.217,50-5.217s15.616-0.054,21.142-0.306
		c5.376-0.244,8.345-1.162,10.33-1.933c2.686-1.043,4.692-2.349,6.708-4.365c2.015-2.015,3.321-4.021,4.364-6.708
		c0.771-1.985,1.689-4.953,1.933-10.33c0.252-5.526,0.306-7.182,0.306-21.141c0-13.959-0.054-15.615-0.306-21.141
		c-0.244-5.376-1.162-8.345-1.933-10.331c-1.043-2.686-2.349-4.692-4.365-6.708c-2.014-2.015-4.02-3.32-6.707-4.365
		c-1.984-0.771-4.951-1.687-10.331-1.933C65.602-94.729,63.943-94.783,50-94.783z"/>
</g>
</svg>
