<?xml version="1.0" encoding="utf-8"?>
<!-- Generator: Adobe Illustrator 17.0.0, SVG Export Plug-In . SVG Version: 6.00 Build 0)  -->
<!DOCTYPE svg PUBLIC "-//W3C//DTD SVG 1.1//EN" "http://www.w3.org/Graphics/SVG/1.1/DTD/svg11.dtd">
<svg version="1.1" xmlns="http://www.w3.org/2000/svg" xmlns:xlink="http://www.w3.org/1999/xlink" x="0px" y="0px" width="100px"
	 height="100px" viewBox="0 0 100 100" enable-background="new 0 0 100 100" xml:space="preserve">
<g id="图层_1">
</g>
<g id="Layer_1">
	<g>
		<path d="M95.222-34.626c-0.015-0.083,0.05-0.159,0.021-0.248L78.856-87.959c-0.207-0.676-0.839-1.141-1.548-1.141l-16.381-0.021
			c-0.004,0-0.004,0-0.004,0c-0.897,0-1.626,0.726-1.626,1.628c0,0.897,0.728,1.624,1.622,1.624l15.183,0.021l15.382,49.834h-25.9
			c-0.446,0-0.872,0.182-1.18,0.505L49.972-20.342L34.77-35.541c-0.306-0.302-0.717-0.475-1.149-0.475H8.513L23.89-85.85
			l15.189-0.021c0.895,0,1.624-0.726,1.624-1.624c0-0.901-0.728-1.628-1.626-1.628c0,0,0,0-0.004,0L22.685-89.1
			c-0.711,0-1.337,0.465-1.546,1.151L4.756-34.868c-0.027,0.083,0.037,0.159,0.021,0.248c-0.012,0.081-0.095,0.139-0.095,0.229
			v32.766C4.683-0.732,5.411,0,6.306,0H93.69c0.899,0,1.627-0.732,1.627-1.626v-32.766C95.317-34.481,95.234-34.539,95.222-34.626z
			 M92.064-3.253H7.936v-29.512h25.011L48.85-16.863c0.306,0.306,0.717,0.477,1.147,0.477c0.479,0.006,0.876-0.19,1.182-0.508
			l15.104-15.871h25.782V-3.253z"/>
	</g>
	<g>
		<path d="M73.69,160.297c9.425-15.518,7.081-35.703-5.868-48.655C60.317,104.134,50.341,100,39.733,100
			c-10.607,0-20.589,4.134-28.092,11.642c-7.505,7.498-11.629,17.474-11.629,28.077c0,10.618,4.134,20.604,11.64,28.097
			c7.487,7.487,17.448,11.617,28.043,11.617c7.316,0,14.405-1.982,20.612-5.754l23.528,23.549C85.628,199.012,88,200,90.53,200
			c2.531,0,4.905-0.988,6.691-2.773c3.689-3.7,3.689-9.697,0-13.386L73.69,160.297z M94.15,194.153c-1.935,1.93-5.309,1.93-7.244,0
			l-26.027-26.038l-1.48,0.993c-5.832,3.912-12.649,5.987-19.704,5.987c-9.436,0-18.304-3.684-24.974-10.354
			c-6.683-6.68-10.365-15.559-10.365-25.023c0-9.438,3.677-18.323,10.357-25.008c6.691-6.68,15.57-10.375,25.021-10.375
			s18.33,3.695,25.024,10.375c11.903,11.906,13.74,30.695,4.359,44.671l-0.996,1.48l26.03,26.048
			C96.147,188.901,96.147,192.155,94.15,194.153z"/>
	</g>
	<g>
		<path d="M49.404,21.618c-15.066,0-27.33,12.261-27.33,27.334c0,8.382,3.822,16.152,10.501,21.41
			c0.122,0.179,0.278,0.339,0.465,0.465c0.041,0.025,3.585,2.409,3.585,6.977c0,0.069,0.073,0.115,0.073,0.188
			c0.008,0.061-0.049,0.114-0.033,0.176l4.483,20.487C41.32,99.441,42.014,100,42.822,100h13.171c0.8,0,1.494-0.559,1.674-1.343
			l4.491-20.487c0.016-0.061-0.049-0.115-0.041-0.176c0.008-0.074,0.081-0.119,0.081-0.188c0-4.507,3.43-6.887,3.569-6.977
			c0.155-0.106,0.269-0.237,0.375-0.384c6.737-5.259,10.591-13.069,10.591-21.492C76.734,33.879,64.478,21.618,49.404,21.618z
			 M54.614,96.575H44.202l-0.367-1.686h11.146L54.614,96.575z M55.732,91.459H43.084l-0.376-1.699h13.4L55.732,91.459z
			 M56.859,86.331H41.957l-1.486-6.814h17.891L56.859,86.331z M63.743,67.975c-0.147,0.106-0.27,0.225-0.367,0.371
			c-1.143,0.923-3.871,3.511-4.483,7.745h-7.773V52.191c0-1.878,1.535-3.413,3.413-3.413c0.939,0,1.715-0.768,1.715-1.715
			c0-0.947-0.776-1.715-1.715-1.715c-2.074,0-3.871,0.98-5.128,2.437c-0.123-0.143-0.164-0.314-0.302-0.445
			c-1.282-1.286-2.988-1.992-4.793-1.992c-0.008,0-0.017,0-0.025,0c-0.939,0-1.707,0.768-1.707,1.723
			c0,0.943,0.768,1.707,1.715,1.707c0,0,0,0,0.008,0c0,0,0,0,0.008,0c0.89,0,1.739,0.347,2.384,0.992
			c0.645,0.637,1.004,1.503,1.004,2.421v23.901h-7.765c-0.605-4.213-3.315-6.798-4.475-7.737c-0.106-0.143-0.229-0.27-0.376-0.375
			c-6.091-4.606-9.578-11.538-9.578-19.026c0-13.183,10.722-23.905,23.901-23.905c13.187,0,23.909,10.722,23.909,23.905
			C73.313,56.437,69.818,63.365,63.743,67.975z"/>
		<path d="M50.008,14.939c0.939,0,1.715-0.768,1.715-1.71V1.715C51.723,0.768,50.947,0,50.008,0c-0.947,0-1.707,0.768-1.707,1.715
			v11.514C48.301,14.171,49.061,14.939,50.008,14.939z"/>
		<path d="M24.376,24.55c0.343,0.339,0.776,0.502,1.217,0.502c0.449,0,0.882-0.163,1.209-0.502c0.669-0.67,0.669-1.752,0-2.425
			l-8.133-8.137c-0.669-0.674-1.756-0.674-2.425,0c-0.661,0.666-0.661,1.751,0,2.425L24.376,24.55z"/>
		<path d="M17.199,47.753c0-0.943-0.768-1.715-1.707-1.715H3.962c-0.947,0-1.715,0.772-1.715,1.715c0,0.947,0.768,1.715,1.715,1.715
			h11.53C16.431,49.467,17.199,48.7,17.199,47.753z"/>
		<path d="M24.401,70.947l-8.157,8.145c-0.661,0.669-0.661,1.751,0,2.421c0.343,0.339,0.776,0.506,1.217,0.506
			c0.424,0,0.874-0.168,1.208-0.506l8.15-8.141c0.669-0.674,0.669-1.756,0-2.425C26.157,70.285,25.07,70.273,24.401,70.947z"/>
		<path d="M75.624,72.417c-0.67-0.653-1.748-0.67-2.425,0c-0.678,0.674-0.678,1.756,0,2.425l8.133,8.157
			c0.335,0.335,0.776,0.502,1.217,0.502c0.433,0,0.874-0.167,1.209-0.502c0.67-0.666,0.67-1.751,0-2.421L75.624,72.417z"/>
		<path d="M96.038,46.038l-11.513-0.012c-0.939,0-1.715,0.763-1.715,1.715c0,0.943,0.768,1.707,1.715,1.707l11.513,0.02
			c0.947,0,1.715-0.763,1.715-1.715C97.753,46.809,96.993,46.038,96.038,46.038z"/>
		<path d="M74.407,25.048c0.433,0,0.874-0.167,1.217-0.506l8.149-8.133c0.67-0.674,0.67-1.76,0-2.425
			c-0.661-0.669-1.748-0.678-2.425,0l-8.149,8.137c-0.678,0.674-0.678,1.751,0,2.421C73.525,24.881,73.966,25.048,74.407,25.048z"/>
	</g>
</g>
</svg>
