<?xml version="1.0" encoding="utf-8"?>
<!-- Generator: Adobe Illustrator 17.0.0, SVG Export Plug-In . SVG Version: 6.00 Build 0)  -->
<!DOCTYPE svg PUBLIC "-//W3C//DTD SVG 1.1//EN" "http://www.w3.org/Graphics/SVG/1.1/DTD/svg11.dtd">
<svg version="1.1" xmlns="http://www.w3.org/2000/svg" xmlns:xlink="http://www.w3.org/1999/xlink" x="0px" y="0px" width="100px"
	 height="100px" viewBox="0 0 100 100" enable-background="new 0 0 100 100" xml:space="preserve">
<g id="图层_1">
</g>
<g id="Layer_1">
	<g>
		<path d="M95.222,65.374c-0.015-0.083,0.05-0.159,0.021-0.248L78.856,12.041c-0.207-0.676-0.839-1.141-1.548-1.141l-16.381-0.021
			c-0.004,0-0.004,0-0.004,0c-0.897,0-1.626,0.726-1.626,1.628c0,0.897,0.728,1.624,1.622,1.624l15.183,0.021l15.382,49.834h-25.9
			c-0.446,0-0.872,0.182-1.18,0.505L49.972,79.658L34.77,64.459c-0.306-0.302-0.717-0.475-1.149-0.475H8.513L23.89,14.15
			l15.189-0.021c0.895,0,1.624-0.726,1.624-1.624c0-0.901-0.728-1.628-1.626-1.628c0,0,0,0-0.004,0L22.685,10.9
			c-0.711,0-1.337,0.465-1.546,1.151L4.756,65.132c-0.027,0.083,0.037,0.159,0.021,0.248c-0.012,0.081-0.095,0.139-0.095,0.229
			v32.766c0,0.893,0.728,1.626,1.623,1.626H93.69c0.899,0,1.627-0.732,1.627-1.626V65.608
			C95.317,65.519,95.234,65.461,95.222,65.374z M92.064,96.747H7.936V67.235h25.011L48.85,83.137
			c0.306,0.306,0.717,0.477,1.147,0.477c0.479,0.006,0.876-0.19,1.182-0.508l15.104-15.871h25.782V96.747z"/>
		<path d="M40.231,53.535c-0.637-0.635-1.664-0.635-2.3,0c-0.633,0.636-0.633,1.664,0,2.302l10.925,10.921
			c0.304,0.308,0.719,0.479,1.151,0.479c0.432,0,0.843-0.17,1.151-0.479l10.915-10.921c0.636-0.638,0.636-1.666,0-2.302
			c-0.635-0.635-1.664-0.635-2.3,0l-8.138,8.148V1.626C51.634,0.73,50.906,0,50.007,0c-0.899,0-1.628,0.73-1.628,1.626v60.057
			L40.231,53.535z"/>
	</g>
	<g>
		<path d="M50.008,114.939c0.939,0,1.715-0.768,1.715-1.71v-11.514c0-0.947-0.776-1.715-1.715-1.715
			c-0.947,0-1.707,0.768-1.707,1.715v11.514C48.301,114.171,49.061,114.939,50.008,114.939z"/>
	</g>
	<g>
		<g>
			<g>
				<g>
					<g>
						<path d="M81.661,0L65.209-16.458c-4.953,1.478-10.056,2.231-15.226,2.231C23.4-14.228,1.77-33.467,1.77-57.119
							C1.77-80.759,23.4-100,49.983-100c26.608,0,48.247,19.241,48.247,42.881c0,12.425-6.029,24.165-16.569,32.332V0z
							 M66.177-20.43l11.99,11.983v-18.084l0.692-0.527c10.089-7.523,15.868-18.476,15.868-30.06
							c0-21.713-20.071-39.381-44.745-39.381c-24.649,0-44.711,17.667-44.711,39.381c0,21.718,20.062,39.393,44.711,39.393
							c5.162,0,10.256-0.802,15.184-2.381L66.177-20.43z"/>
					</g>
				</g>
			</g>
		</g>
	</g>
</g>
</svg>
