<?xml version="1.0" encoding="utf-8"?>
<!-- Generator: Adobe Illustrator 17.0.0, SVG Export Plug-In . SVG Version: 6.00 Build 0)  -->
<!DOCTYPE svg PUBLIC "-//W3C//DTD SVG 1.1//EN" "http://www.w3.org/Graphics/SVG/1.1/DTD/svg11.dtd">
<svg version="1.1" xmlns="http://www.w3.org/2000/svg" xmlns:xlink="http://www.w3.org/1999/xlink" x="0px" y="0px" width="100px"
	 height="100px" viewBox="0 0 100 100" enable-background="new 0 0 100 100" xml:space="preserve">
<g id="图层_1">
</g>
<g id="Layer_1">
	<g>
		<path d="M89.813,62.044l-6.661,6.665l-5.481-5.481c8.542-9.508,10.808-22.599,6.798-34.061l0,0v-0.004
			c-1.642-4.677-4.216-9.081-7.944-12.813c-6.439-6.447-15.023-10-24.147-10c-0.641,0-1.257,0.145-1.898,0.184
			c-0.197,0.021-0.385-0.021-0.573,0.056c-7.567,0.547-14.613,3.523-20.256,8.611l-5.481-5.485l6.652-6.652
			c0.701-0.701,0.701-1.834,0-2.535c-0.701-0.701-1.838-0.701-2.539,0l-7.918,7.918c-17.657,17.674-17.657,46.413,0,64.07
			c8.482,8.478,19.521,12.843,30.654,13.185c-0.658,3.382-2.976,10.723-10.817,10.723h-2.24c-0.992,0-1.796,0.804-1.796,1.787
			c0,0.988,0.804,1.791,1.796,1.791h28.867c0.992,0,1.804-0.803,1.804-1.791c0-0.983-0.812-1.787-1.804-1.787H49.445
			c3.206-3.074,4.686-7.443,5.199-10.77c10.834-0.538,21.513-4.878,29.773-13.138l7.935-7.935c0.701-0.701,0.701-1.83,0-2.535
			C91.651,61.343,90.514,61.343,89.813,62.044z M73.986,62.082c-5.771,5.772-13.433,8.952-21.599,8.952
			c-8.149,0-15.827-3.181-21.59-8.952c-3.608-3.608-5.994-7.948-7.414-12.518l3.172-0.97l4.156,3.023
			c0.316,0.231,0.693,0.342,1.06,0.342c0.505,0,1.018-0.226,1.368-0.641l6.165-7.242c0.471-0.534,0.582-1.282,0.291-1.928
			c-0.291-0.637-0.932-1.052-1.633-1.052h-4.386l-2.3-1.591l-0.137-2.971l2.907-2.027c0.47-0.334,0.761-0.881,0.761-1.471V22.411
			c0-0.988-0.804-1.791-1.787-1.791h-3.642c0.496-0.573,0.872-1.193,1.419-1.731c4.626-4.634,10.492-7.499,16.836-8.487
			l-2.044,4.447c-0.299,0.675-0.171,1.462,0.342,1.992l3.395,3.544c0.154,0.167,0.334,0.286,0.53,0.389l6.943,3.266
			c0.53,0.239,1.112,0.214,1.599-0.035c0,0,1.71-0.902,2.787-1.573c1.06,0,4.429,0.757,7.328,1.556l5.378,6.345
			c0.342,0.393,0.838,0.628,1.368,0.628h6.011C84.743,41.565,82.4,53.677,73.986,62.082z M26.607,24.203h4.617v7.901l-2.958,2.052
			c-0.505,0.351-0.795,0.941-0.753,1.556l0.214,4.848c0.026,0.564,0.317,1.073,0.778,1.398l3.489,2.407
			c0.299,0.205,0.658,0.317,1.026,0.317h0.983l-2.54,3.044l-3.54-2.557c-0.453-0.333-1.043-0.419-1.573-0.265l-3.942,1.21
			C21.023,38.662,22.442,30.812,26.607,24.203z M73.986,18.888c2.523,2.523,4.395,5.43,5.857,8.487h-3.754l-5.199-6.123
			c-0.231-0.274-0.53-0.466-0.872-0.564c-8.884-2.522-9.953-1.812-10.543-1.419c-0.522,0.346-1.351,0.813-1.95,1.137l-5.84-2.736
			l-2.326-2.428L51.771,10c0.205-0.008,0.402-0.06,0.607-0.06C60.544,9.94,68.214,13.113,73.986,18.888z M21.758,12.386l5.353,5.361
			c-0.983,1.094-1.932,2.193-2.753,3.377c-0.034,0.035-0.051,0.077-0.094,0.12c-9.089,13.279-7.798,31.59,3.993,43.378
			c6.447,6.447,15.015,10,24.13,10c8.516,0,16.477-3.202,22.745-8.859l5.353,5.353c-16.34,14.977-41.753,14.686-57.58-1.142
			C7.077,54.156,6.777,28.734,21.758,12.386z"/>
		<path d="M60.441,44.874c-0.411-0.543-1.12-0.787-1.796-0.672c-0.667,0.137-1.214,0.658-1.368,1.326
			c-0.299,1.171-0.65,2.488-0.966,3.548c-1.12-0.859-2.822-2.039-5.395-3.673l-6.644-4.049c-0.462-0.286-1.069-0.333-1.573-0.128
			c-0.53,0.197-0.923,0.633-1.086,1.172l-1.513,5.31l-4.942,6.182c-0.248,0.321-0.385,0.714-0.385,1.125v6.135
			c0,0.821,0.556,1.544,1.351,1.74l9.166,2.262h13.724c0.351,0,0.693-0.111,0.983-0.299l5.669-3.711
			c0.496-0.334,0.795-0.898,0.795-1.501v-6.238c0-0.394-0.12-0.77-0.351-1.086L60.441,44.874z M62.878,58.67l-4.403,2.886
			l-12.741,0.056l-7.379-1.855v-4.113l4.78-5.968c0.145-0.188,0.257-0.402,0.325-0.633l0.966-3.386l4.6,2.796
			c2.677,1.702,5.857,3.92,6.191,4.207c0.248,0.735,1.017,1.325,1.787,1.325c1.197,0,1.779-0.436,2.805-4.01l3.07,4.027V58.67z"/>
		<path d="M77.782,31.886h-6.644c-0.992,0-1.795,0.808-1.795,1.795v6.798c0,0.569,0.274,1.091,0.718,1.437
			c0.308,0.231,0.693,0.355,1.077,0.355c0.162,0,0.334-0.017,0.505-0.068l6.644-1.932c0.761-0.222,1.291-0.923,1.291-1.727v-4.861
			C79.578,32.693,78.774,31.886,77.782,31.886z M75.987,37.2l-3.053,0.889v-2.616h3.053V37.2z"/>
	</g>
</g>
</svg>
