<?xml version="1.0" encoding="utf-8"?>
<!-- Generator: Adobe Illustrator 17.0.0, SVG Export Plug-In . SVG Version: 6.00 Build 0)  -->
<!DOCTYPE svg PUBLIC "-//W3C//DTD SVG 1.1//EN" "http://www.w3.org/Graphics/SVG/1.1/DTD/svg11.dtd">
<svg version="1.1" xmlns="http://www.w3.org/2000/svg" xmlns:xlink="http://www.w3.org/1999/xlink" x="0px" y="0px" width="100px"
	 height="100px" viewBox="0 0 100 100" enable-background="new 0 0 100 100" xml:space="preserve">
<g id="图层_1">
</g>
<g id="Layer_1">
	<g>
		<path d="M40.231,153.535c-0.637-0.635-1.664-0.635-2.3,0c-0.633,0.636-0.633,1.664,0,2.302l10.925,10.921
			c0.304,0.308,0.719,0.479,1.151,0.479c0.432,0,0.843-0.17,1.151-0.479l10.915-10.921c0.636-0.638,0.636-1.666,0-2.302
			c-0.635-0.635-1.664-0.635-2.3,0l-8.138,8.148v-60.057c0-0.895-0.728-1.626-1.628-1.626c-0.899,0-1.628,0.73-1.628,1.626v60.057
			L40.231,153.535z"/>
	</g>
	<g>
		<g>
			<g>
				<g>
					<g>
						<path d="M81.661,100L65.209,83.542c-4.953,1.478-10.056,2.231-15.226,2.231C23.4,85.772,1.77,66.533,1.77,42.881
							C1.77,19.241,23.4,0,49.983,0C76.591,0,98.23,19.241,98.23,42.881c0,12.425-6.029,24.165-16.569,32.332V100z M66.177,79.57
							l11.99,11.983V73.469l0.692-0.527c10.089-7.523,15.868-18.476,15.868-30.06C94.728,21.168,74.657,3.5,49.983,3.5
							C25.334,3.5,5.272,21.168,5.272,42.881c0,21.718,20.062,39.393,44.711,39.393c5.162,0,10.256-0.802,15.184-2.381L66.177,79.57
							z"/>
					</g>
				</g>
			</g>
		</g>
		<g>
			<g>
				<g>
					<g>
						<path d="M73.523,45.272h-47.03c-0.959,0-1.743-0.786-1.743-1.749c0-0.963,0.784-1.749,1.743-1.749h47.03
							c0.959,0,1.743,0.786,1.743,1.749C75.266,44.486,74.482,45.272,73.523,45.272z"/>
					</g>
				</g>
			</g>
			<g>
				<g>
					<g>
						<path d="M73.523,57.042h-47.03c-0.959,0-1.743-0.788-1.743-1.749c0-0.965,0.784-1.753,1.743-1.753h47.03
							c0.959,0,1.743,0.788,1.743,1.753C75.266,56.254,74.482,57.042,73.523,57.042z"/>
					</g>
				</g>
			</g>
			<g>
				<g>
					<g>
						<path d="M73.523,33.532h-47.03c-0.959,0-1.743-0.786-1.743-1.749c0-0.965,0.784-1.751,1.743-1.751h47.03
							c0.959,0,1.743,0.786,1.743,1.751C75.266,32.746,74.482,33.532,73.523,33.532z"/>
					</g>
				</g>
			</g>
		</g>
	</g>
</g>
</svg>
