<?xml version="1.0" encoding="utf-8"?>
<!-- Generator: Adobe Illustrator 17.0.0, SVG Export Plug-In . SVG Version: 6.00 Build 0)  -->
<!DOCTYPE svg PUBLIC "-//W3C//DTD SVG 1.1//EN" "http://www.w3.org/Graphics/SVG/1.1/DTD/svg11.dtd">
<svg version="1.1" xmlns="http://www.w3.org/2000/svg" xmlns:xlink="http://www.w3.org/1999/xlink" x="0px" y="0px" width="100px"
	 height="100px" viewBox="0 0 100 100" enable-background="new 0 0 100 100" xml:space="preserve">
<g id="图层_1">
</g>
<g id="Layer_1">
	<g>
		<path d="M39.733,15.668c-6.429,0-12.465,2.509-17.006,7.048c-4.548,4.538-7.047,10.581-7.047,17.003
			c0,6.426,2.499,12.465,7.047,17.008c4.538,4.554,10.576,7.053,17,7.053s12.465-2.499,17.003-7.053
			c9.374-9.376,9.378-24.63,0.005-34.011C52.196,18.177,46.157,15.668,39.733,15.668z M53.66,53.653
			c-3.72,3.731-8.67,5.78-13.932,5.78c-5.267,0-10.211-2.049-13.929-5.78c-3.725-3.72-5.78-8.667-5.78-13.934
			c0-5.263,2.054-10.204,5.78-13.93c3.721-3.731,8.665-5.774,13.935-5.774c5.267,0,10.212,2.044,13.932,5.774
			C61.344,33.473,61.344,45.974,53.66,53.653z"/>
		<path d="M73.69,60.297c9.425-15.518,7.081-35.703-5.868-48.655C60.317,4.134,50.341,0,39.733,0
			C29.126,0,19.145,4.134,11.641,11.642C4.136,19.14,0.012,29.116,0.012,39.719c0,10.618,4.134,20.604,11.64,28.097
			c7.487,7.487,17.448,11.617,28.043,11.617c7.316,0,14.405-1.982,20.612-5.754l23.528,23.549C85.628,99.012,88,100,90.53,100
			c2.531,0,4.905-0.988,6.691-2.773c3.689-3.7,3.689-9.697,0-13.386L73.69,60.297z M94.15,94.153c-1.935,1.93-5.309,1.93-7.244,0
			L60.878,68.115l-1.48,0.993c-5.832,3.912-12.649,5.987-19.704,5.987c-9.436,0-18.304-3.684-24.974-10.354
			C8.038,58.062,4.356,49.182,4.356,39.719c0-9.438,3.677-18.323,10.357-25.008c6.691-6.68,15.57-10.375,25.021-10.375
			s18.33,3.695,25.024,10.375c11.903,11.906,13.74,30.695,4.359,44.671l-0.996,1.48l26.03,26.048
			C96.147,88.901,96.147,92.155,94.15,94.153z"/>
	</g>
	<g>
		<path d="M49.404-78.382c-15.066,0-27.33,12.261-27.33,27.334c0,8.382,3.822,16.152,10.501,21.41
			c0.122,0.179,0.278,0.339,0.465,0.465c0.041,0.025,3.585,2.409,3.585,6.977c0,0.069,0.073,0.115,0.073,0.188
			c0.008,0.061-0.049,0.114-0.033,0.176l4.483,20.487C41.32-0.559,42.014,0,42.822,0h13.171c0.8,0,1.494-0.559,1.674-1.343
			l4.491-20.487c0.016-0.061-0.049-0.115-0.041-0.176c0.008-0.074,0.081-0.119,0.081-0.188c0-4.507,3.43-6.887,3.569-6.977
			c0.155-0.106,0.269-0.237,0.375-0.384c6.737-5.259,10.591-13.069,10.591-21.492C76.734-66.121,64.478-78.382,49.404-78.382z
			 M54.614-3.425H44.202l-0.367-1.686h11.146L54.614-3.425z M55.732-8.541H43.084l-0.376-1.699h13.4L55.732-8.541z M56.859-13.669
			H41.957l-1.486-6.814h17.891L56.859-13.669z M63.743-32.025c-0.147,0.106-0.27,0.225-0.367,0.371
			c-1.143,0.923-3.871,3.511-4.483,7.745h-7.773v-23.901c0-1.878,1.535-3.413,3.413-3.413c0.939,0,1.715-0.768,1.715-1.715
			c0-0.947-0.776-1.715-1.715-1.715c-2.074,0-3.871,0.98-5.128,2.437c-0.123-0.143-0.164-0.314-0.302-0.445
			c-1.282-1.286-2.988-1.992-4.793-1.992c-0.008,0-0.017,0-0.025,0c-0.939,0-1.707,0.768-1.707,1.723
			c0,0.943,0.768,1.707,1.715,1.707c0,0,0,0,0.008,0c0,0,0,0,0.008,0c0.89,0,1.739,0.347,2.384,0.992
			c0.645,0.637,1.004,1.503,1.004,2.421v23.901h-7.765c-0.605-4.213-3.315-6.798-4.475-7.737c-0.106-0.143-0.229-0.27-0.376-0.375
			c-6.091-4.606-9.578-11.538-9.578-19.026c0-13.183,10.722-23.905,23.901-23.905c13.187,0,23.909,10.722,23.909,23.905
			C73.313-43.563,69.818-36.635,63.743-32.025z"/>
	</g>
</g>
</svg>
