<?xml version="1.0" encoding="utf-8"?>
<!-- Generator: Adobe Illustrator 17.0.0, SVG Export Plug-In . SVG Version: 6.00 Build 0)  -->
<!DOCTYPE svg PUBLIC "-//W3C//DTD SVG 1.1//EN" "http://www.w3.org/Graphics/SVG/1.1/DTD/svg11.dtd">
<svg version="1.1" xmlns="http://www.w3.org/2000/svg" xmlns:xlink="http://www.w3.org/1999/xlink" x="0px" y="0px" width="100px"
	 height="100px" viewBox="0 0 100 100" enable-background="new 0 0 100 100" xml:space="preserve">
<g id="图层_1">
</g>
<g id="Layer_1">
	<g>
		<path d="M13.415,18.432c2.539,0,4.6-2.058,4.6-4.596c0-2.531-2.061-4.585-4.6-4.585s-4.6,2.054-4.6,4.585
			C8.815,16.373,10.875,18.432,13.415,18.432z M13.415,12.84c0.556,0,1.009,0.451,1.009,0.996c0,1.105-2.018,1.105-2.018,0
			C12.406,13.291,12.859,12.84,13.415,12.84z"/>
		<path d="M98.204,0.002H1.795C0.812,0.002,0,0.81,0,1.793v96.411c0,0.99,0.812,1.793,1.795,1.793h96.409
			c0.992,0,1.796-0.804,1.796-1.793V1.793C100,0.81,99.196,0.002,98.204,0.002z M96.409,3.591v20.503H3.591V3.591H96.409z
			 M3.591,96.411V27.68h92.818v68.731H3.591z"/>
		<path d="M49.837,18.573c2.616,0,4.745-2.127,4.745-4.737c0-2.608-2.129-4.724-4.745-4.724c-2.608,0-4.728,2.116-4.728,4.724
			C45.109,16.446,47.23,18.573,49.837,18.573z M49.837,12.699c0.633,0,1.146,0.513,1.146,1.137c0,1.252-2.274,1.265-2.274,0
			C48.709,13.212,49.213,12.699,49.837,12.699z"/>
		<path d="M14.663,36.666c-0.718-0.682-1.856-0.667-2.539,0.043c-0.684,0.714-0.667,1.849,0.043,2.533l11.175,10.771L12.577,60.777
			c-0.701,0.699-0.701,1.838,0,2.537c0.359,0.351,0.812,0.526,1.274,0.526s0.915-0.175,1.266-0.526l13.338-13.342L14.663,36.666z"/>
		<path d="M37.944,60.254H25.906c-0.992,0-1.795,0.804-1.795,1.793c0,0.985,0.804,1.793,1.795,1.793h12.038
			c0.975,0,1.787-0.808,1.787-1.793C39.731,61.057,38.919,60.254,37.944,60.254z"/>
		<path d="M31.557,18.573c2.616,0,4.737-2.127,4.737-4.737c0-2.608-2.12-4.724-4.737-4.724c-2.608,0-4.728,2.116-4.728,4.724
			C26.83,16.446,28.95,18.573,31.557,18.573z M31.557,12.699c0.633,0,1.146,0.513,1.146,1.137c0,1.252-2.283,1.265-2.283,0
			C30.421,13.212,30.934,12.699,31.557,12.699z"/>
	</g>
	<g>
		<path d="M89.813-37.956l-6.661,6.665l-5.481-5.481c8.542-9.508,10.808-22.599,6.798-34.061l0,0v-0.004
			c-1.642-4.677-4.216-9.081-7.944-12.813c-6.439-6.447-15.023-10-24.147-10c-0.641,0-1.257,0.145-1.898,0.184
			c-0.197,0.021-0.385-0.021-0.573,0.056c-7.567,0.547-14.613,3.523-20.256,8.611l-5.481-5.485l6.652-6.652
			c0.701-0.701,0.701-1.834,0-2.535c-0.701-0.701-1.838-0.701-2.539,0l-7.918,7.918c-17.657,17.674-17.657,46.413,0,64.07
			c8.482,8.478,19.521,12.843,30.654,13.185C50.36-10.919,48.043-3.578,40.202-3.578h-2.24c-0.992,0-1.796,0.804-1.796,1.787
			C36.166-0.803,36.97,0,37.962,0h28.867c0.992,0,1.804-0.803,1.804-1.791c0-0.983-0.812-1.787-1.804-1.787H49.445
			c3.206-3.074,4.686-7.443,5.199-10.77c10.834-0.538,21.513-4.878,29.773-13.138l7.935-7.935c0.701-0.701,0.701-1.83,0-2.535
			C91.651-38.657,90.514-38.657,89.813-37.956z M73.986-37.918c-5.771,5.772-13.433,8.952-21.599,8.952
			c-8.149,0-15.827-3.181-21.59-8.952c-3.608-3.608-5.994-7.948-7.414-12.518l3.172-0.97l4.156,3.023
			c0.316,0.231,0.693,0.342,1.06,0.342c0.505,0,1.018-0.226,1.368-0.641l6.165-7.242c0.471-0.534,0.582-1.282,0.291-1.928
			c-0.291-0.637-0.932-1.052-1.633-1.052h-4.386l-2.3-1.591l-0.137-2.971l2.907-2.027c0.47-0.334,0.761-0.881,0.761-1.471v-10.624
			c0-0.988-0.804-1.791-1.787-1.791h-3.642c0.496-0.573,0.872-1.193,1.419-1.731c4.626-4.634,10.492-7.499,16.836-8.487
			l-2.044,4.447c-0.299,0.675-0.171,1.462,0.342,1.992l3.395,3.544c0.154,0.167,0.334,0.286,0.53,0.389l6.943,3.266
			c0.53,0.239,1.112,0.214,1.599-0.035c0,0,1.71-0.902,2.787-1.573c1.06,0,4.429,0.757,7.328,1.556l5.378,6.345
			c0.342,0.393,0.838,0.628,1.368,0.628h6.011C84.743-58.435,82.4-46.323,73.986-37.918z M26.607-75.797h4.617v7.901l-2.958,2.052
			c-0.505,0.351-0.795,0.941-0.753,1.556l0.214,4.848c0.026,0.564,0.317,1.073,0.778,1.398l3.489,2.407
			c0.299,0.205,0.658,0.317,1.026,0.317h0.983l-2.54,3.044l-3.54-2.557c-0.453-0.333-1.043-0.419-1.573-0.265l-3.942,1.21
			C21.023-61.338,22.442-69.188,26.607-75.797z M73.986-81.112c2.523,2.523,4.395,5.43,5.857,8.487h-3.754l-5.199-6.123
			c-0.231-0.274-0.53-0.466-0.872-0.564c-8.884-2.522-9.953-1.812-10.543-1.419c-0.522,0.346-1.351,0.813-1.95,1.137l-5.84-2.736
			l-2.326-2.428L51.771-90c0.205-0.008,0.402-0.06,0.607-0.06C60.544-90.06,68.214-86.887,73.986-81.112z M21.758-87.614
			l5.353,5.361c-0.983,1.094-1.932,2.193-2.753,3.377c-0.034,0.035-0.051,0.077-0.094,0.12c-9.089,13.279-7.798,31.59,3.993,43.378
			c6.447,6.447,15.015,10,24.13,10c8.516,0,16.477-3.202,22.745-8.859l5.353,5.353c-16.34,14.977-41.753,14.686-57.58-1.142
			C7.077-45.844,6.777-71.266,21.758-87.614z"/>
	</g>
	<g>
		<g>
			<g>
				<g>
					<g>
						<path d="M81.661,200l-16.452-16.458c-4.953,1.478-10.056,2.231-15.226,2.231c-26.583,0-48.213-19.239-48.213-42.891
							C1.77,119.241,23.4,100,49.983,100c26.608,0,48.247,19.241,48.247,42.881c0,12.425-6.029,24.165-16.569,32.332V200z
							 M66.177,179.57l11.99,11.983v-18.084l0.692-0.527c10.089-7.523,15.868-18.476,15.868-30.06
							c0-21.713-20.071-39.381-44.745-39.381c-24.649,0-44.711,17.667-44.711,39.381c0,21.718,20.062,39.393,44.711,39.393
							c5.162,0,10.256-0.802,15.184-2.381L66.177,179.57z"/>
					</g>
				</g>
			</g>
		</g>
	</g>
</g>
</svg>
