<?xml version="1.0" encoding="utf-8"?>
<!-- Generator: Adobe Illustrator 17.0.0, SVG Export Plug-In . SVG Version: 6.00 Build 0)  -->
<!DOCTYPE svg PUBLIC "-//W3C//DTD SVG 1.1//EN" "http://www.w3.org/Graphics/SVG/1.1/DTD/svg11.dtd">
<svg version="1.1" id="Layer_1" xmlns="http://www.w3.org/2000/svg" xmlns:xlink="http://www.w3.org/1999/xlink" x="0px" y="0px"
	 width="100px" height="100px" viewBox="0 0 100 100" enable-background="new 0 0 100 100" xml:space="preserve">
<g id="XMLID_184_">
	<path d="M50,85.931c-1.229,0-30.185-0.024-37.829-2.085C7.254,82.523,3.384,78.629,2.07,73.683C0.024,65.997,0,50.649,0,50
		s0.024-15.997,2.07-23.684c1.313-4.944,5.184-8.838,10.102-10.161c7.642-2.061,36.598-2.085,37.827-2.085
		s30.185,0.024,37.829,2.085c4.917,1.323,8.788,5.217,10.101,10.162C99.976,34.003,100,49.35,100,50s-0.024,15.997-2.07,23.685
		c-1.313,4.944-5.184,8.838-10.102,10.161C80.185,85.907,51.229,85.931,50,85.931z M50,18.831c-8.196,0-30.747,0.346-36.589,1.921
		c-3.279,0.883-5.861,3.483-6.739,6.787C4.784,34.633,4.762,49.847,4.762,50s0.023,15.373,1.91,22.46
		c0.878,3.305,3.459,5.906,6.737,6.788c5.843,1.576,28.394,1.921,36.59,1.921s30.747-0.346,36.589-1.921
		c3.279-0.883,5.861-3.483,6.739-6.787c1.888-7.094,1.91-22.308,1.91-22.461s-0.023-15.373-1.91-22.46
		c-0.878-3.305-3.459-5.906-6.737-6.788C80.747,19.177,58.196,18.831,50,18.831z"/>
	<path d="M40.259,66.541c-0.414,0-0.827-0.107-1.197-0.323c-0.733-0.426-1.184-1.21-1.184-2.058V35.839
		c0-0.848,0.451-1.632,1.184-2.058c0.732-0.426,1.637-0.431,2.374-0.011l24.892,14.161c0.744,0.423,1.203,1.213,1.203,2.069
		s-0.459,1.646-1.203,2.069L41.437,66.23C41.072,66.438,40.665,66.541,40.259,66.541z M42.64,39.933v20.134L60.336,50L42.64,39.933z
		"/>
</g>
<g>
	<path d="M50,200c-14.021,0-15.858-0.059-21.379-0.311c-4.791-0.219-8.487-0.923-11.983-2.282c-3.356-1.304-5.98-3.012-8.507-5.538
		c-2.526-2.527-4.234-5.15-5.538-8.507c-1.36-3.497-2.063-7.193-2.282-11.982C0.06,165.859,0,164.022,0,150
		c0-14.021,0.06-15.858,0.311-21.379c0.218-4.79,0.922-8.485,2.282-11.983c1.305-3.357,3.013-5.981,5.538-8.507
		s5.149-4.234,8.507-5.538c3.498-1.36,7.194-2.063,11.983-2.282C34.142,100.06,35.979,100,50,100c14.022,0,15.859,0.06,21.38,0.311
		c4.789,0.218,8.485,0.922,11.982,2.282c3.357,1.305,5.98,3.013,8.507,5.539c2.526,2.526,4.234,5.15,5.538,8.506
		c1.359,3.497,2.063,7.193,2.282,11.984C99.941,134.142,100,135.979,100,150c0,14.022-0.059,15.859-0.311,21.38
		c-0.219,4.79-0.923,8.486-2.282,11.982c-1.304,3.356-3.012,5.98-5.538,8.507c-2.527,2.526-5.151,4.234-8.507,5.538
		c-3.496,1.359-7.192,2.063-11.982,2.282C65.859,199.941,64.022,200,50,200z M50,105.217c-13.944,0-15.602,0.053-21.141,0.306
		c-5.38,0.246-8.347,1.162-10.331,1.933c-2.687,1.044-4.692,2.35-6.707,4.365s-3.321,4.021-4.365,6.707
		c-0.771,1.985-1.687,4.951-1.933,10.331c-0.252,5.539-0.306,7.197-0.306,21.141c0,13.943,0.053,15.602,0.306,21.141
		c0.246,5.38,1.162,8.348,1.933,10.331c1.044,2.687,2.35,4.693,4.365,6.707c2.016,2.016,4.022,3.322,6.707,4.365
		c1.986,0.771,4.955,1.689,10.331,1.933c5.525,0.252,7.181,0.306,21.141,0.306s15.616-0.054,21.142-0.306
		c5.376-0.244,8.345-1.162,10.33-1.933c2.686-1.043,4.692-2.349,6.708-4.365c2.015-2.015,3.321-4.021,4.364-6.708
		c0.771-1.985,1.689-4.953,1.933-10.33c0.252-5.526,0.306-7.182,0.306-21.141c0-13.959-0.054-15.615-0.306-21.141
		c-0.244-5.376-1.162-8.345-1.933-10.331c-1.043-2.686-2.349-4.692-4.365-6.708c-2.014-2.015-4.02-3.32-6.707-4.365
		c-1.984-0.771-4.951-1.687-10.331-1.933C65.602,105.271,63.943,105.217,50,105.217z"/>
</g>
</svg>
