<?xml version="1.0" encoding="utf-8"?>
<!-- Generator: Adobe Illustrator 17.0.0, SVG Export Plug-In . SVG Version: 6.00 Build 0)  -->
<!DOCTYPE svg PUBLIC "-//W3C//DTD SVG 1.1//EN" "http://www.w3.org/Graphics/SVG/1.1/DTD/svg11.dtd">
<svg version="1.1" id="Layer_1" xmlns="http://www.w3.org/2000/svg" xmlns:xlink="http://www.w3.org/1999/xlink" x="0px" y="0px"
	 width="100px" height="100px" viewBox="0 0 100 100" enable-background="new 0 0 100 100" xml:space="preserve">
<g>
	<path d="M50,100c-14.021,0-15.858-0.059-21.379-0.311c-4.791-0.219-8.487-0.923-11.983-2.282c-3.356-1.304-5.98-3.012-8.507-5.538
		c-2.526-2.527-4.234-5.15-5.538-8.507c-1.36-3.497-2.063-7.193-2.282-11.982C0.06,65.859,0,64.022,0,50
		c0-14.021,0.06-15.858,0.311-21.379c0.218-4.79,0.922-8.485,2.282-11.983c1.305-3.357,3.013-5.981,5.538-8.507
		s5.149-4.234,8.507-5.538c3.498-1.36,7.194-2.063,11.983-2.282C34.142,0.06,35.979,0,50,0c14.022,0,15.859,0.06,21.38,0.311
		c4.789,0.218,8.485,0.922,11.982,2.282c3.357,1.305,5.98,3.013,8.507,5.539c2.526,2.526,4.234,5.15,5.538,8.506
		c1.359,3.497,2.063,7.193,2.282,11.984C99.941,34.142,100,35.979,100,50c0,14.022-0.059,15.859-0.311,21.38
		c-0.219,4.79-0.923,8.486-2.282,11.982c-1.304,3.356-3.012,5.98-5.538,8.507c-2.527,2.526-5.151,4.234-8.507,5.538
		c-3.496,1.359-7.192,2.063-11.982,2.282C65.859,99.941,64.022,100,50,100z M50,5.217c-13.944,0-15.602,0.053-21.141,0.306
		c-5.38,0.246-8.347,1.162-10.331,1.933c-2.687,1.044-4.692,2.35-6.707,4.365S8.5,15.842,7.456,18.528
		c-0.771,1.985-1.687,4.951-1.933,10.331C5.271,34.398,5.217,36.056,5.217,50c0,13.943,0.053,15.602,0.306,21.141
		c0.246,5.38,1.162,8.348,1.933,10.331c1.044,2.687,2.35,4.693,4.365,6.707c2.016,2.016,4.022,3.322,6.707,4.365
		c1.986,0.771,4.955,1.689,10.331,1.933c5.525,0.252,7.181,0.306,21.141,0.306s15.616-0.054,21.142-0.306
		c5.376-0.244,8.345-1.162,10.33-1.933c2.686-1.043,4.692-2.349,6.708-4.365c2.015-2.015,3.321-4.021,4.364-6.708
		c0.771-1.985,1.689-4.953,1.933-10.33c0.252-5.526,0.306-7.182,0.306-21.141c0-13.959-0.054-15.615-0.306-21.141
		c-0.244-5.376-1.162-8.345-1.933-10.331c-1.043-2.686-2.349-4.692-4.365-6.708c-2.014-2.015-4.02-3.32-6.707-4.365
		c-1.984-0.771-4.951-1.687-10.331-1.933C65.602,5.271,63.943,5.217,50,5.217z"/>
	<path d="M50,74.662c-13.599,0-24.662-11.064-24.662-24.662S36.401,25.338,50,25.338S74.662,36.401,74.662,50
		S63.599,74.662,50,74.662z M50,30.556c-10.722,0-19.444,8.722-19.444,19.444S39.278,69.445,50,69.445S69.445,60.722,69.445,50
		S60.722,30.556,50,30.556z"/>
	<path d="M77.803,26.365c-2.298,0-4.167-1.869-4.167-4.167s1.869-4.167,4.167-4.167s4.167,1.869,4.167,4.167
		S80.101,26.365,77.803,26.365z"/>
</g>
</svg>
