<?xml version="1.0" encoding="utf-8"?>
<!-- Generator: Adobe Illustrator 17.0.0, SVG Export Plug-In . SVG Version: 6.00 Build 0)  -->
<!DOCTYPE svg PUBLIC "-//W3C//DTD SVG 1.1//EN" "http://www.w3.org/Graphics/SVG/1.1/DTD/svg11.dtd">
<svg version="1.1" id="Layer_1" xmlns="http://www.w3.org/2000/svg" xmlns:xlink="http://www.w3.org/1999/xlink" x="0px" y="0px"
	 width="303.165px" height="300px" viewBox="0 0 303.165 300" enable-background="new 0 0 303.165 300" xml:space="preserve">
<g>
	<g>
		<polygon fill="#ED1C24" points="119.766,162 119.706,162.136 122.116,161.211 		"/>
		<path fill="#ED1C24" d="M116.213,144.51l0.056,0.147l5.924-2.218c2.504-0.923,4.556-1.56,6.154-1.91l0.249-0.378l-0.722-0.117
			l-19.855,7.396l-0.863,0.839c0.973-0.598,2.514-1.246,4.617-1.942c0.767-0.256,1.462-0.505,2.085-0.744
			C114.874,145.192,115.66,144.833,116.213,144.51z"/>
		<path fill="#ED1C24" d="M131.898,157.795c0.284,0.004,0.458-0.006,0.524-0.032c0.131-0.05,0.172-0.142,0.121-0.273
			c-0.323,0.082-0.752,0.21-1.259,0.372C131.415,157.814,131.62,157.791,131.898,157.795z"/>
		<path fill="#ED1C24" d="M131.274,157.866c-1.752,0.56-4.583,1.589-8.518,3.1c4.394-1.498,7.163-2.467,8.311-2.908
			C131.107,157.968,131.176,157.904,131.274,157.866z"/>
		<path fill="#ED1C24" d="M157.328,128.67c-0.537,0.169-1.049,0.405-1.535,0.709c0.096,0.152,0.179,0.268,0.247,0.349
			c0.356-0.25,0.781-0.469,1.272-0.658c0.36-0.138,0.773-0.24,1.238-0.305C158.434,128.465,158.028,128.433,157.328,128.67z"/>
		<path fill="#ED1C24" d="M124.822,179.141l-0.034,0.206c1.203-0.397,4.153-1.481,8.856-3.255c3.59-1.334,6.536-2.333,8.84-2.998
			c-1.765,0.303-3.77,0.864-6.013,1.688C132.674,176.164,128.79,177.618,124.822,179.141z"/>
		<path fill="#ED1C24" d="M139.271,135.602c-0.045,0.081-0.196,0.177-0.453,0.291c-0.258,0.115-0.369,0.213-0.338,0.294
			c0.011,0.028,0.063,0.071,0.16,0.127c0.974-0.406,1.755-0.674,2.345-0.806l-0.189-0.491L139.271,135.602z"/>
		<path fill="#ED1C24" d="M52.755,188.345l-7.679,2.496l-0.171,0.292c4.406-1.465,7.071-2.319,7.994-2.56L52.755,188.345z"/>
		<path fill="#ED1C24" d="M87.147,174.352c0.667-0.03,1.344-0.177,2.033-0.441c0.656-0.252,1.192-0.571,1.608-0.956
			c-0.806,0.348-1.522,0.641-2.146,0.88C88.053,174.061,87.554,174.234,87.147,174.352z"/>
		<polygon fill="#ED1C24" points="52.967,188.603 52.899,188.572 53.004,188.7 		"/>
		<path fill="#ED1C24" d="M173.417,122.494c-0.82,0.315-1.122,0.656-0.905,1.024l2.805-1.077l-0.076-0.197
			C174.715,122.147,174.107,122.23,173.417,122.494z"/>
		<polygon fill="#ED1C24" points="52.672,194.304 54.246,193.7 53.876,193.616 		"/>
		<polygon fill="#ED1C24" points="84.44,156.706 87.933,155.365 84.806,156.339 		"/>
		<path fill="#ED1C24" d="M81.297,158.081c0.086-0.069,0.545-0.245,1.378-0.529c0.426-0.164,0.866-0.389,1.322-0.675l-2.93,0.899
			L81.297,158.081z"/>
		<path fill="#ED1C24" d="M61.688,165.101c-0.46,0.177-0.918,0.503-1.375,0.978c0.157,0.017,0.317-0.008,0.481-0.072
			c0.484-0.11,0.857-0.216,1.12-0.317l1.279-0.491C62.715,164.933,62.211,164.9,61.688,165.101z"/>
		<path fill="#ED1C24" d="M49.531,170.388c-1.347,0.217-2.391,0.486-3.133,0.808l0.094,0.245
			C47.772,170.95,48.784,170.6,49.531,170.388z"/>
		<path fill="#ED1C24" d="M41.632,192.163c-1.116,0.428-2.034,0.781-2.756,1.058l5.909-1.816l-0.095-0.246
			C43.766,191.4,42.746,191.735,41.632,192.163z"/>
		<path fill="#ED1C24" d="M258.661,133.748c0.172,0.108,0.37,0.141,0.584,0.132l1.045-0.384c0.148-0.094,0.3-0.197,0.463-0.325
			L258.661,133.748z"/>
		<path fill="#ED1C24" d="M32.321,176.881l0.152-0.34c-0.06,0.136-0.155,0.255-0.245,0.377L32.321,176.881z"/>
		<path fill="#ED1C24" d="M229.135,145.082c0.172,0.108,0.371,0.141,0.585,0.132l1.045-0.384c0.148-0.094,0.3-0.197,0.463-0.325
			L229.135,145.082z"/>
		<path fill="#ED1C24" d="M215.379,106.161c-0.296,0.113-0.534,0.224-0.719,0.332c-0.098,0.038-0.164,0.063-0.197,0.076
			c-0.008,0.079-0.118,0.205-0.333,0.382c-0.214,0.177-0.252,0.35-0.11,0.522c0.239-0.355,0.507-0.59,0.802-0.703
			c0.098-0.038,0.253-0.077,0.461-0.12c0.21-0.042,0.364-0.083,0.462-0.121c0.197-0.076,0.391-0.206,0.584-0.392
			C216.09,106.001,215.773,106.009,215.379,106.161z"/>
		<path fill="#ED1C24" d="M302.689,129.494l-23.17-60.359c-1.419-3.697-5.606-5.561-9.303-4.142L4.618,166.946
			c-3.697,1.419-5.561,5.606-4.142,9.303l23.17,60.359c1.419,3.697,5.606,5.561,9.303,4.142l265.598-101.953
			C302.244,137.378,304.108,133.191,302.689,129.494z M191.089,115.146c0.616-0.161,1.243-0.195,1.881-0.101
			c-0.753,0.1-1.309,0.22-1.669,0.358l-0.749,0.4c-0.317,0.159-0.502,0.362-0.558,0.608
			C189.919,116.217,190.283,115.794,191.089,115.146z M54.738,193.511c-0.286,0.335-0.641,0.584-1.068,0.748
			c-0.295,0.113-0.774,0.213-1.437,0.298c-0.665,0.086-1.143,0.185-1.439,0.299c-0.362,0.139-0.635,0.357-0.822,0.653
			c-0.305-0.108-0.724-0.023-1.256,0.258c-0.705,0.421-1.2,0.65-1.488,0.684l0.075,0.196l-0.378-0.249
			c-0.376,0.295-0.941,0.586-1.695,0.876c-0.362,0.139-0.913,0.323-1.652,0.55c-0.741,0.228-1.291,0.411-1.652,0.55
			c-0.984,0.378-1.75,0.785-2.298,1.22l-0.386,1.052l2.826,7.214c1.196,3.116,1.85,5.555,1.963,7.319
			c0.034,0.778-0.446,1.489-1.44,2.134c-0.169-0.048-0.875,0.073-2.119,0.361c-0.904,0.198-1.608-0.116-2.111-0.939L27.37,187.363
			c-0.04-0.398-0.179-0.908-0.418-1.532c-0.101-0.263-0.263-0.634-0.484-1.114c-0.222-0.478-0.383-0.85-0.484-1.113
			c-0.881-2.296-0.634-3.952,0.745-4.971l1.934-1.138l19.874-7.346c0.848-0.438,1.944-0.182,3.288,0.77
			c0.237,0.324,0.419,0.65,0.545,0.978c0.403,1.05,0.301,2.011-0.305,2.883c-0.607,0.872-1.451,1.516-2.533,1.932
			c-0.295,0.113-0.596,0.21-0.904,0.291c0.328-0.126,0.807-0.347,1.438-0.665c0.631-0.317,1.082-0.659,1.354-1.028
			c-0.202-0.035-0.4-0.016-0.597,0.06c-0.165,0.063-0.413,0.225-0.746,0.485c-0.333,0.26-0.598,0.427-0.795,0.502
			c-0.165,0.063-0.331,0.071-0.499,0.022l-7.037,2.701c-2.865,1.063-5.473,2.064-7.822,3.003c-0.041,0.091-0.235,0.347-0.582,0.762
			c-0.348,0.418-0.488,0.765-0.419,1.04c1.141,3.758,2.366,6.803,3.676,9.135l1.113,0.252l14.894-5.32
			c1.546,0.009,2.55,0.565,3.011,1.667C56.297,191.2,56.004,192.497,54.738,193.511z M46.474,177.715l-4.133,1.587l1.918-0.736
			L46.474,177.715z M76.949,204.122l-0.739,0.284c0.557-0.214,0.869-0.484,0.932-0.81c-0.222,0.011-0.511,0.14-0.868,0.39
			c-0.29,0.224-0.542,0.303-0.757,0.234l-0.193,0.526c-1.027,0.168-2.001-0.211-2.92-1.137l-13.028-34.968
			c-0.198-0.903,0.237-2.029,1.3-3.378c0.185-0.108,0.374-0.2,0.571-0.276c0.69-0.265,1.677-0.192,2.963,0.218l1.108,1.268
			l12.891,34.908C78.305,202.51,77.884,203.424,76.949,204.122z M90.042,199.097l-1.219,0.355c1.209-0.577,1.825-1.077,1.851-1.5
			c-0.234-0.023-0.466,0.009-0.696,0.098c-0.229,0.088-0.525,0.324-0.886,0.707c-0.36,0.384-0.64,0.612-0.837,0.688
			c-0.294,0.113-0.653,0.062-1.075-0.154l-1.54-1.22l-12.947-34.759c-0.391-1.019,0.013-2.023,1.214-3.013
			c1.63-0.852,2.889-1.392,3.781-1.621c-0.237,0.267-0.793,0.558-1.669,0.872c-0.877,0.315-1.397,0.7-1.56,1.157
			c0.254-0.022,0.731-0.205,1.427-0.548c0.61-0.27,1.115-0.428,1.513-0.468l0.038,0.099l0.689-0.265l13.477,36.433
			C91.629,197.302,91.109,198.348,90.042,199.097z M109.666,191.394c-0.349,0.172-0.592,0.322-0.73,0.45
			c0.303-0.582,0.466-0.941,0.489-1.077c-0.193-0.011-0.387,0.022-0.583,0.097c-0.132,0.051-0.418,0.236-0.86,0.556
			c-0.185,0.108-0.374,0.2-0.571,0.276c-0.165,0.063-0.319,0.103-0.462,0.121c0.007,0.216,0.44,0.313,1.297,0.292
			c-0.532,0.279-1.184,0.322-1.955,0.126c-0.771-0.196-1.313-0.556-1.627-1.079l-11.59-11.958c-1.925-0.207-3.149-0.211-3.674-0.009
			c-0.229,0.088-0.429,0.203-0.601,0.344l-1.88-5.487l5.904-2.266c2.215-1.189,3.286-2.861,3.211-5.016
			c-0.113-0.784-0.276-1.456-0.49-2.013c-0.378-0.984-0.928-1.733-1.653-2.245c-1.77-1.278-3.918-1.432-6.443-0.462
			c0.052-0.057,0.089-0.109,0.11-0.155c-1.426,0.208-2.979,0.674-4.66,1.393l-2.024-5.715c0.926-0.43,1.816-0.81,2.669-1.137
			c6.528-2.506,11.672-1.896,15.437,1.828c1.095,1.089,1.933,2.389,2.514,3.902c1.136,2.96,1.171,6.041,0.103,9.242
			c-0.09,0.451-0.617,1.237-1.578,2.36c-0.749,0.893-0.991,1.683-0.726,2.374c0.063,0.163,0.158,0.315,0.288,0.455l10.665,11.017
			C110.922,188.78,110.729,190.044,109.666,191.394z M144.561,177.77c-0.131,0.05-0.336,0.205-0.612,0.462
			c-0.277,0.259-0.528,0.391-0.75,0.402c0.185-0.108,0.32-0.197,0.405-0.269l-0.273-0.121c-3.451,1.401-7.032,2.812-10.737,4.235
			c-3.675,1.411-7.213,2.731-10.616,3.962c-0.521,0.313-1.199,0.386-2.034,0.217c-0.836-0.168-1.368-0.548-1.595-1.138
			l-12.465-33.208c-0.629-1.64-0.431-3.033,0.596-4.18c0.969-0.711,1.651-1.142,2.044-1.293l19.618-7.135
			c0.653-0.062,1.297,0.122,1.935,0.556c0.636,0.433,1.075,0.962,1.314,1.584c0.315,0.82,0.283,1.718-0.096,2.69
			c-0.463,0.856-1.185,1.472-2.169,1.85c-0.263,0.101-0.488,0.15-0.678,0.147c1.148-0.441,1.784-0.892,1.907-1.354
			c-2.01,1.036-4.148,1.988-6.411,2.856l-6.741,2.588c-1.312,0.504-2.48,0.989-3.505,1.457l-0.549,1.217
			c0.407,0.964,0.977,2.497,1.71,4.603c0.757,2.17,1.393,3.679,1.906,4.525l0.955,0.136c0.984-0.378,2.805-1.077,5.462-2.097
			c2.337-0.971,4.091-1.645,5.264-2.021c1.908-0.619,3.613-1.031,5.114-1.236c0.573,0.117,1.063,0.413,1.472,0.89
			c0.224,0.289,0.504,0.778,0.844,1.468c0.245,1.324-0.154,2.392-1.197,3.204l0.181-0.264l-0.147-0.088l-0.212,0.477l-5.355,2.224
			c-0.134-0.249-0.266-0.349-0.397-0.298c-0.066,0.025-0.139,0.129-0.22,0.31c-0.676,0.297-1.616,0.64-2.824,1.027
			c-1.414,0.43-2.386,0.746-2.91,0.947c-1.279,0.491-2.408,1.131-3.384,1.919l-0.164,1.193l3.343,8.708l1.131,0.3l18.191-6.587
			c1.254-0.064,2.222,0.495,2.901,1.677C145.402,175.645,145.317,176.798,144.561,177.77z M180.564,164.349
			c-0.017-0.043-0.01-0.122,0.023-0.235c-0.24-0.134-0.527-0.098-0.862,0.105c-0.389,0.262-0.644,0.38-0.768,0.351l0.132,0.345
			c-1.497,0.122-2.549-0.263-3.155-1.16l-11.849-17.187c-0.401-0.259-0.73-0.434-0.99-0.523c-0.349,0.171-0.539,0.509-0.573,1.01
			c-0.028,0.124,0.002,0.545,0.091,1.263l2.409,20.245c-0.064,0.816-0.494,1.413-1.288,1.793c-0.701,0.232-1.38,0.473-2.036,0.725
			l0.076,0.197c-1.179,0.265-2.161-0.186-2.947-1.352l-21.256-30.962c-0.401-1.238-0.032-2.434,1.107-3.587
			c0.205-0.153,0.421-0.275,0.652-0.363c1.409-0.541,2.653-0.34,3.73,0.601l12.566,17.588c0.187,0.192,0.378,0.249,0.575,0.173
			c0.13-0.05,0.259-0.156,0.386-0.316c0.228-0.879,0.202-2.073-0.077-3.584c-0.314-1.799-0.473-2.998-0.477-3.599l-1.443-15.084
			c0.585-1.316,1.223-2.107,1.912-2.371c0.163-0.063,0.356-0.098,0.578-0.109c1.362-0.373,2.376-0.084,3.041,0.864l11.871,16.952
			c0.718,0.402,1.143,0.578,1.275,0.528c0.098-0.038,0.185-0.108,0.258-0.212c0.368-0.706,0.403-1.642,0.108-2.807
			c-0.353-1.408-0.524-2.341-0.51-2.797l-1.472-16.484c0.336-1.182,1.012-1.969,2.03-2.36c0.425-0.163,0.851-0.233,1.275-0.207
			c1.272,0.078,2.179,0.825,2.721,2.238c0.202,0.526,0.331,1.061,0.391,1.604l3.977,36.392
			C181.87,162.848,181.376,163.622,180.564,164.349z M200.82,145.791c0.203-0.154,0.359-0.288,0.465-0.405
			c-0.457-0.013-0.898,0.062-1.325,0.226c-0.426,0.164-1.134,0.624-2.123,1.38c-0.226,1.178-0.296,2.86-0.208,5.047
			c0.118,2.364,0.095,4.067-0.071,5.107l-0.595,0.511c-0.088,0.26-0.247,0.434-0.476,0.522l0.476-0.522
			c0.008-0.077,0.022-0.139,0.042-0.186c-0.254,0.023-1.169,0.336-2.743,0.94c0.055,0.075,0.134,0.128,0.228,0.166
			c0.421,0.008,0.763-0.012,1.028-0.058c0.164-0.046,0.332-0.096,0.525-0.17c-0.112,0.079-0.301,0.131-0.525,0.17
			c-0.454,0.127-0.801,0.15-1.028,0.058c-0.354-0.007-0.744-0.026-1.209-0.071c-0.727-0.323-1.24-0.879-1.543-1.667
			c-0.189-0.491-0.327-1.097-0.416-1.816c-0.141-1.15-0.202-1.747-0.183-1.793l-1.116-27.516l0.634,0.039l6.072,7.323l0.336,6.024
			c0.3,0.488,0.816,0.704,1.548,0.649l0.542-0.208c0.486,1.168,0.893,2.178,1.22,3.031c0.554,1.444,0.87,2.414,0.948,2.911
			C201.282,145.576,201.115,145.678,200.82,145.791z M218.852,149.086c-0.581,0.449-1.033,0.792-1.355,1.029l0.11-0.155
			c-0.208-0.146-0.491-0.151-0.852-0.012c-0.229,0.088-0.42,0.18-0.571,0.276c-0.076,0.029-0.121,0.046-0.148,0.057l0.132,0.345
			c-1.479-0.222-2.857-1.217-4.138-2.985c-1.754-2.411-2.85-3.797-3.289-4.157c-0.714-0.29-1.532-0.315-2.455-0.073l-2.191,0.615
			l-1.847-5.106c0.111-0.004,0.215-0.026,0.313-0.064c0.197-0.076,0.307-0.23,0.33-0.464l-0.874,0.222
			c0.998-0.608,1.502-1.158,1.511-1.65c-1.397-2.169-3.708-5.196-6.931-9.086c-3.225-3.888-5.522-6.884-6.894-8.986
			c-0.244-0.733-0.214-1.44,0.089-2.12c0.219,0.18,0.477,0.212,0.773,0.099c0.131-0.05,0.307-0.155,0.528-0.316
			c0.221-0.159,0.397-0.265,0.528-0.316c0.229-0.088,0.429-0.108,0.598-0.06c0.077,0.008,0.201-0.086,0.371-0.283
			c0.168-0.197,0.286-0.308,0.352-0.333c0.131-0.05,0.267,0.01,0.409,0.182l0.211-0.477c-0.07-0.086-0.174-0.159-0.309-0.22
			c0.415,0.105,0.776,0.211,1.082,0.319l1.49,1.235l23.021,29.382C219.274,147.099,219.276,148.134,218.852,149.086z
			 M247.957,138.083l-0.307,0.231l0.11-0.155c-0.32,0.049-0.744,0.173-1.268,0.374c-0.263,0.101-0.658,0.272-1.187,0.512
			c-0.528,0.241-0.924,0.411-1.186,0.512c-0.657,0.252-1.206,0.388-1.65,0.408l-0.133,0.39l-0.271-0.122
			c-0.212,0.233-0.451,0.399-0.712,0.5c-0.066,0.025-0.347,0.077-0.844,0.154c-0.353,0.061-0.642,0.19-0.866,0.389
			c-0.829,0.394-2.213,0.906-4.152,1.537c-1.777,0.569-3.132,1.108-4.065,1.617l0.697-0.098l15.083-5.564l-14.27,5.478l-0.813,0.086
			l-1.357,0.499c-0.193,0.122-0.376,0.223-0.544,0.287c-0.181,0.069-0.344,0.09-0.501,0.097l-1.061,0.39
			c-1.348-0.272-2.193-0.757-2.535-1.454l-13.042-35.302c-0.02-0.932,0.43-1.82,1.349-2.662c1.589-0.76,2.982-0.617,4.173,0.431
			l11.748,30.604c0.216,0.368,0.58,0.53,1.089,0.485l1.256-0.256l12.74-4.608c1.271,0.076,2.166,0.447,2.686,1.113
			c0.132,0.251,0.251,0.506,0.352,0.769C249.066,136.265,248.893,137.386,247.957,138.083z M277.484,126.749l-0.307,0.231
			l0.11-0.155c-0.32,0.049-0.744,0.173-1.268,0.374c-0.263,0.101-0.658,0.272-1.187,0.512c-0.528,0.241-0.924,0.411-1.186,0.512
			c-0.657,0.252-1.206,0.388-1.65,0.408l-0.133,0.39l-0.271-0.122c-0.212,0.233-0.451,0.399-0.712,0.499
			c-0.066,0.025-0.347,0.077-0.844,0.154c-0.353,0.061-0.642,0.19-0.866,0.389c-0.829,0.394-2.213,0.906-4.152,1.537
			c-1.777,0.569-3.132,1.108-4.065,1.617l0.697-0.098l15.083-5.564l-14.27,5.478l-0.813,0.086l-1.357,0.499
			c-0.193,0.122-0.377,0.223-0.544,0.287c-0.181,0.069-0.344,0.09-0.501,0.097l-1.061,0.39c-1.348-0.272-2.193-0.757-2.535-1.454
			l-13.042-35.302c-0.02-0.932,0.43-1.82,1.349-2.662c1.589-0.76,2.982-0.617,4.173,0.431l11.748,30.604
			c0.216,0.368,0.58,0.53,1.089,0.485l1.256-0.256l12.74-4.608c1.271,0.076,2.166,0.447,2.686,1.113
			c0.132,0.251,0.251,0.506,0.352,0.769C278.593,124.931,278.419,126.052,277.484,126.749z"/>
		<path fill="#ED1C24" d="M244.906,94.826c-0.295,0.113-0.534,0.224-0.719,0.332c-0.098,0.038-0.164,0.063-0.197,0.076
			c-0.008,0.079-0.118,0.205-0.333,0.382c-0.214,0.177-0.252,0.35-0.11,0.522c0.239-0.355,0.507-0.59,0.802-0.704
			c0.098-0.038,0.253-0.076,0.461-0.12c0.21-0.042,0.364-0.083,0.462-0.121c0.197-0.076,0.391-0.206,0.584-0.392
			C245.617,94.667,245.3,94.675,244.906,94.826z"/>
		<path fill="#ED1C24" d="M263.45,125.927l-1.745,0.896c1.702-0.466,4.063-1.278,7.08-2.437c3.215-1.234,5.569-2.062,7.063-2.485
			c-1.648,0.219-3.728,0.83-6.24,1.832C266.615,124.957,264.562,125.689,263.45,125.927z"/>
		<path fill="#ED1C24" d="M233.924,137.261l-1.745,0.896c1.702-0.466,4.063-1.278,7.08-2.437c3.215-1.234,5.569-2.062,7.063-2.485
			c-1.648,0.219-3.728,0.83-6.24,1.832C237.088,136.292,235.036,137.023,233.924,137.261z"/>
		<path fill="#ED1C24" d="M40.342,173.802c-0.197,0.076,0.095-0.093,0.878-0.505c0.348-0.171,0.696-0.248,1.04-0.231
			c1.742-0.856,3.006-1.435,3.793-1.737c-2.985,1.146-5.068,1.945-6.249,2.399c-0.362,0.139-1.296,0.498-2.804,1.076
			c-1.707,0.655-3.199,1.228-4.478,1.719c0.838-0.172,2.14-0.652,3.906-1.443C38.109,174.358,39.413,173.934,40.342,173.802z"/>
		<path fill="#ED1C24" d="M26.8,179.113l0.269-0.109C26.955,179.046,26.859,179.083,26.8,179.113z"/>
	</g>
	<g>
		<path fill="#ED1C24" d="M85.25,274.025c-1.074,1.63-2.906,2.722-5.497,3.277c-2.377,0.511-4.546,0.454-6.508-0.171
			c-0.533-0.091-1.184-0.371-1.95-0.84c-0.888-0.51-1.534-0.825-1.938-0.943c-1.536-1.16-2.793-2.6-3.773-4.322
			c-2.524-4.445-1.903-9.525,1.863-15.24c0.545-0.828,1.389-2.024,2.532-3.589c1.142-1.565,1.986-2.762,2.532-3.589
			c0.46-0.698,0.86-1.362,1.201-1.991c1.452-1.528,3.239-2.678,5.361-3.45c2.122-0.772,4.167-0.935,6.137-0.491
			c1.77,0.24,3.523,0.93,5.256,2.072c3.672,2.419,5.53,6.074,5.574,10.961c0.013,0.825-0.219,1.6-0.696,2.323
			c-0.682,1.035-1.698,1.366-3.048,0.995c0.015-0.36-0.132-0.588-0.442-0.68c-0.155,0.009-0.249,0.04-0.283,0.092
			c-0.051,0.078-0.025,0.206,0.079,0.386c-0.897-0.554-1.419-1.788-1.566-3.702c-0.132-2.052-0.53-3.39-1.194-4.014
			c-0.233-0.153-0.503-0.433-0.81-0.84c-0.308-0.406-0.564-0.678-0.771-0.814c-0.181-0.12-0.38-0.213-0.594-0.28
			c0.06-0.035,0.077-0.117,0.05-0.245c-1.281-0.139-2.282-0.336-3.005-0.589c-3.016-0.096-5.708,1.655-8.076,5.249
			c-0.528,0.802-1.261,2.054-2.196,3.755c-0.936,1.702-1.668,2.954-2.196,3.755c-0.477,0.725-0.925,1.32-1.343,1.786
			c-0.396,1.446-0.356,2.947,0.121,4.503c0.476,1.557,1.322,2.735,2.538,3.536c1.009,0.665,2.161,1.054,3.459,1.167
			c1.032,0.346,2.491-0.009,4.375-1.067c1.721-0.98,2.995-1.198,3.823-0.652c0.362,0.239,0.72,0.623,1.076,1.154
			C85.791,272.416,85.761,273.249,85.25,274.025z M84.087,270.978c0.258,0.17,0.569,0.319,0.93,0.446
			c-0.269-0.436-0.558-0.757-0.868-0.962c-0.337-0.222-0.685-0.312-1.045-0.271c0.018,0.142,0.061,0.217,0.13,0.225
			c-0.006-0.048,0.046-0.069,0.154-0.065C83.569,270.581,83.802,270.79,84.087,270.978z M86.993,243.684l0.528-0.042
			c0.068,0.008,0.116,0.021,0.142,0.038c0.026,0.129,0.091,0.227,0.195,0.296c0.052,0.034,0.138,0.072,0.258,0.115
			c0.12,0.042,0.206,0.08,0.258,0.115c0.103,0.068,0.168,0.167,0.195,0.295c0.697,0.237,1.352,0.594,1.964,1.072l1.721,1.357
			c-1.235-1.222-2.168-2.058-2.797-2.51c-0.87-0.425-1.469-0.671-1.795-0.738l-0.013-0.064l-0.129,0.026
			C87.289,243.601,87.112,243.615,86.993,243.684z"/>
		<path fill="#ED1C24" d="M95.228,288.842c-0.324-0.621-0.374-1.287-0.15-1.996c0.14-0.443,0.376-0.936,0.71-1.481
			c0.533-0.871,0.819-1.317,0.858-1.337l14.33-19.595l0.415,0.374l0.171,8.383l-3.073,4.341c-0.061,0.501,0.176,0.932,0.712,1.296
			l0.487,0.154c-0.306,1.072-0.58,1.993-0.822,2.761c-0.41,1.3-0.724,2.143-0.943,2.528c-0.078,0.041-0.249,0.018-0.515-0.065
			c0.225,0.006,0.406-0.001,0.543-0.023c-0.308-0.259-0.654-0.45-1.038-0.571c-0.384-0.121-1.125-0.192-2.222-0.213
			c-0.802,0.689-1.773,1.812-2.913,3.368c-1.216,1.695-2.167,2.857-2.852,3.485l-0.69,0.026c0.048-0.05,0.092-0.084,0.13-0.105
			c-0.188-0.124-0.991-0.41-2.409-0.857c-0.014,0.353,0.407,0.664,1.264,0.934C96.838,290.227,96.174,289.758,95.228,288.842z
			 M97.619,290.376l0.616-0.098C98.03,290.408,97.825,290.441,97.619,290.376z M107.407,284.206
			c-0.098,0.002-0.177-0.007-0.236-0.025C107.239,284.17,107.318,284.178,107.407,284.206z M119.978,261.33l-0.241,32.902
			c-0.317,1.005-0.883,1.719-1.699,2.144c-0.647-0.009-1.146-0.02-1.499-0.034l0.161-0.047c-0.062-0.215-0.256-0.373-0.581-0.476
			c-0.207-0.065-0.389-0.106-0.546-0.123c-0.148-0.047-0.192-0.061-0.133-0.042l-0.098,0.31c-0.898-0.965-1.303-2.408-1.217-4.329
			c0.113-2.627,0.117-4.185,0.012-4.673c-0.333-0.592-0.884-1.058-1.654-1.398l-1.849-0.778l1.527-4.536
			c0.079,0.058,0.163,0.1,0.252,0.128c0.177,0.056,0.338,0.01,0.482-0.139l-0.725-0.326c1.022,0.128,1.671,0.025,1.948-0.309
			c0.226-2.263,0.294-5.619,0.204-10.071c-0.091-4.452-0.031-7.78,0.176-9.983c0.233-0.639,0.642-1.11,1.225-1.413
			c0.053,0.244,0.213,0.408,0.478,0.492c0.118,0.037,0.297,0.062,0.537,0.072c0.24,0.011,0.419,0.035,0.538,0.072
			c0.206,0.065,0.355,0.161,0.445,0.287c0.049,0.048,0.186,0.051,0.411,0.008c0.224-0.043,0.366-0.055,0.426-0.036
			c0.118,0.037,0.178,0.153,0.182,0.35l0.408-0.213c-0.002-0.098-0.033-0.205-0.093-0.321c0.23,0.3,0.42,0.571,0.572,0.813
			L119.978,261.33z M117.509,257.726c0.513,0.227,0.964,0.548,1.353,0.962c-0.574-0.343-1.023-0.566-1.348-0.669l-0.737-0.135
			c-0.305-0.063-0.545-0.025-0.718,0.115C116.115,257.822,116.598,257.731,117.509,257.726z M118.862,258.688
			c0.079,0.058,0.143,0.111,0.194,0.159C118.976,258.79,118.912,258.737,118.862,258.688z"/>
		<path fill="#ED1C24" d="M136.176,299.579c-0.802-0.144-1.269-0.638-1.401-1.478l0.965-27.627c0.102-0.338,0.161-0.801,0.176-1.389
			c0.006-0.247,0-0.604-0.018-1.069c-0.019-0.465-0.025-0.821-0.018-1.069c0.058-2.167,0.819-3.433,2.285-3.797l1.959-0.274
			l18.663,0.728c0.838-0.071,1.643,0.508,2.417,1.737c0.084,0.344,0.122,0.67,0.114,0.979c-0.026,0.991-0.434,1.739-1.222,2.245
			c-0.788,0.506-1.693,0.745-2.714,0.718c-0.279-0.007-0.557-0.03-0.835-0.068c0.309,0.008,0.774-0.01,1.396-0.056
			c0.62-0.045,1.104-0.172,1.451-0.38c-0.153-0.097-0.321-0.148-0.507-0.153c-0.155-0.004-0.412,0.044-0.77,0.142
			c-0.359,0.099-0.631,0.146-0.817,0.141c-0.155-0.004-0.293-0.054-0.414-0.15l-6.641-0.176c-2.693-0.102-5.154-0.167-7.384-0.196
			c-0.064,0.061-0.308,0.202-0.732,0.424c-0.424,0.223-0.655,0.458-0.692,0.705c-0.34,3.446-0.37,6.339-0.091,8.68l0.821,0.582
			l13.923,0.696c1.256,0.53,1.886,1.321,1.889,2.374c0.021,1.519-0.655,2.477-2.028,2.874c-0.346,0.177-0.72,0.26-1.122,0.249
			c-0.279-0.007-0.703-0.089-1.272-0.243c-0.57-0.155-0.993-0.236-1.272-0.243c-0.341-0.009-0.637,0.076-0.89,0.255
			c-0.212-0.191-0.582-0.263-1.109-0.215c-0.716,0.105-1.196,0.124-1.442,0.055l-0.005,0.186l-0.224-0.331
			c-0.406,0.113-0.965,0.16-1.677,0.141c-0.341-0.009-0.851-0.046-1.531-0.111c-0.68-0.064-1.19-0.101-1.531-0.11
			c-0.929-0.025-1.69,0.048-2.283,0.218l-0.67,0.726l-0.135,6.828c-0.078,2.942-0.369,5.149-0.873,6.622
			c-0.234,0.645-0.865,1.062-1.892,1.251C137.902,299.904,137.286,299.764,136.176,299.579z M140.98,263.875
			c-1.636-0.229-2.61-0.332-2.92-0.31l5.25,0.047l0.238-0.226l0.046,0.001c0.74,0.144,1.962,0.191,3.668,0.144
			c1.611-0.019,2.817,0.075,3.617,0.282c-0.186-0.004,0.109-0.043,0.886-0.116c0.341-0.022,0.65,0.033,0.925,0.164
			c1.706-0.109,2.932-0.154,3.675-0.135c-2.818-0.074-4.783-0.126-5.898-0.156c-0.341-0.009-1.224-0.033-2.647-0.07
			c-1.61-0.043-3.019-0.08-4.226-0.112l-0.046-0.001C143.008,263.898,142.152,264.061,140.98,263.875z M145.732,279.198
			c-1.053-0.028-1.92-0.051-2.601-0.069l5.424,0.515l0.006-0.232C147.728,279.297,146.785,279.226,145.732,279.198z
			 M148.746,279.464c4.082,0.294,6.539,0.498,7.373,0.613l0.043,0.141l0.002-0.093l-0.045-0.048l-0.04-0.233l-7.096-0.56
			L148.746,279.464z M150.651,268.965l1.811,0.048l2.09,0.056L150.651,268.965z M155.485,284.709l-0.273-0.193l-1.213,0.154
			L155.485,284.709z M156.686,263.966c1.207,0.032,2.151,0.088,2.83,0.168c-1.17-0.279-2.111-0.412-2.824-0.4L156.686,263.966z"/>
		<path fill="#ED1C24" d="M177.126,297.971c-0.715-0.233-1.14-0.62-1.278-1.161l-7.483-30.359c-0.381-1.5-0.063-2.7,0.954-3.598
			c0.922-0.522,1.563-0.829,1.923-0.921l17.91-4.22c0.578,0.013,1.123,0.242,1.637,0.686c0.512,0.445,0.842,0.953,0.987,1.523
			c0.191,0.75,0.07,1.533-0.362,2.345c-0.493,0.701-1.19,1.166-2.09,1.395c-0.241,0.061-0.443,0.081-0.609,0.059
			c1.05-0.267,1.654-0.596,1.81-0.988c-1.868,0.699-3.837,1.311-5.908,1.839l-6.168,1.569c-1.201,0.306-2.274,0.611-3.219,0.914
			l-0.606,1.009c0.256,0.885,0.598,2.287,1.022,4.205c0.439,1.978,0.839,3.365,1.202,4.159l0.822,0.218
			c0.901-0.229,2.566-0.653,4.998-1.271c2.146-0.61,3.751-1.018,4.817-1.226c1.733-0.346,3.268-0.53,4.605-0.553
			c0.489,0.161,0.887,0.472,1.196,0.932c0.166,0.275,0.362,0.733,0.589,1.371c0.077,1.185-0.382,2.079-1.379,2.68l0.186-0.211
			l-0.12-0.093l-0.235,0.395l-4.919,1.395c-0.091-0.232-0.197-0.333-0.316-0.303c-0.061,0.015-0.135,0.099-0.224,0.249
			c-0.623,0.19-1.482,0.393-2.578,0.608c-1.284,0.231-2.166,0.407-2.646,0.529c-1.171,0.298-2.225,0.742-3.161,1.332l-0.266,1.026
			l2.028,7.969l0.959,0.379l16.604-3.888c1.105,0.074,1.894,0.663,2.367,1.768c0.375,1.227,0.183,2.227-0.579,3
			c-0.12,0.031-0.315,0.145-0.584,0.342c-0.27,0.197-0.502,0.288-0.697,0.274c0.173-0.075,0.3-0.14,0.382-0.193l-0.226-0.134
			c-3.166,0.87-6.446,1.735-9.837,2.598c-3.362,0.855-6.596,1.647-9.703,2.372C178.441,298.212,177.84,298.205,177.126,297.971z
			 M169.895,263.043c0.915-0.425,2.329-0.832,4.243-1.223c0.698-0.145,1.332-0.291,1.903-0.436c0.93-0.237,1.654-0.469,2.171-0.696
			l0.035,0.135l5.414-1.329c2.288-0.55,4.15-0.896,5.585-1.037l0.258-0.306l-0.62-0.178l-18.145,4.424L169.895,263.043z
			 M179.449,276.48l2.206-0.561l-2.139,0.448L179.449,276.48z M182.121,292.071c1.094-0.223,3.79-0.867,8.089-1.934
			c3.28-0.797,5.964-1.367,8.05-1.712c-1.578,0.082-3.391,0.367-5.439,0.856c-3.467,0.818-7.017,1.689-10.649,2.613L182.121,292.071
			z M182.241,275.77c4-0.858,6.525-1.42,7.576-1.688c0.045-0.075,0.112-0.124,0.202-0.147c0.12-0.03,0.304-0.029,0.552,0.003
			c0.248,0.033,0.402,0.042,0.462,0.026c0.12-0.03,0.165-0.106,0.134-0.226C189.869,273.909,186.892,274.586,182.241,275.77z"/>
		<path fill="#ED1C24" d="M236.527,228.66l2.391,2.228l19.43,22.816c0.371,1.651,0.171,2.815-0.602,3.492
			c-0.492,0.431-1.048,0.692-1.67,0.784l-4.288-0.999l-20.693-6.268c-0.324-0.086-0.556-0.068-0.697,0.055
			c-0.117,0.103-0.174,0.297-0.172,0.583l0.489,1.054l12.797,14.607c0.344,0.77,0.281,1.566-0.191,2.391l0.053-0.293
			c-0.204,0.096-0.762,0.565-1.673,1.404c-0.585,0.555-1.249,0.642-1.992,0.263l-3.573-3.726l-18.482-21.731
			c-0.321-0.79-0.15-1.722,0.514-2.797c0.12-0.146,0.249-0.28,0.389-0.403c0.885-0.775,2.081-0.937,3.587-0.487l23.05,6.922
			c0.134-0.034,0.247-0.093,0.341-0.175c0.14-0.122,0.229-0.303,0.266-0.542l-0.643-1.228l-12.521-14.293
			c-0.159-1.136,0.019-2.055,0.537-2.756C234.227,228.472,235.345,228.172,236.527,228.66z M219.691,241.865
			c0.047-0.041,0.114-0.058,0.201-0.053c-0.143-0.163-0.564,0.062-1.263,0.674c-0.443,0.388-0.654,0.758-0.633,1.11
			c0.66-0.702,1.188-1.205,1.581-1.508C219.583,242.001,219.621,241.926,219.691,241.865z M233.747,229.427
			c-0.396,0.347-0.652,0.736-0.768,1.167l0.293,0.053c0.151-0.297,0.448-0.64,0.891-1.028c0.326-0.286,0.719-0.589,1.179-0.91
			C234.721,228.8,234.19,229.04,233.747,229.427z M257.932,257.034c0.163-0.143,0.223-0.38,0.179-0.713l-1.014,0.888
			C257.467,257.255,257.746,257.197,257.932,257.034z"/>
		<path fill="#ED1C24" d="M271.315,241.37c-0.2,0.203-0.455,0.317-0.764,0.343l-1.408-0.117l-27.743-17.933
			c-0.874-0.878-0.916-1.947-0.124-3.206c0.643-1.023,1.649-1.488,3.018-1.396c1.48,0.089,3.196,0.125,5.146,0.107
			c2.104-0.03,3.741,0.102,4.909,0.397c0.21,0.132,0.344,0.181,0.403,0.144c0.109-0.114,0.032-0.254-0.23-0.419
			c2.908,0.146,4.827,0.09,5.757-0.168l-0.36-1.872l-6.555-13.229c-0.398-1.054-0.35-1.975,0.145-2.762
			c0.775-1.232,1.933-1.62,3.475-1.163c2.498,1.497,5.177,3.144,8.034,4.94c5.717,3.593,12.135,7.757,19.257,12.489
			c0.618,0.937,0.907,1.613,0.866,2.027l-0.192,0.044l0.156,0.537l-0.137-0.306c-0.593,0.652-1.004,1.162-1.235,1.528
			c-0.037,0.234,0.066,0.39,0.309,0.469l-0.079-0.05l0.938-1.056l0.079,0.049c-0.824,1.312-1.771,1.887-2.841,1.727l-1.482-0.437
			l-15.481-10.115c-0.311-0.086-0.676-0.059-1.093,0.081c-0.165,0.554-0.054,1.192,0.335,1.911c0.64,1.135,0.971,1.744,0.99,1.83
			c1.098,2.154,1.674,3.302,1.729,3.447c0.685,1.528,1.027,2.731,1.025,3.607c-0.266,0.016-0.457,0.116-0.572,0.299
			c-0.066,0.105-0.146,0.292-0.243,0.56c-0.096,0.269-0.211,0.453-0.346,0.551c0.151,0.168,0.193,0.305,0.127,0.409
			c-0.066,0.105-0.289,0.212-0.668,0.321c-0.379,0.11-0.616,0.208-0.707,0.296l-9.923,0.073c-0.06,0.037-0.106,0.08-0.138,0.132
			c-0.182,0.289-0.103,0.631,0.236,1.027l16.337,10.653c0.721,0.783,0.929,1.737,0.625,2.863l-0.899,1.136
			c0.61-0.97,0.884-1.602,0.822-1.898c-0.273-0.025-0.483,0.081-0.631,0.317c-0.066,0.105-0.163,0.318-0.292,0.639
			c-0.095,0.269-0.211,0.453-0.346,0.551C271.634,240.949,271.558,241.158,271.315,241.37z M241.373,220.738
			c-0.182,0.289-0.195,0.572-0.042,0.852l0.752-1.284c0.024-0.095,0.145-0.201,0.365-0.319c0.135-0.098,0.145-0.201,0.031-0.31
			C241.834,220.296,241.465,220.65,241.373,220.738z M253.906,201.235c-0.346,0.551-0.531,1.02-0.555,1.407
			c0.646-0.911,1.147-1.62,1.503-2.128C254.552,200.47,254.236,200.71,253.906,201.235z"/>
		<path fill="#ED1C24" d="M290.182,176.747c1.879,0.524,3.48,1.934,4.801,4.232c1.214,2.107,1.822,4.19,1.828,6.248
			c0.076,0.536,0.008,1.24-0.203,2.113c-0.214,1.001-0.316,1.713-0.305,2.134c-0.635,1.817-1.621,3.454-2.961,4.914
			c-3.46,3.762-8.486,4.725-15.08,2.887c-0.954-0.266-2.351-0.703-4.191-1.313c-1.84-0.609-3.237-1.047-4.192-1.313
			c-0.805-0.224-1.559-0.402-2.263-0.534c-1.899-0.915-3.54-2.265-4.924-4.049c-1.384-1.784-2.165-3.682-2.344-5.693
			c-0.313-1.759-0.192-3.638,0.365-5.637c1.18-4.236,4.091-7.123,8.731-8.66c0.781-0.264,1.59-0.28,2.424-0.048
			c1.194,0.333,1.82,1.199,1.881,2.598c-0.348,0.096-0.519,0.306-0.513,0.629c0.056,0.144,0.114,0.225,0.174,0.241
			c0.09,0.025,0.204-0.04,0.343-0.193c-0.252,1.023-1.268,1.897-3.046,2.623c-1.913,0.753-3.066,1.542-3.456,2.365
			c-0.075,0.268-0.259,0.612-0.552,1.028c-0.293,0.418-0.473,0.745-0.539,0.983c-0.058,0.209-0.086,0.427-0.085,0.652
			c-0.052-0.046-0.134-0.037-0.249,0.027c0.259,1.262,0.378,2.276,0.358,3.041c0.831,2.901,3.322,4.929,7.468,6.084
			c0.925,0.258,2.341,0.572,4.247,0.942c1.907,0.37,3.323,0.684,4.247,0.942c0.836,0.233,1.539,0.477,2.11,0.733
			c1.497-0.065,2.914-0.562,4.25-1.492c1.337-0.929,2.2-2.095,2.59-3.498c0.324-1.164,0.342-2.38,0.053-3.651
			c0.014-1.089-0.771-2.368-2.354-3.839c-1.46-1.339-2.056-2.486-1.79-3.441c0.117-0.417,0.373-0.876,0.77-1.377
			C288.484,176.725,289.286,176.498,290.182,176.747z M260.761,184.367l-0.201-0.49c-0.013-0.067-0.016-0.117-0.007-0.147
			c0.115-0.064,0.188-0.156,0.222-0.276c0.016-0.06,0.027-0.153,0.03-0.281c0.003-0.127,0.013-0.221,0.03-0.281
			c0.033-0.119,0.107-0.211,0.222-0.276c0.012-0.736,0.152-1.469,0.42-2.198l0.765-2.053c-0.786,1.55-1.297,2.694-1.535,3.431
			c-0.138,0.958-0.189,1.604-0.153,1.934l-0.057,0.032l0.064,0.115C260.591,184.111,260.659,184.275,260.761,184.367z
			 M287.636,178.787c0.083-0.298,0.13-0.639,0.14-1.022c-0.333,0.389-0.55,0.763-0.65,1.121c-0.108,0.388-0.088,0.747,0.061,1.078
			c0.13-0.061,0.188-0.124,0.175-0.193c-0.044,0.02-0.08-0.022-0.11-0.127C287.417,179.401,287.544,179.115,287.636,178.787z"/>
	</g>
	<g>
		<path fill="#ED1C24" d="M39.411,130.538l-32.215-6.648c-0.766-0.276-1.404-1.128-1.914-2.553c0.006-0.188,0.026-0.374,0.062-0.556
			c0.125-0.638,0.642-1.342,1.55-2.111l1.466-0.233l32.106,6.721c0.889,0.458,1.374,1.201,1.457,2.226l-0.134,0.684
			c0.101-0.516,0.046-0.874-0.168-1.074c-0.096,0.171-0.135,0.447-0.115,0.829c0.032,0.322-0.028,0.547-0.18,0.675l0.302,0.391
			C41.273,129.736,40.534,130.285,39.411,130.538z M5.634,120.507c-0.083,0.426-0.054,0.921,0.088,1.485
			c0.085-0.109,0.142-0.24,0.172-0.393c0.145-0.413,0.24-0.741,0.288-0.985l0.233-1.185C5.989,119.661,5.73,120.021,5.634,120.507z"
			/>
		<path fill="#ED1C24" d="M22.029,78.37l3.103,1.028L52.308,92.03c1.026,1.346,1.329,2.488,0.91,3.424
			c-0.267,0.596-0.664,1.067-1.191,1.41l-4.314,0.88l-21.422,2.935c-0.331,0.057-0.534,0.17-0.611,0.34
			c-0.063,0.142-0.034,0.343,0.087,0.601l0.884,0.754l17.723,7.938c0.634,0.556,0.908,1.307,0.824,2.252l-0.075-0.288
			c-0.145,0.173-0.457,0.831-0.935,1.974c-0.301,0.748-0.868,1.105-1.701,1.071l-4.801-1.896l-25.862-12.041
			c-0.621-0.584-0.854-1.503-0.7-2.757c0.048-0.182,0.11-0.358,0.185-0.528c0.481-1.074,1.501-1.72,3.058-1.94l23.835-3.323
			c0.107-0.087,0.186-0.188,0.237-0.301c0.076-0.17,0.082-0.37,0.016-0.604l-1.097-0.848l-17.341-7.767
			c-0.618-0.967-0.839-1.876-0.661-2.728C19.861,79.159,20.752,78.42,22.029,78.37z M12.236,97.395
			c0.025-0.056,0.079-0.1,0.161-0.131c-0.197-0.089-0.487,0.291-0.866,1.139c-0.241,0.537-0.278,0.962-0.112,1.273
			c0.307-0.914,0.577-1.591,0.808-2.031C12.195,97.563,12.198,97.479,12.236,97.395z M19.823,80.227
			c-0.216,0.481-0.285,0.941-0.212,1.382l0.288-0.075c0.014-0.333,0.141-0.768,0.381-1.306c0.177-0.396,0.408-0.835,0.692-1.319
			C20.447,79.252,20.064,79.691,19.823,80.227z M53.319,95.229c0.089-0.197,0.044-0.438-0.135-0.722l-0.551,1.23
			C52.989,95.625,53.217,95.456,53.319,95.229z"/>
		<path fill="#ED1C24" d="M49.867,42.418c0.788,0.373,1.344,1.1,1.667,2.178c0.148,1.089-0.474,2.318-1.868,3.69
			c0.723-0.807,1.223-1.482,1.5-2.024l-0.18-0.286c-1.963,2.193-3.41,3.973-4.343,5.34c0.09,0.039,0.096,0.242,0.017,0.608
			c-0.078,0.366-0.059,0.623,0.059,0.77l21.35,19.545c0.477,1.093,0.43,2.027-0.141,2.805c-0.055,0.2-0.154,0.382-0.299,0.543
			c-0.207,0.231-0.805,0.506-1.795,0.825c-0.802,0.155-1.789-0.292-2.963-1.343L43.075,57.038c-0.407-0.24-0.885-0.168-1.434,0.213
			l0.062-0.069l-0.231-0.207l-2.477,2.397c-0.872,0.882-1.58,1.724-2.124,2.526c0.568-0.28,1.204-0.814,1.906-1.598
			c0.76-0.899,1.333-1.488,1.718-1.767l-2.541,2.839c-1.017,1.044-2.141,1.347-3.371,0.911c-0.182-0.121-0.365-0.265-0.55-0.43
			c-0.969-0.867-1.278-1.892-0.927-3.074c1.716-2.288,6.326-7.556,13.831-15.802C48.125,42.252,49.102,42.066,49.867,42.418z
			 M41.641,49.52c1.941-2.169,4.024-4.379,6.246-6.63l-0.707,0.302L35.747,55.966c-1.611,1.8-2.376,3.027-2.297,3.681
			c0.431-0.945,0.829-1.668,1.196-2.172c0.134,0.037,0.231,0.02,0.293-0.049c0.057-0.156,0.126-0.303,0.206-0.439
			c0.098-0.202,0.215-0.285,0.348-0.25C37.65,54.095,39.699,51.689,41.641,49.52z M48.737,49.324
			c0.248-0.277,0.558-0.623,0.929-1.039c-0.849,0.903-1.376,1.491-1.58,1.765C48.251,49.867,48.468,49.624,48.737,49.324z
			 M67.611,75.257c0.268-0.3,0.419-0.56,0.45-0.782l-0.011-0.197l0.011,0.197c-0.036,0.134-0.127,0.281-0.272,0.443
			c-0.289,0.323-0.762,0.689-1.42,1.099l0.332,0.047C67.101,75.758,67.404,75.488,67.611,75.257z"/>
		<path fill="#ED1C24" d="M82.54,59.622c-0.752-0.011-1.273-0.256-1.564-0.731L64.858,32.098c-0.808-1.321-0.858-2.56-0.152-3.72
			c0.727-0.771,1.248-1.254,1.565-1.448l15.863-9.323c0.556-0.158,1.145-0.101,1.766,0.172c0.621,0.274,1.086,0.662,1.392,1.163
			c0.404,0.661,0.52,1.444,0.347,2.347c-0.264,0.815-0.792,1.465-1.585,1.95c-0.212,0.129-0.399,0.209-0.564,0.236
			c0.924-0.565,1.404-1.058,1.438-1.478c-1.578,1.22-3.278,2.387-5.101,3.502l-5.429,3.321c-1.057,0.647-1.992,1.255-2.805,1.824
			l-0.281,1.143c0.507,0.77,1.247,2.008,2.219,3.715c1.004,1.76,1.796,2.966,2.377,3.618l0.85-0.034
			c0.793-0.485,2.259-1.382,4.399-2.691c1.87-1.216,3.283-2.081,4.241-2.594c1.554-0.843,2.966-1.472,4.236-1.889
			c0.514,0.01,0.987,0.188,1.418,0.537c0.24,0.214,0.562,0.593,0.968,1.137c0.424,1.109,0.249,2.098-0.526,2.968l0.115-0.257
			l-0.142-0.054l-0.108,0.447l-4.286,2.786c-0.156-0.195-0.287-0.26-0.392-0.196c-0.053,0.032-0.1,0.134-0.141,0.304
			c-0.539,0.366-1.299,0.814-2.283,1.342c-1.158,0.6-1.949,1.029-2.371,1.287c-1.03,0.63-1.906,1.366-2.626,2.206l0.049,1.059
			l4.291,7.015l1.028,0.079l14.714-8.62c1.078-0.256,2.005,0.073,2.784,0.989c0.721,1.061,0.833,2.073,0.333,3.037
			c-0.106,0.065-0.258,0.231-0.457,0.499c-0.199,0.268-0.395,0.423-0.585,0.468c0.143-0.123,0.245-0.222,0.308-0.297l-0.256-0.062
			c-2.768,1.766-5.645,3.562-8.63,5.389c-2.959,1.81-5.816,3.522-8.569,5.133C83.868,59.464,83.292,59.635,82.54,59.622z
			 M65.313,28.39c0.748-0.676,1.979-1.483,3.692-2.422c0.624-0.345,1.187-0.672,1.689-0.979c0.819-0.501,1.442-0.937,1.869-1.307
			l0.073,0.119l4.78-2.869c2.024-1.202,3.7-2.082,5.029-2.641l0.156-0.368l-0.645,0.013l-16.028,9.587L65.313,28.39z M78.41,38.404
			l1.942-1.188l-1.911,1.06L78.41,38.404z M80.867,36.901c3.569-2.001,5.814-3.285,6.74-3.851c0.02-0.085,0.07-0.152,0.15-0.201
			c0.105-0.064,0.282-0.118,0.528-0.16c0.247-0.042,0.396-0.079,0.449-0.111c0.105-0.064,0.126-0.15,0.062-0.255
			C87.605,32.87,84.962,34.396,80.867,36.901z M85.569,52.51c0.979-0.536,3.364-1.948,7.156-4.238
			c2.898-1.73,5.294-3.068,7.184-4.014c-1.483,0.545-3.131,1.353-4.943,2.425c-3.071,1.806-6.205,3.687-9.401,5.642L85.569,52.51z"
			/>
		<path fill="#ED1C24" d="M114.106,42.654c-0.21,0.056-0.491,0.234-0.844,0.535c-0.353,0.302-0.619,0.475-0.799,0.523
			c-0.27,0.071-0.579-0.008-0.927-0.238l-1.233-1.216l-8.017-31.699c-0.245-0.931,0.206-1.772,1.353-2.525
			c1.51-0.59,2.666-0.943,3.469-1.058c-0.233,0.212-0.748,0.413-1.546,0.604c-0.799,0.192-1.291,0.48-1.478,0.865
			c0.225,0.005,0.66-0.109,1.303-0.343c0.561-0.18,1.018-0.268,1.371-0.265l0.024,0.09l0.629-0.166l8.321,33.216
			c-0.105,1.181-0.661,2.048-1.668,2.602l-1.102,0.194c1.114-0.39,1.703-0.769,1.766-1.138
			C114.522,42.592,114.315,42.599,114.106,42.654z M132.864,35.444c0.481,1.094,0.191,2.182-0.869,3.264
			c-0.322,0.117-0.549,0.225-0.683,0.324c0.321-0.481,0.499-0.78,0.532-0.897c-0.168-0.028-0.341-0.018-0.521,0.029
			c-0.12,0.031-0.389,0.167-0.806,0.404c-0.172,0.078-0.348,0.14-0.527,0.187c-0.15,0.04-0.289,0.061-0.416,0.062
			c-0.014,0.191,0.356,0.318,1.109,0.38c-0.494,0.194-1.069,0.169-1.726-0.077c-0.658-0.246-1.098-0.612-1.323-1.101l-9.011-11.588
			c-1.666-0.366-2.739-0.486-3.218-0.36c-0.21,0.055-0.397,0.137-0.56,0.244l-1.123-4.989l5.391-1.42
			c2.055-0.83,3.153-2.192,3.295-4.087c-0.024-0.698-0.103-1.302-0.237-1.811c-0.237-0.899-0.648-1.607-1.233-2.126
			c-1.429-1.289-3.297-1.63-5.602-1.022c0.052-0.045,0.089-0.087,0.111-0.125c-1.269,0.046-2.675,0.305-4.216,0.775l-1.227-5.202
			c0.853-0.288,1.668-0.536,2.447-0.741c5.959-1.57,10.41-0.544,13.351,3.08c0.856,1.059,1.465,2.279,1.829,3.66
			c0.712,2.702,0.447,5.405-0.794,8.108c-0.123,0.386-0.659,1.025-1.609,1.917c-0.742,0.71-1.03,1.379-0.864,2.01
			c0.04,0.15,0.109,0.293,0.209,0.427L132.864,35.444z M111.584,6.469c0.389-0.103,0.797-0.258,1.222-0.466l-2.653,0.507
			l0.173,0.291C110.409,6.747,110.828,6.637,111.584,6.469z M116.4,5.055l-2.833,0.555l-0.357,0.286L116.4,5.055z M115.718,21.426
			c0.599-0.158,1.1-0.386,1.501-0.684c-0.741,0.228-1.396,0.416-1.965,0.566c-0.539,0.142-0.992,0.246-1.359,0.31
			C114.481,21.656,115.089,21.592,115.718,21.426z"/>
		<path fill="#ED1C24" d="M170.088,2.646l0.196,3.263l-1.659,29.922c-0.869,1.452-1.817,2.157-2.843,2.114
			c-0.653-0.027-1.237-0.221-1.751-0.584l-2.417-3.68l-10.666-18.808c-0.176-0.286-0.356-0.433-0.543-0.441
			c-0.155-0.006-0.331,0.095-0.526,0.304l-0.372,1.101l-0.803,19.403c-0.281,0.795-0.877,1.328-1.787,1.6l0.24-0.176
			c-0.214-0.07-0.941-0.116-2.18-0.137c-0.806-0.002-1.348-0.397-1.625-1.183l-0.019-5.162l1.597-28.483
			c0.312-0.793,1.079-1.35,2.301-1.672c0.187-0.023,0.373-0.031,0.559-0.024c1.176,0.049,2.154,0.756,2.935,2.121l11.922,20.906
			c0.121,0.067,0.244,0.103,0.368,0.108c0.186,0.008,0.374-0.062,0.566-0.209l0.381-1.333l0.785-18.985
			c0.669-0.933,1.431-1.475,2.289-1.626C168.552,0.924,169.568,1.478,170.088,2.646z M148.789,0.602
			c0.062,0.002,0.122,0.036,0.182,0.1c0.009-0.216-0.451-0.344-1.379-0.382c-0.588-0.024-0.996,0.098-1.224,0.368
			c0.963-0.053,1.691-0.054,2.186-0.002C148.618,0.626,148.696,0.598,148.789,0.602z M166.029,37.955
			c0.216,0.009,0.424-0.122,0.62-0.393l-1.346-0.056C165.539,37.796,165.781,37.945,166.029,37.955z M167.546,1.285
			c-0.527-0.022-0.98,0.084-1.361,0.316l0.176,0.24c0.314-0.11,0.766-0.154,1.354-0.13c0.433,0.018,0.927,0.07,1.481,0.154
			C168.683,1.503,168.134,1.309,167.546,1.285z"/>
		<path fill="#ED1C24" d="M178.672,39.181c-0.461-0.594-0.596-1.153-0.407-1.678l10.83-29.331c0.525-1.456,1.461-2.271,2.808-2.444
			c1.056,0.085,1.759,0.19,2.108,0.316l17.195,6.55c0.472,0.336,0.795,0.83,0.971,1.486c0.175,0.656,0.162,1.261-0.037,1.814
			c-0.263,0.729-0.801,1.308-1.615,1.739c-0.801,0.304-1.638,0.298-2.513-0.018c-0.233-0.084-0.412-0.181-0.536-0.292
			c1.019,0.368,1.703,0.434,2.052,0.197c-1.938-0.469-3.912-1.066-5.922-1.791l-5.987-2.16c-1.166-0.42-2.225-0.77-3.178-1.048
			l-1.068,0.495c-0.284,0.877-0.788,2.228-1.512,4.055c-0.746,1.884-1.192,3.256-1.337,4.117l0.558,0.642
			c0.874,0.315,2.491,0.899,4.851,1.75c2.119,0.699,3.677,1.261,4.676,1.687c1.629,0.686,3.004,1.394,4.123,2.125
			c0.314,0.407,0.47,0.888,0.467,1.442c-0.017,0.321-0.111,0.809-0.282,1.466c-0.6,1.024-1.482,1.507-2.645,1.446l0.272-0.071
			l-0.047-0.144l-0.417,0.195l-4.854-1.603c0.055-0.244,0.024-0.387-0.092-0.429c-0.059-0.021-0.168,0.006-0.325,0.08
			c-0.622-0.191-1.448-0.505-2.475-0.943c-1.192-0.529-2.022-0.877-2.487-1.046c-1.136-0.41-2.258-0.633-3.363-0.67l-0.796,0.701
			l-2.791,7.735l0.581,0.852l15.928,6.093c0.873,0.681,1.197,1.611,0.969,2.791c-0.377,1.226-1.098,1.946-2.162,2.159
			c-0.117-0.042-0.342-0.057-0.676-0.045c-0.334,0.012-0.577-0.043-0.731-0.164c0.185,0.034,0.327,0.052,0.425,0.055l-0.112-0.238
			c-3.109-1.055-6.31-2.178-9.602-3.366c-3.263-1.177-6.385-2.336-9.364-3.477C179.625,40.118,179.131,39.776,178.672,39.181z
			 M186.116,37.098c1.031,0.429,3.624,1.407,7.782,2.935c3.162,1.18,5.704,2.213,7.624,3.097c-1.352-0.817-3.013-1.597-4.983-2.341
			c-3.329-1.267-6.757-2.537-10.282-3.809L186.116,37.098z M192.273,6.207c0.995,0.161,2.395,0.617,4.199,1.367
			c0.659,0.271,1.266,0.506,1.82,0.706c0.903,0.326,1.633,0.54,2.189,0.642l-0.048,0.131l5.228,1.936
			c2.203,0.828,3.939,1.586,5.205,2.273l0.385-0.108l-0.414-0.495l-17.504-6.513L192.273,6.207z M192.647,22.691l2.142,0.772
			l-2.023-0.828L192.647,22.691z M195.357,23.668c3.793,1.534,6.199,2.484,7.219,2.852c0.079-0.037,0.162-0.04,0.25-0.008
			c0.116,0.042,0.268,0.146,0.455,0.312c0.186,0.166,0.309,0.26,0.368,0.281c0.116,0.042,0.196,0.005,0.238-0.112
			C202.716,26.406,199.872,25.297,195.357,23.668z"/>
		<path fill="#ED1C24" d="M250.303,39.097c-0.307,0.816-0.985,1.43-2.033,1.841c-1.073,0.237-2.35-0.282-3.831-1.558
			c0.864,0.654,1.578,1.097,2.141,1.328l0.27-0.203c-2.347-1.775-4.241-3.071-5.68-3.888c-0.032,0.092-0.233,0.115-0.604,0.067
			c-0.371-0.048-0.626-0.007-0.762,0.123l-17.719,22.888c-1.049,0.566-1.985,0.596-2.806,0.091
			c-0.204-0.038-0.393-0.123-0.566-0.253c-0.247-0.187-0.571-0.76-0.97-1.721c-0.221-0.786,0.144-1.807,1.094-3.063l16.337-21.214
			c0.205-0.426,0.095-0.896-0.331-1.411l0.074,0.056l0.187-0.247l-2.592-2.271c-0.951-0.797-1.849-1.433-2.692-1.909
			c0.326,0.543,0.91,1.133,1.75,1.768c0.959,0.683,1.593,1.206,1.903,1.566l-3.038-2.298c-1.124-0.927-1.519-2.023-1.185-3.285
			c0.105-0.191,0.233-0.386,0.383-0.584c0.785-1.038,1.781-1.43,2.988-1.177c2.421,1.521,8.051,5.682,16.888,12.482
			C250.324,37.347,250.59,38.306,250.303,39.097z M219.037,59.487c0.321,0.243,0.593,0.371,0.816,0.384l0.195-0.027l-0.195,0.027
			c-0.136-0.025-0.291-0.104-0.463-0.234c-0.346-0.262-0.75-0.703-1.212-1.324l-0.02,0.334
			C218.497,59.019,218.79,59.3,219.037,59.487z M242.547,31.484c2.322,1.756,4.696,3.649,7.122,5.678l-0.36-0.68l-13.673-10.341
			c-1.926-1.457-3.213-2.119-3.857-1.985c0.977,0.351,1.731,0.688,2.263,1.013c-0.026,0.136-0.001,0.232,0.073,0.288
			c0.16,0.044,0.311,0.1,0.454,0.169c0.21,0.081,0.302,0.19,0.277,0.326C237.659,27.884,240.225,29.727,242.547,31.484z
			 M243.327,38.539c0.297,0.224,0.667,0.504,1.112,0.841c-0.97-0.772-1.6-1.248-1.89-1.429
			C242.746,38.1,243.005,38.296,243.327,38.539z"/>
	</g>
</g>
</svg>
