<?xml version="1.0" encoding="utf-8"?>
<!-- Generator: Adobe Illustrator 17.0.0, SVG Export Plug-In . SVG Version: 6.00 Build 0)  -->
<!DOCTYPE svg PUBLIC "-//W3C//DTD SVG 1.1//EN" "http://www.w3.org/Graphics/SVG/1.1/DTD/svg11.dtd">
<svg version="1.1" id="Layer_1" xmlns="http://www.w3.org/2000/svg" xmlns:xlink="http://www.w3.org/1999/xlink" x="0px" y="0px"
	 width="755px" height="200px" viewBox="0 0 755 200" enable-background="new 0 0 755 200" xml:space="preserve">
<g>
	<polygon fill="#EC1C24" points="294.215,92.699 293.948,92.966 300.471,92.968 	"/>
	<path fill="#EC1C24" d="M301.68,48.215l0,0.397l15.977,0.138c6.74,0.093,12.155,0.449,16.24,1.071l0.93-0.666l-1.595-0.93
		l-53.514-0.548l-2.795,1.196c2.837-0.529,7.056-0.661,12.646-0.396c2.041,0.092,3.903,0.134,5.59,0.135
		C297.906,48.611,300.084,48.478,301.68,48.215z"/>
	<path fill="#EC1C24" d="M326.627,93.775c0.666,0.267,1.085,0.4,1.264,0.4c0.354,0,0.533-0.179,0.533-0.533
		c-0.836-0.1-1.964-0.187-3.305-0.264C325.472,93.383,325.975,93.513,326.627,93.775z"/>
	<path fill="#EC1C24" d="M325.092,93.376c-4.639-0.267-12.246-0.405-22.892-0.408c11.716,0.449,19.123,0.672,22.23,0.673
		C324.607,93.466,324.828,93.378,325.092,93.376z"/>
	<path fill="#EC1C24" d="M412.969,48.113c-1.42-0.088-2.84,0.006-4.261,0.282c0.088,0.445,0.178,0.793,0.266,1.047
		c1.066-0.266,2.265-0.4,3.595-0.399c0.975,0,2.041,0.134,3.195,0.401C415.764,48.631,414.834,48.189,412.969,48.113z"/>
	<path fill="#EC1C24" d="M290.608,137.721l-0.267,0.455c3.195,0.154,11.134,0.27,23.829,0.348c9.672,0.107,17.524,0.421,23.559,0.94
		c-4.436-0.886-9.672-1.378-15.707-1.468C311.817,137.815,301.342,137.724,290.608,137.721z"/>
	<path fill="#EC1C24" d="M364.115,48.099c-0.179,0.15-0.624,0.241-1.333,0.276c-0.712,0.039-1.063,0.169-1.063,0.387
		c0,0.075,0.084,0.224,0.263,0.445c2.665-0.074,4.748,0.001,6.259,0.223l0-1.33L364.115,48.099z"/>
	<path fill="#EC1C24" d="M112.352,94.114l-20.367-1.072l-0.666,0.533c11.716,0.537,18.772,0.939,21.167,1.206L112.352,94.114z"/>
	<path fill="#EC1C24" d="M206.118,92.274c1.599,0.534,3.328,0.801,5.193,0.801c1.775,0.001,3.328-0.266,4.658-0.799
		c-2.217,0.09-4.17,0.132-5.857,0.132C208.516,92.408,207.184,92.366,206.118,92.274z"/>
	<polygon fill="#EC1C24" points="112.618,94.915 112.485,94.781 112.618,95.178 	"/>
	<path fill="#EC1C24" d="M456.499,48.126c-2.22-0.001-3.24,0.529-3.062,1.596l7.589,0.002l0-0.533
		C459.872,48.481,458.364,48.126,456.499,48.126z"/>
	<polygon fill="#EC1C24" points="106.758,108.099 111.016,108.101 110.22,107.567 	"/>
	<polygon fill="#EC1C24" points="215.717,48.191 225.169,48.194 216.914,47.658 	"/>
	<path fill="#EC1C24" d="M207.063,48.585c0.266-0.085,1.508-0.084,3.728,0.001c1.154,0,2.395-0.133,3.728-0.396l-7.722-0.536
		L207.063,48.585z"/>
	<path fill="#EC1C24" d="M154.469,47.374c-1.245,0-2.619,0.354-4.128,1.062c0.354,0.182,0.754,0.267,1.199,0.267
		c1.242,0.179,2.216,0.267,2.928,0.268l3.461,0.001C157.042,47.908,155.886,47.374,154.469,47.374z"/>
	<path fill="#EC1C24" d="M121.016,48.828c-3.373-0.71-6.077-1.02-8.118-0.932l0,0.663C116.359,48.56,119.063,48.651,121.016,48.828z
		"/>
	<path fill="#EC1C24" d="M82.667,93.04c-3.019-0.001-5.502-0.002-7.455-0.002l15.577,1.071l0-0.667
		C88.39,93.174,85.683,93.04,82.667,93.04z"/>
	<path fill="#EC1C24" d="M647.292,151.938c0.307,0.41,0.746,0.667,1.258,0.841l2.812,0.041c0.433-0.087,0.885-0.192,1.386-0.347
		L647.292,151.938z"/>
	<path fill="#EC1C24" d="M74.558,48.548l0.666-0.663c-0.265,0.265-0.596,0.462-0.919,0.667L74.558,48.548z"/>
	<path fill="#EC1C24" d="M567.408,151.915c0.307,0.41,0.746,0.668,1.259,0.841l2.812,0.041c0.434-0.087,0.885-0.192,1.386-0.347
		L567.408,151.915z"/>
	<path fill="#EC1C24" d="M570.232,47.624c-0.799,0-1.463,0.045-1.996,0.133c-0.266,0-0.444,0-0.533,0
		c-0.091,0.179-0.465,0.377-1.131,0.598c-0.666,0.224-0.91,0.598-0.732,1.131c0.884-0.621,1.729-0.933,2.529-0.932
		c0.266,0,0.666,0.049,1.196,0.134c0.533,0.091,0.933,0.134,1.199,0.134c0.533,0,1.108-0.133,1.732-0.396
		C572.052,47.891,571.298,47.625,570.232,47.624z"/>
	<path fill="#EC1C24" d="M754.954,181.806L755,18.407c0.003-10.01-8.18-18.201-18.183-18.204L18.24,0
		C8.236-0.003,0.049,8.184,0.046,18.194L0,181.593c-0.003,10.01,8.18,18.201,18.183,18.204L736.76,200
		C746.764,200.003,754.951,191.816,754.954,181.806z M504.82,46.806c1.599,0.179,3.107,0.668,4.527,1.468
		c-1.865-0.446-3.286-0.668-4.261-0.668l-2.129,0.266c-0.891,0.088-1.511,0.4-1.866,0.93
		C501.092,48.271,502.334,47.605,504.82,46.806z M112.348,108.101c-0.978,0.53-2.041,0.796-3.195,0.796
		c-0.799,0-2.018-0.199-3.659-0.599c-1.644-0.4-2.863-0.599-3.662-0.599c-0.978,0-1.82,0.266-2.529,0.796
		c-0.621-0.53-1.687-0.709-3.195-0.531c-2.044,0.354-3.419,0.445-4.128,0.265l0,0.53l-0.666-0.93
		c-1.154,0.354-2.75,0.529-4.791,0.529c-0.978,0-2.444-0.066-4.394-0.2c-1.953-0.134-3.416-0.199-4.394-0.2
		c-2.662-0.001-4.836,0.265-6.523,0.795l-1.863,2.133l0.128,19.58c-0.002,8.435-0.67,14.783-2.001,19.046
		c-0.625,1.866-2.399,3.108-5.328,3.728c-0.354-0.267-2.129-0.622-5.323-1.068c-2.311-0.352-3.685-1.731-4.126-4.128l0.689-79.255
		c0.267-0.976,0.4-2.306,0.401-3.993c0-0.712-0.045-1.733-0.133-3.067c-0.091-1.33-0.133-2.351-0.132-3.063
		c0.002-6.214,2.086-9.898,6.259-11.052l5.59-0.932l53.514,0.682c2.395-0.266,4.748,1.331,7.054,4.795
		c0.266,0.979,0.399,1.912,0.399,2.8c-0.001,2.842-1.113,5.017-3.33,6.526c-2.22,1.508-4.794,2.262-7.723,2.261
		c-0.799,0-1.596-0.046-2.395-0.134c0.887,0,2.216-0.087,3.994-0.266c1.775-0.175,3.149-0.575,4.125-1.199
		c-0.445-0.267-0.929-0.4-1.462-0.4c-0.445,0-1.177,0.156-2.197,0.468c-1.021,0.312-1.797,0.464-2.33,0.464
		c-0.445,0-0.845-0.134-1.196-0.4l-19.038-0.005c-7.719-0.09-14.774-0.092-21.164-0.006c-0.179,0.179-0.868,0.605-2.064,1.271
		c-1.2,0.67-1.843,1.362-1.931,2.074c-0.715,9.899-0.584,18.194,0.393,24.884l2.395,1.604l39.936,0.948
		c3.636,1.422,5.501,3.644,5.588,6.661C118.118,104.06,116.252,106.856,112.348,108.101z M107.17,63.343L95.987,63.34l5.19,0.001
		L107.17,63.343z M155.105,153.266l-1.999-0.001c1.508,0,2.486-0.354,2.932-1.066c-0.533-0.176-1.332-0.134-2.398,0.133
		c-0.887,0.266-1.554,0.224-1.995-0.134l-0.933,1.066c-2.574-0.534-4.527-2.31-5.855-5.328l0.959-94.305
		c0.352-2.309,2.397-4.571,6.125-6.791c0.533-0.088,1.063-0.133,1.596-0.133c1.866,0.001,4.127,1.068,6.788,3.198l1.465,3.997
		l-1.226,94.038C159.763,150.692,157.943,152.467,155.105,153.266z M190.527,153.276l-3.195-0.268
		c3.374-0.266,5.278-0.886,5.724-1.862c-0.53-0.267-1.108-0.4-1.729-0.401c-0.621,0-1.531,0.289-2.73,0.864
		c-1.196,0.579-2.064,0.864-2.597,0.864c-0.796,0-1.596-0.446-2.395-1.337l-2.527-4.274l0.959-93.739
		c0.001-2.758,1.863-4.76,5.592-6.008c4.615-0.532,8.073-0.664,10.384-0.397c-0.8,0.416-2.376,0.598-4.726,0.545
		c-2.353-0.053-3.929,0.386-4.726,1.316c0.618,0.179,1.908,0.179,3.861,0.001c1.683-0.084,3.016,0.001,3.991,0.268l0,0.267
		l1.865,0.001l-1.227,98.168C195.896,150.481,193.722,152.477,190.527,153.276z M243.774,152.891
		c-0.978,0.091-1.687,0.224-2.129,0.399c1.242-1.099,1.95-1.798,2.129-2.097c-0.445-0.202-0.933-0.3-1.462-0.3
		c-0.357,0-1.199,0.179-2.532,0.533c-0.533,0.088-1.063,0.133-1.596,0.133c-0.445,0-0.845-0.046-1.199-0.134
		c-0.179,0.517,0.754,1.138,2.794,1.864c-1.508,0.175-3.084-0.313-4.725-1.474c-1.641-1.161-2.593-2.501-2.859-4.02L215.7,109.08
		c-4.351-2.232-7.233-3.352-8.654-3.352c-0.621,0-1.196,0.091-1.729,0.266l0.537-14.65l15.974,0.004
		c6.299-0.798,10.339-3.773,12.115-8.923c0.442-1.951,0.667-3.684,0.668-5.193c0.001-2.663-0.619-4.93-1.864-6.794
		c-3.015-4.619-7.941-6.929-14.773-6.931c0.176-0.088,0.309-0.175,0.4-0.266c-3.552-0.801-7.634-1.111-12.249-0.937l0.404-15.316
		c2.574-0.175,5.015-0.265,7.322-0.265c17.66,0.005,29.238,6.106,34.74,18.305c1.595,3.561,2.393,7.389,2.392,11.483
		c-0.002,8.013-2.712,15.312-8.128,21.896c-0.621,0.982-2.575,2.36-5.858,4.138c-2.574,1.427-3.862,3.072-3.862,4.942
		c0,0.442,0.088,0.888,0.266,1.333l15.167,35.658C249.103,147.862,247.503,150.668,243.774,152.891z M338.391,152.378
		c-0.354,0-0.978,0.179-1.863,0.536c-0.887,0.361-1.599,0.445-2.132,0.269c0.533-0.088,0.933-0.175,1.199-0.266l-0.533-0.533
		c-9.405,0.176-19.126,0.261-29.152,0.259c-9.942-0.003-19.48-0.093-28.619-0.275c-1.511,0.266-3.175-0.177-4.992-1.331
		c-1.82-1.155-2.729-2.534-2.729-4.131l0.692-89.642c0.001-4.439,1.731-7.547,5.193-9.322c2.928-0.799,4.927-1.198,5.99-1.198
		l52.718,0.948c1.595,0.446,2.947,1.464,4.058,3.065c1.108,1.597,1.663,3.243,1.663,4.927c-0.001,2.221-0.888,4.309-2.664,6.259
		c-1.866,1.599-4.128,2.399-6.79,2.398c-0.712,0-1.287-0.088-1.732-0.267c3.107,0.001,5.015-0.486,5.724-1.465
		c-5.678,0.623-11.58,0.93-17.703,0.928l-18.239-0.005c-3.549-0.001-6.744,0.086-9.584,0.261l-2.396,2.373
		c0.087,2.644,0.04,6.777-0.137,12.409c-0.18,5.805-0.048,9.941,0.396,12.403l2.128,1.188c2.662,0.001,7.589,0.002,14.778,0.004
		c6.39-0.174,11.135-0.172,14.242,0.004c5.06,0.268,9.454,0.842,13.178,1.721c1.245,0.794,2.132,1.939,2.664,3.435
		c0.266,0.885,0.484,2.293,0.662,4.228c-0.622,3.346-2.53,5.505-5.725,6.473l0.666-0.458l-0.266-0.342l-0.933,0.933l-14.641,0.393
		c-0.091-0.709-0.312-1.063-0.666-1.064c-0.179,0-0.445,0.179-0.8,0.533c-1.862,0.087-4.391,0.044-7.589-0.136
		c-3.724-0.268-6.302-0.402-7.719-0.402c-3.461-0.001-6.702,0.486-9.718,1.461l-1.466,2.666l-0.007,23.573l2.395,1.734l48.857,0.947
		c3.016,0.986,4.79,3.182,5.322,6.586C342.299,148.125,341.053,150.769,338.391,152.378z M435.435,153.345
		c0-0.117,0.088-0.296,0.267-0.533c-0.445-0.534-1.154-0.709-2.129-0.534c-1.154,0.266-1.862,0.312-2.129,0.133l0,0.933
		c-3.64-1.068-5.771-2.931-6.388-5.595l-12.368-51.286c-0.711-0.976-1.329-1.685-1.862-2.13c-0.978,0.087-1.732,0.712-2.266,1.863
		c-0.179,0.267-0.488,1.288-0.93,3.063l-12.66,49.946c-0.891,1.866-2.445,2.887-4.661,3.062c-1.862-0.088-3.682-0.134-5.457-0.135
		l0,0.533c-3.019-0.443-4.926-2.398-5.725-5.862l-22.071-92.312c0.176-3.284,2.13-5.772,5.859-7.458
		c0.621-0.175,1.242-0.266,1.866-0.266c3.812,0.001,6.565,1.602,8.25,4.799l13.697,52.883c0.266,0.621,0.666,0.93,1.199,0.93
		c0.351,0,0.751-0.133,1.196-0.396c1.333-1.866,2.354-4.708,3.064-8.526c0.888-4.53,1.601-7.502,2.134-8.923l10.261-36.893
		c2.572-2.575,4.792-3.862,6.657-3.861c0.442,0,0.929,0.091,1.462,0.267c3.549,0.356,5.677,1.956,6.388,4.795l12.634,50.753
		c1.329,1.6,2.17,2.4,2.528,2.4c0.266,0,0.533-0.088,0.799-0.266c1.508-1.333,2.438-3.508,2.797-6.526
		c0.443-3.642,0.886-5.996,1.331-7.06l11.461-40.223c1.863-2.484,4.171-3.729,6.924-3.728c1.15,0,2.216,0.222,3.194,0.668
		c2.928,1.337,4.39,3.92,4.389,7.747c0,1.424-0.18,2.803-0.531,4.14l-23.588,89.46C439.876,150.988,438.01,152.367,435.435,153.345z
		 M500.007,127.923c0.618-0.179,1.108-0.354,1.463-0.533c-1.066-0.446-2.174-0.667-3.328-0.668c-1.154,0-3.24,0.445-6.256,1.331
		c-1.6,2.575-3.288,6.48-5.064,11.719c-1.864,5.684-3.461,9.68-4.794,11.985l-1.866,0.666c-0.442,0.533-0.975,0.8-1.596,0.8
		l1.596-0.8c0.088-0.176,0.179-0.309,0.267-0.4c-0.621-0.176-3.061-0.268-7.319-0.269c0.062,0.228,0.2,0.424,0.387,0.599
		c0.986,0.4,1.81,0.664,2.477,0.794c0.428,0.041,0.87,0.075,1.393,0.075c-0.335,0.084-0.827,0.035-1.393-0.075
		c-1.186-0.112-2.024-0.371-2.477-0.794c-0.829-0.337-1.731-0.735-2.786-1.263c-1.42-1.421-2.128-3.197-2.127-5.33
		c0-1.33,0.222-2.884,0.664-4.66c0.709-2.842,1.106-4.305,1.194-4.396l22.294-65.926l1.459,0.667l7.683,22.779l-4.665,14.515
		c0.266,1.424,1.286,2.4,3.061,2.934l1.466,0c0.087,3.197,0.132,5.948,0.131,8.257c-0.001,3.909-0.135,6.484-0.402,7.726
		C501.29,127.836,500.803,127.924,500.007,127.923z M539.536,152.041c-1.778,0.533-3.153,0.932-4.128,1.199l0.4-0.266
		c-0.357-0.534-1.02-0.8-1.999-0.801c-0.621,0-1.154,0.045-1.596,0.133c-0.205,0-0.327,0-0.4,0l0,0.933
		c-3.285-1.864-5.634-5.461-7.053-10.792c-1.951-7.278-3.279-11.542-3.991-12.788c-1.42-1.331-3.328-2.131-5.723-2.398l-5.723-0.535
		l0.27-13.72c0.266,0.091,0.53,0.133,0.796,0.134c0.533,0,0.933-0.263,1.199-0.796l-2.262-0.267
		c2.903-0.529,4.589-1.371,5.058-2.522c-1.328-6.384-4.035-15.62-8.111-27.718c-4.082-12.095-6.783-21.247-8.114-27.448
		c0.088-1.951,0.801-3.59,2.13-4.92c0.354,0.624,0.932,0.934,1.732,0.934c0.354,0,0.864-0.088,1.531-0.266
		c0.666-0.175,1.177-0.266,1.531-0.266c0.621,0,1.108,0.134,1.466,0.4c0.175,0.088,0.553-0.019,1.131-0.331
		c0.575-0.312,0.952-0.468,1.131-0.468c0.354,0,0.621,0.267,0.799,0.8l0.93-0.933c-0.088-0.267-0.266-0.533-0.529-0.8
		c0.884,0.625,1.638,1.2,2.262,1.734l2.394,4.264l27.664,90.183C542.332,147.736,541.399,150.178,539.536,152.041z M618.127,152.463
		l-0.933,0.266l0.4-0.267c-0.799-0.176-1.911-0.267-3.328-0.268c-0.712,0-1.797,0.045-3.263,0.132
		c-1.463,0.091-2.551,0.133-3.26,0.133c-1.778-0.001-3.195-0.177-4.261-0.535l-0.666,0.8l-0.53-0.533
		c-0.712,0.357-1.424,0.533-2.132,0.533c-0.179,0-0.887-0.134-2.129-0.401c-0.887-0.176-1.687-0.134-2.395,0.133
		c-2.311,0.178-6.039,0.132-11.183-0.137c-4.706-0.268-8.388-0.223-11.05,0.13l1.732,0.4l40.602,0.545l-38.607-0.011l-1.995-0.534
		l-3.651-0.053c-0.566,0.114-1.09,0.185-1.542,0.185c-0.489,0-0.892-0.098-1.269-0.226l-2.855-0.042
		c-2.931-1.864-4.484-3.774-4.659-5.728l1.226-95.105c0.797-2.218,2.663-3.905,5.591-5.059c4.436-0.353,7.588,1.248,9.45,4.799
		l-0.023,82.849c0.175,1.064,0.887,1.776,2.128,2.131l3.195,0.534l34.212,0.676c2.928,1.331,4.702,3.019,5.325,5.062
		c0.084,0.712,0.133,1.421,0.133,2.133C622.388,149.18,620.964,151.667,618.127,152.463z M698.011,152.486l-0.933,0.266l0.4-0.266
		c-0.799-0.176-1.911-0.267-3.328-0.268c-0.712,0-1.797,0.045-3.263,0.132c-1.463,0.091-2.551,0.133-3.26,0.132
		c-1.778-0.001-3.195-0.177-4.261-0.535l-0.666,0.8l-0.53-0.533c-0.712,0.358-1.423,0.533-2.132,0.533
		c-0.179,0-0.887-0.134-2.129-0.4c-0.887-0.176-1.687-0.134-2.395,0.133c-2.311,0.178-6.039,0.132-11.183-0.136
		c-4.706-0.268-8.388-0.223-11.05,0.13l1.732,0.401l40.602,0.545l-38.607-0.011l-1.995-0.534l-3.651-0.053
		c-0.566,0.113-1.09,0.185-1.543,0.185c-0.489,0-0.893-0.098-1.27-0.226l-2.854-0.042c-2.931-1.864-4.484-3.773-4.659-5.728
		l1.226-95.105c0.797-2.218,2.663-3.905,5.591-5.059c4.436-0.353,7.588,1.248,9.45,4.799l-0.023,82.849
		c0.175,1.063,0.887,1.776,2.128,2.131l3.195,0.534l34.212,0.676c2.928,1.331,4.702,3.019,5.325,5.061
		c0.084,0.712,0.133,1.421,0.133,2.133C702.273,149.202,700.849,151.69,698.011,152.486z"/>
	<path fill="#EC1C24" d="M650.117,47.647c-0.799,0-1.463,0.045-1.996,0.133c-0.266,0-0.444,0-0.533,0
		c-0.091,0.179-0.465,0.377-1.131,0.598c-0.666,0.224-0.91,0.598-0.732,1.131c0.884-0.621,1.729-0.933,2.529-0.933
		c0.266,0,0.666,0.049,1.196,0.134c0.533,0.091,0.933,0.134,1.199,0.134c0.533,0,1.108-0.133,1.732-0.396
		C651.936,47.914,651.183,47.647,650.117,47.647z"/>
	<path fill="#EC1C24" d="M665.668,137.827l-4.927,0.532c4.436,0.444,10.738,0.666,18.902,0.669
		c8.697,0.003,14.999,0.183,18.905,0.539c-4.085-0.977-9.542-1.421-16.373-1.335C674.008,138.408,668.505,138.273,665.668,137.827z"
		/>
	<path fill="#EC1C24" d="M585.784,137.804l-4.927,0.532c4.436,0.443,10.738,0.666,18.902,0.669
		c8.697,0.002,14.999,0.183,18.905,0.539c-4.085-0.977-9.542-1.421-16.373-1.335C594.123,138.385,588.621,138.25,585.784,137.804z"
		/>
	<path fill="#EC1C24" d="M96.258,48.554c-0.533,0,0.309-0.133,2.529-0.396c0.975-0.087,1.865,0.046,2.662,0.398
		c4.882-0.441,8.388-0.661,10.517-0.66c-8.076-0.002-13.712-0.004-16.906-0.005c-0.978,0-3.507-0.001-7.585-0.002
		c-4.618-0.001-8.655-0.002-12.116-0.003c2.132,0.355,5.635,0.402,10.517,0.136C90.489,47.843,93.947,48.023,96.258,48.554z"/>
	<path fill="#EC1C24" d="M59.517,48.81l0.732-0.013C59.944,48.792,59.685,48.794,59.517,48.81z"/>
</g>
</svg>
