<svg version="1.1" id="more-button" xmlns="http://www.w3.org/2000/svg" xmlns:xlink="http://www.w3.org/1999/xlink" x="0px" y="0px"
	 viewBox="0 0 200 200" style="enable-background:new 0 0 200 200;" xml:space="preserve">
<style type="text/css">
	.more-st0{fill:#231F20;}
	.more-st1{fill:none;}
	.more-st2{fill:#FFFFFF;}
</style>
<circle class="more-st0" cx="100.6" cy="100.6" r="94.9"/>
<g>
	<line class="more-st1" x1="-2.4" y1="158.6" x2="323.4" y2="36.2"/>
	<path class="more-st2" d="M53.2,137.1c-0.3,0-0.5,0-0.8-0.2l-1-0.9L41,107.2c-0.2-1.1,0.4-2,1.7-2.4c1.1-0.4,2.1-0.2,3,0.7
		c1,0.9,2.3,1.9,3.7,3c1.6,1.2,2.7,2.2,3.4,3.1c0.1,0.2,0.2,0.3,0.2,0.3c0.1,0,0.2-0.2,0.1-0.4c2.1,1.7,3.5,2.8,4.4,3.1l0.8-1.6
		l2.6-13.5c0.3-1,0.9-1.7,1.7-2c1.3-0.5,2.3-0.1,3.2,1.1c1,2.5,2.1,5.2,3.2,8.2c2.2,5.9,4.6,12.6,7.2,20.1c-0.1,1-0.2,1.7-0.5,2
		l-0.2-0.1l-0.2,0.5l0.1-0.3c-0.8,0.1-1.4,0.3-1.8,0.4c-0.2,0.2-0.2,0.3,0,0.5l0-0.1l1.3-0.3l0,0.1c-1.3,0.5-2.4,0.4-3.1-0.3
		l-0.9-1.2l-5.8-16.2c-0.2-0.2-0.5-0.4-0.9-0.6c-0.4,0.3-0.7,0.9-0.8,1.6c-0.2,1.2-0.3,1.8-0.3,1.9c-0.4,2.2-0.6,3.4-0.7,3.5
		c-0.4,1.5-0.8,2.6-1.3,3.2c-0.2-0.1-0.4-0.2-0.6-0.1c-0.1,0-0.3,0.1-0.5,0.3c-0.2,0.1-0.4,0.2-0.6,0.2c0,0.2,0,0.3-0.1,0.4
		c-0.1,0-0.3,0-0.7-0.1c-0.3-0.1-0.6-0.2-0.7-0.2l-7.4-5.5c-0.1,0-0.1,0-0.2,0c-0.3,0.1-0.4,0.4-0.4,0.9l6.1,17.1
		c0.1,1-0.3,1.8-1.1,2.5l-1.3,0.3c1-0.4,1.6-0.7,1.7-0.9c-0.2-0.2-0.4-0.2-0.6-0.1c-0.1,0-0.3,0.1-0.6,0.3c-0.2,0.1-0.4,0.2-0.6,0.2
		C53.7,137,53.5,137.1,53.2,137.1z M42.6,105c-0.3,0.1-0.5,0.3-0.5,0.6l1.3-0.5c0.1-0.1,0.2-0.1,0.4,0c0.2,0,0.2-0.1,0.2-0.2
		C43.2,104.9,42.8,105,42.6,105z M62.9,97.6c-0.6,0.2-1,0.5-1.2,0.7c1-0.3,1.8-0.6,2.3-0.7C63.8,97.4,63.4,97.4,62.9,97.6z"/>
	<path class="more-st2" d="M79.7,90.8c0.1-0.1,0.3-0.1,0.5-0.1c-0.3,0.1-1,0.6-2.3,1.5c0.5-0.2,1-0.3,1.4-0.5c0.4-0.2,0.8-0.3,1.1-0.5
		l1.6,4.2c0,0-0.1,0-0.1,0c-0.2,0.1-0.3,0.2-0.4,0.5l-0.2,0c-1.6,1.9-2.4,3.5-2.2,4.9c0.6,2.4,1.4,4.9,2.4,7.6
		c1.3,3.3,2.3,5.8,2.9,7.4c0.5,0.8,1.3,1.5,2.4,1.9c1.1,0.5,2.2,0.6,3.2,0.5c0.9,1.9,1.5,3.3,1.9,4.3c-0.2,0.1-0.5,0.2-1,0.3
		c-0.4,0.1-0.7,0.3-0.8,0.5l0.9,0.1c-1.6,0.3-3.3,0.2-5.1-0.4c-1.7-0.6-3.2-1.5-4.5-2.7c-1.5-1.7-2.7-4-3.8-6.8
		c-0.4-0.9-0.9-2.5-1.6-4.7c-0.6-2-1.2-3.6-1.6-4.7c-0.8-2.1-0.9-4.3-0.1-6.6c0.7-2.4,2-4.3,3.7-5.7C79.2,91.2,79.8,90.8,79.7,90.8z
		 M89.2,90.2c2.2,0.8,3.9,2.1,5.3,3.9c1.9,3.8,3.8,8.8,5.8,14.9c0.6,1.9,0.6,3.9,0.1,6c-0.6,2-1.6,3.8-3.1,5.3l-2,1.6l0.5-0.5
		c-0.2-0.1-0.4-0.2-0.7-0.1c-0.1,0-0.3,0.1-0.5,0.3c-0.2,0.2-0.3,0.2-0.4,0.3c-0.3-0.7-0.6-1.4-0.9-2.1c-0.3-0.8-0.5-1.5-0.7-2.2
		c1.7-1.5,2.7-3,2.8-4.7l-0.3-2.3l-5-13.3c-0.6-0.8-1.5-1.5-2.7-2.1c-1.1-0.5-2.2-0.7-3.2-0.4l-1.6-4.3c0.4,0,1-0.1,1.8-0.5
		c-0.1-0.2-0.5-0.3-1.4-0.2L82.6,90l0-0.3C84.7,89.2,86.9,89.3,89.2,90.2z M86.1,89.6c-0.1,0.1-0.4,0.1-1,0.2c0.1,0.1,0.2,0.1,0.4,0
		c0.2,0,0.3,0,0.4,0.2L86.1,89.6z"/>
	<path class="more-st2" d="M111.8,114.8c-0.2,0.1-0.4,0.3-0.7,0.6c-0.3,0.3-0.5,0.5-0.7,0.6c-0.2,0.1-0.5,0-0.9-0.1l-1.3-1L97.9,86.2
		c-0.3-0.8,0-1.7,1-2.5c1.3-0.7,2.4-1.1,3.1-1.3c-0.2,0.2-0.7,0.5-1.4,0.7c-0.7,0.3-1.1,0.6-1.3,0.9c0.2,0,0.6-0.2,1.2-0.4
		c0.5-0.2,0.9-0.3,1.2-0.4l0,0.1l0.6-0.2l10.8,29.9c0,1.1-0.4,2-1.3,2.6l-1,0.3c1-0.5,1.5-0.9,1.5-1.2
		C112.2,114.7,112,114.7,111.8,114.8z M128.5,106.4c0.5,1,0.4,2-0.5,3.1c-0.3,0.1-0.5,0.3-0.6,0.4c0.3-0.5,0.4-0.8,0.4-0.9
		c-0.2,0-0.3,0-0.5,0.1c-0.1,0-0.3,0.2-0.7,0.5c-0.2,0.1-0.3,0.2-0.5,0.2c-0.1,0.1-0.3,0.1-0.4,0.1c0,0.2,0.4,0.3,1.1,0.2
		c-0.4,0.2-1,0.3-1.6,0.1c-0.6-0.2-1.1-0.5-1.3-0.9l-9.4-9.9c-1.6-0.2-2.6-0.2-3,0c-0.2,0.1-0.4,0.2-0.5,0.3l-1.5-4.5l4.9-1.8
		c1.8-1,2.7-2.3,2.7-4.1c-0.1-0.6-0.2-1.2-0.4-1.7c-0.3-0.8-0.8-1.4-1.3-1.8c-1.4-1.1-3.2-1.2-5.3-0.4c0,0,0.1-0.1,0.1-0.1
		c-1.2,0.2-2.4,0.5-3.8,1.1l-1.6-4.7c0.8-0.3,1.5-0.7,2.2-0.9c5.4-2,9.6-1.5,12.6,1.6c0.9,0.9,1.6,2,2,3.2c0.9,2.4,0.9,5,0,7.6
		c-0.1,0.4-0.5,1-1.3,1.9c-0.6,0.7-0.8,1.4-0.6,1.9c0.1,0.1,0.1,0.3,0.2,0.4L128.5,106.4z M106.1,81.6c0.3-0.1,0.7-0.3,1.1-0.5
		l-2.4,0.7l0.2,0.3C105,81.9,105.4,81.8,106.1,81.6z M110.4,79.8l-2.6,0.8l-0.3,0.3L110.4,79.8z M111.3,95c0.5-0.2,1-0.5,1.3-0.8
		c-0.7,0.3-1.3,0.5-1.8,0.7c-0.5,0.2-0.9,0.3-1.2,0.4C110.2,95.4,110.7,95.2,111.3,95z"/>
	<path class="more-st2" d="M135.9,105.8c-0.7-0.1-1.1-0.5-1.3-0.9l-10-27.3c-0.5-1.3-0.3-2.5,0.5-3.4c0.8-0.6,1.4-0.9,1.7-1l16.1-5.7
		c0.5,0,1.1,0.1,1.6,0.5c0.5,0.4,0.9,0.8,1.1,1.3c0.3,0.7,0.2,1.4-0.1,2.2c-0.4,0.7-1,1.2-1.8,1.5c-0.2,0.1-0.4,0.1-0.6,0.1
		c0.9-0.4,1.5-0.7,1.6-1.1c-1.7,0.8-3.4,1.6-5.3,2.3l-5.5,2.1c-1.1,0.4-2,0.8-2.9,1.2l-0.5,1c0.3,0.8,0.8,2.1,1.4,3.8
		c0.6,1.8,1.1,3,1.5,3.7l0.8,0.1c0.8-0.3,2.3-0.9,4.5-1.7c1.9-0.8,3.4-1.3,4.3-1.6c1.6-0.5,3-0.8,4.2-1c0.5,0.1,0.9,0.3,1.2,0.7
		c0.2,0.2,0.4,0.6,0.7,1.2c0.2,1.1-0.1,2-1,2.6l0.2-0.2l-0.1-0.1l-0.2,0.4l-4.4,1.8c-0.1-0.2-0.2-0.3-0.3-0.2
		c-0.1,0-0.1,0.1-0.2,0.3c-0.6,0.2-1.3,0.5-2.3,0.8c-1.2,0.3-2,0.6-2.4,0.8c-1.1,0.4-2,0.9-2.8,1.6l-0.1,1l2.7,7.2l0.9,0.3l14.9-5.3
		c1,0,1.8,0.4,2.4,1.4c0.5,1.1,0.4,2-0.2,2.8c-0.1,0-0.3,0.2-0.5,0.4c-0.2,0.2-0.4,0.3-0.6,0.3c0.2-0.1,0.3-0.2,0.3-0.2l-0.2-0.1
		c-2.8,1.1-5.8,2.3-8.8,3.4c-3,1.1-5.9,2.2-8.7,3.2C137.2,105.9,136.6,106,135.9,105.8z M125.7,74.3c0.8-0.5,2.1-1,3.8-1.6
		c0.6-0.2,1.2-0.4,1.7-0.6c0.8-0.3,1.5-0.6,1.9-0.9l0,0.1l4.9-1.8c2.1-0.7,3.7-1.3,5.1-1.5l0.2-0.3l-0.6-0.1l-16.3,5.9L125.7,74.3z
		 M135.9,85.7l2-0.7l-1.9,0.6L135.9,85.7z M138.4,84.8c3.6-1.2,5.9-2,6.8-2.3c0-0.1,0.1-0.1,0.2-0.2c0.1,0,0.3-0.1,0.5-0.1
		c0.2,0,0.4,0,0.4,0c0.1,0,0.1-0.1,0.1-0.2C145.3,82.3,142.6,83.2,138.4,84.8z M140,99.9c1-0.3,3.4-1.2,7.3-2.6
		c3-1.1,5.4-1.9,7.3-2.4c-1.5,0.2-3.1,0.7-4.9,1.3c-3.1,1.1-6.3,2.3-9.6,3.5L140,99.9z"/>
</g>
<g>
</g>
<g>
</g>
<g>
</g>
<g>
</g>
<g>
</g>
<g>
</g>
<g>
</g>
<g>
</g>
<g>
</g>
<g>
</g>
<g>
</g>
<g>
</g>
<g>
</g>
<g>
</g>
<g>
</g>
</svg>
