<svg version="1.1" id="may-be-censored-button" xmlns="http://www.w3.org/2000/svg" xmlns:xlink="http://www.w3.org/1999/xlink" x="0px" y="0px"
	 viewBox="0 0 200 200" style="enable-background:new 0 0 200 200;" xml:space="preserve">
<style type="text/css">
	.may-be-censored-st0{fill:none;stroke:#EB2027;stroke-width:7.7584;stroke-miterlimit:10;}
	.may-be-censored-st1{fill:none;}
	.may-be-censored-st2{fill:#EB2027;}
</style>
<circle class="may-be-censored-st0" cx="99.9" cy="100.5" r="90.9"/>
<g>
	<line class="may-be-censored-st1" x1="-27.2" y1="137.4" x2="284.9" y2="20.1"/>
	<path class="may-be-censored-st2" d="M45.7,109.5c-0.2,0-0.4,0-0.6-0.1l-0.8-0.7l-8.7-24.2c-0.1-1,0.4-1.6,1.4-2c0.9-0.3,1.7-0.1,2.5,0.6
		c0.9,0.8,1.9,1.6,3.1,2.5c1.3,1,2.3,1.8,2.9,2.6c0.1,0.2,0.1,0.3,0.2,0.3c0.1,0,0.1-0.1,0.1-0.4c1.7,1.5,3,2.3,3.6,2.6l0.7-1.3
		l2.2-11.3c0.3-0.8,0.7-1.4,1.4-1.6c1.1-0.4,2-0.1,2.7,0.9c0.8,2.1,1.7,4.4,2.7,6.9c1.9,4.9,3.9,10.5,6.1,16.8
		c-0.1,0.9-0.2,1.4-0.4,1.7l-0.1-0.1l-0.2,0.4l0.1-0.3c-0.7,0.1-1.2,0.2-1.5,0.4c-0.1,0.1-0.1,0.3,0,0.4l0-0.1l1.1-0.2l0,0.1
		c-1.1,0.4-2,0.3-2.6-0.3l-0.7-1l-4.8-13.6c-0.2-0.2-0.4-0.4-0.7-0.5c-0.4,0.3-0.6,0.7-0.7,1.3c-0.1,1-0.2,1.5-0.2,1.6
		c-0.3,1.9-0.5,2.8-0.6,3c-0.3,1.3-0.7,2.2-1.1,2.7c-0.2-0.1-0.3-0.1-0.5-0.1c-0.1,0-0.2,0.1-0.4,0.2c-0.2,0.1-0.3,0.2-0.5,0.2
		c0,0.2,0,0.3-0.1,0.3c-0.1,0-0.3,0-0.6-0.1c-0.3-0.1-0.5-0.2-0.6-0.2l-6.2-4.6c-0.1,0-0.1,0-0.1,0c-0.2,0.1-0.4,0.3-0.3,0.7
		l5.1,14.3c0.1,0.8-0.2,1.5-1,2.1l-1.1,0.3c0.8-0.3,1.3-0.6,1.4-0.8c-0.2-0.1-0.3-0.2-0.5-0.1c-0.1,0-0.3,0.1-0.5,0.3
		c-0.2,0.1-0.3,0.2-0.5,0.2C46.1,109.4,45.9,109.5,45.7,109.5z M36.8,82.6c-0.2,0.1-0.4,0.3-0.4,0.5l1.1-0.4c0.1,0,0.2-0.1,0.4,0
		c0.1,0,0.2-0.1,0.2-0.2C37.3,82.5,36.9,82.6,36.8,82.6z M53.8,76.4c-0.5,0.2-0.8,0.4-1,0.6c0.8-0.3,1.5-0.5,1.9-0.6
		C54.6,76.2,54.3,76.2,53.8,76.4z"/>
	<path class="may-be-censored-st2" d="M70.6,71.9l15.7,20.3c0.3,0.8,0.3,1.5,0,2.1c-0.4,0.3-0.7,0.5-0.9,0.7l0.1-0.1c-0.1-0.1-0.3-0.1-0.6,0
		c-0.2,0.1-0.3,0.1-0.4,0.2c-0.1,0-0.1,0.1-0.1,0l0.1,0.2c-1-0.2-2-0.9-2.8-2.1c-1.2-1.7-1.9-2.6-2.2-2.9c-0.5-0.2-1.1-0.2-1.7-0.1
		l-1.5,0.4l-1.2-3.5c0.1,0,0.1,0,0.2,0c0.1-0.1,0.2-0.2,0.2-0.3l-0.6,0.1c0.7-0.4,1-0.8,1-1.1c-0.9-1.5-2.5-3.6-4.7-6.3
		c-2.2-2.7-3.8-4.8-4.7-6.2c-0.2-0.5-0.1-1,0.1-1.5c0.1,0.1,0.3,0.1,0.5,0.1c0.1,0,0.2-0.1,0.4-0.2s0.3-0.2,0.4-0.2
		c0.2-0.1,0.3-0.1,0.4,0c0.1,0,0.1-0.1,0.3-0.2c0.1-0.1,0.2-0.2,0.2-0.2c0.1,0,0.2,0,0.3,0.1l0.1-0.3c0-0.1-0.1-0.1-0.2-0.2
		c0.3,0.1,0.5,0.1,0.7,0.2L70.6,71.9z M68.7,100.7c-0.5-0.2-0.8-0.6-1.1-1.2c-0.1-0.3-0.2-0.8-0.3-1.2c-0.1-0.8-0.1-1.2-0.1-1.2
		l-0.6-18.9l0.4,0l4.1,5.1l0.2,4.1c0.2,0.3,0.6,0.5,1.1,0.5l0.4-0.1c0.3,0.8,0.6,1.5,0.8,2.1c0.4,1,0.6,1.7,0.6,2
		c0,0.1-0.1,0.1-0.3,0.2c0.1-0.1,0.2-0.2,0.3-0.3c-0.3,0-0.6,0-0.9,0.1c-0.3,0.1-0.8,0.4-1.5,0.9c-0.2,0.8-0.2,2-0.2,3.5
		c0.1,1.6,0,2.8-0.1,3.5l-0.4,0.3c0-0.1,0-0.1,0-0.1c-0.2,0-0.8,0.2-1.9,0.6c0.2,0.2,0.6,0.2,1.2,0
		C70.3,100.8,69.7,100.8,68.7,100.7z M67.4,70.9c0.4-0.1,0.9-0.1,1.3-0.1c-0.5,0.1-0.9,0.1-1.1,0.2L67,71.4
		c-0.2,0.1-0.3,0.2-0.4,0.4C66.6,71.7,66.8,71.4,67.4,70.9z M68.7,70.9c0.1,0,0.1,0,0.2,0C68.8,70.9,68.7,70.9,68.7,70.9z
		 M70.9,100.5l0.3-0.4C71.1,100.3,71,100.5,70.9,100.5z M73.9,92c-0.1,0-0.1,0.1-0.2,0.1C73.8,92.1,73.8,92,73.9,92z"/>
	<path class="may-be-censored-st2" d="M98.5,61.7c0.1,0.2,0.1,0.3,0.1,0.4l0.1,0.9c-1.2,4.1-2.2,8.4-2.9,12.9l4.4,11.9c-0.1,1.1-0.4,1.7-0.9,2.1
		l-0.1,0c0.1-0.1,0.2-0.2,0.2-0.4l-0.8,0.3c-0.3,0.1-0.5,0.3-0.5,0.5c-0.8,0-1.5-0.2-1.9-0.8l-4.8-12.6L80.5,69
		c-0.1-0.1-0.2-0.3-0.3-0.4c-0.2-0.5-0.2-1.1,0.1-1.8c0.2-0.5,0.6-0.9,1.2-1.2c0.7-0.3,1.3-0.2,1.8,0.2c2.5,1.8,4.8,3.5,6.7,4.9
		c0.1,0,0.4,0.1,0.8,0.4c0.4,0.3,0.7,0.3,0.9,0.3c0.1-0.1,0.3-0.2,0.4-0.4l2.5-9.6c0.2-0.4,0.6-0.8,1.1-1c0.3-0.1,0.6-0.2,0.9-0.2
		C97.6,60.4,98.2,60.9,98.5,61.7z M81.8,66.3c0.4-0.2,0.8-0.3,1.1-0.4c-0.2-0.1-0.4-0.2-0.7-0.1c-0.3,0.1-0.6,0.1-0.8,0.2
		c-0.6,0.2-0.9,0.5-0.9,0.9C81,66.6,81.4,66.4,81.8,66.3z M96.2,60.9c0.1,0,0.3,0,0.6,0c0.3,0,0.5,0,0.7,0c-0.4-0.5-1-0.6-1.8-0.3
		C95.3,60.8,95,61,95,61.3l0.9-0.3l0.1,0.2C96,61,96.1,60.9,96.2,60.9z M98.7,90.1l-0.3,0.1C98.4,90.2,98.5,90.1,98.7,90.1z
		 M98.7,90.1l0.4-0.2C99.1,90,98.9,90,98.7,90.1z"/>
	<path class="may-be-censored-st2" d="M111.8,85.1c-0.1,0-0.4,0-0.8,0l-1.1-0.9l-7.6-20.7c-0.4-1.2-0.8-2.2-1-2.9c-0.3-1.1,0-2,0.8-2.6
		c0.2-0.2,1-0.5,2.4-0.9c-0.1,0.2-0.6,0.4-1.4,0.8c-0.7,0.3-1.2,0.6-1.3,1l0.3-0.1c1.2-0.5,2.1-0.9,2.7-1.1l9.7,26.6
		c-0.2-0.1-0.4-0.1-0.6-0.1c-0.2,0.2-0.5,0.4-0.9,0.6c-0.4,0.2-0.7,0.3-1.1,0.2C111.9,85,111.8,85,111.8,85.1z M118.3,82.6
		c-0.7,0.3-1.4,0.5-1.9,0.7l-1.2-3.2l1.8-0.8c0.7-0.3,1.3-0.6,1.7-0.9c-0.4,0.1-1,0.3-1.8,0.6s-1.4,0.5-1.9,0.6l3.8-1.6
		c1.3-0.8,2-1.9,1.9-3.3c0-0.5-0.1-1.1-0.3-1.6c-0.4-1-1.1-1.7-2.2-2.2c-1.1-0.5-2.1-0.5-3-0.1l0.1-0.2c-1.4,0.3-2.5,0.6-3.2,0.9
		l-1.2-3.3l2.1-0.9c-0.2-0.1-0.6,0-1.2,0.2c-0.3,0.1-0.6,0.3-1,0.4c0.3-0.2,0.6-0.4,1.1-0.6c-0.2,0.1,0,0,0.6-0.2l0.6-0.2
		c0.8-0.3,1.4-0.7,1.6-1.2l0.5-0.1l0.2-0.3l-0.4-0.1c0.6-1.1,0.7-2.2,0.2-3.4c-0.5-1.3-1.7-2.1-3.3-2.2c-0.6,0-1.5,0.2-2.8,0.7
		l2-0.7l-3.1,0.7l-1.2-3.2l4.1-1.6c-1,0-2.4,0.3-4.3,1c0.5-0.3,1.1-0.6,1.6-0.8c3.2-1.2,6-0.8,8.4,1.1c1.3,1.1,2.3,2.4,2.8,3.8
		c0.3,0.9,0.5,1.8,0.4,2.6l-0.4,3.1c2.6,1.4,4.3,3.2,5.2,5.5c0.7,1.8,0.7,3.5,0.1,5.3c-0.7,2.1-2.1,3.7-4,4.8l0.2-0.3
		C119.9,81.9,119.1,82.3,118.3,82.6z M115.2,70.7C115.2,70.7,115.2,70.7,115.2,70.7L115.2,70.7C115.2,70.7,115.2,70.7,115.2,70.7z"
		/>
	<path class="may-be-censored-st2" d="M130.3,77.6c-0.6-0.1-0.9-0.4-1.1-0.8l-8.4-22.9c-0.4-1.1-0.3-2.1,0.4-2.9c0.7-0.5,1.1-0.8,1.4-0.9l13.5-4.8
		c0.4,0,0.9,0.1,1.3,0.4c0.4,0.3,0.7,0.7,0.9,1.1c0.2,0.6,0.2,1.2-0.1,1.8c-0.3,0.6-0.8,1-1.5,1.3c-0.2,0.1-0.3,0.1-0.5,0.1
		c0.8-0.3,1.2-0.6,1.3-0.9c-1.4,0.7-2.9,1.3-4.4,1.9l-4.6,1.7c-0.9,0.3-1.7,0.7-2.4,1l-0.4,0.8c0.3,0.7,0.7,1.7,1.2,3.2
		c0.5,1.5,0.9,2.5,1.3,3.1l0.7,0.1c0.7-0.3,1.9-0.7,3.8-1.4c1.6-0.7,2.8-1.1,3.6-1.4c1.3-0.4,2.5-0.7,3.5-0.8c0.4,0.1,0.7,0.3,1,0.6
		c0.2,0.2,0.3,0.5,0.6,1c0.2,0.9-0.1,1.6-0.8,2.2l0.1-0.2l-0.1-0.1l-0.1,0.3l-3.7,1.5c-0.1-0.2-0.2-0.2-0.3-0.2c0,0-0.1,0.1-0.2,0.2
		c-0.5,0.2-1.1,0.4-1.9,0.7c-1,0.3-1.6,0.5-2,0.6c-0.9,0.3-1.7,0.8-2.3,1.3l-0.1,0.8l2.3,6l0.8,0.2l12.5-4.4c0.9,0,1.5,0.4,2,1.2
		c0.4,0.9,0.3,1.7-0.2,2.4c-0.1,0-0.2,0.1-0.4,0.3c-0.2,0.2-0.4,0.3-0.5,0.3c0.1-0.1,0.2-0.1,0.3-0.2l-0.2-0.1
		c-2.4,0.9-4.8,1.9-7.4,2.9c-2.5,1-5,1.8-7.3,2.7C131.3,77.7,130.9,77.7,130.3,77.6z M121.7,51.1c0.7-0.4,1.7-0.8,3.2-1.3
		c0.5-0.2,1-0.3,1.4-0.5c0.7-0.3,1.2-0.5,1.6-0.7l0,0.1l4.1-1.5c1.7-0.6,3.1-1,4.2-1.3l0.2-0.3l-0.5-0.1l-13.7,5L121.7,51.1z
		 M130.2,60.7l1.7-0.6L130.2,60.7L130.2,60.7z M132.3,59.9c3-1,4.9-1.7,5.7-2c0-0.1,0.1-0.1,0.1-0.1c0.1,0,0.2,0,0.4,0
		c0.2,0,0.3,0,0.4,0c0.1,0,0.1-0.1,0.1-0.2C138.1,57.8,135.8,58.6,132.3,59.9z M133.6,72.6c0.8-0.3,2.9-1,6.1-2.2
		c2.5-0.9,4.5-1.6,6.1-2c-1.2,0.2-2.6,0.6-4.1,1.1c-2.6,0.9-5.3,1.9-8,2.9L133.6,72.6z"/>
</g>
<g>
	<line class="may-be-censored-st1" x1="-9.1" y1="180.6" x2="303" y2="63.4"/>
	<path class="may-be-censored-st2" d="M57.6,147.9c0.5,1.3,0.4,2.9-0.4,4.6c-0.7,1.6-1.7,2.9-2.9,3.7c-0.3,0.3-0.7,0.5-1.3,0.8
		c-0.7,0.3-1.1,0.5-1.4,0.7c-1.3,0.4-2.7,0.5-4.1,0.4c-3.7-0.4-6.4-2.9-8.1-7.6c-0.3-0.7-0.6-1.7-1-3c-0.4-1.3-0.8-2.3-1-3
		c-0.2-0.6-0.4-1.1-0.7-1.6c-0.3-1.5-0.2-3,0.3-4.6s1.2-2.8,2.3-3.8c0.9-0.9,2-1.7,3.4-2.2c3-1.1,5.9-0.7,8.8,1.4
		c0.5,0.3,0.8,0.8,1.1,1.4c0.3,0.8,0.1,1.6-0.7,2.2c-0.2-0.2-0.4-0.2-0.6,0c-0.1,0.1-0.1,0.2-0.1,0.2c0,0.1,0.1,0.1,0.3,0.1
		c-0.7,0.3-1.7,0.1-2.8-0.7c-1.3-0.8-2.2-1.1-2.9-1c-0.2,0.1-0.5,0.1-0.8,0.1c-0.4,0-0.6,0-0.8,0.1c-0.1,0.1-0.3,0.1-0.4,0.2
		c0,0,0-0.1-0.1-0.1c-0.6,0.7-1.2,1.2-1.6,1.5c-1.3,1.7-1.5,4-0.4,7c0.2,0.7,0.7,1.6,1.3,2.9c0.6,1.3,1,2.2,1.3,2.9
		c0.2,0.6,0.4,1.1,0.5,1.5c0.7,0.8,1.6,1.5,2.7,1.8c1.1,0.4,2.2,0.4,3.1,0c0.8-0.3,1.5-0.8,2.2-1.5c0.6-0.5,1.1-1.5,1.2-3
		c0.2-1.4,0.6-2.3,1.2-2.5c0.3-0.1,0.7-0.2,1.1-0.1C56.9,146.9,57.4,147.3,57.6,147.9z M40.6,134l0.2-0.3c0,0,0.1-0.1,0.1-0.1
		c0.1,0,0.2,0,0.3,0c0,0,0.1,0,0.2-0.1c0.1-0.1,0.1-0.1,0.2-0.1c0.1,0,0.2,0,0.3,0c0.4-0.3,0.9-0.5,1.5-0.7l1.5-0.4
		c-1.2,0.2-2.1,0.4-2.7,0.6c-0.6,0.3-1,0.6-1.2,0.7l0,0l0,0.1C40.7,133.8,40.6,133.9,40.6,134z M55.3,147.3c0.2-0.1,0.4-0.2,0.7-0.4
		c-0.4,0-0.7,0-0.9,0.1c-0.3,0.1-0.5,0.3-0.6,0.5c0.1,0.1,0.2,0.1,0.2,0c0,0,0-0.1,0-0.1C54.9,147.4,55.1,147.4,55.3,147.3z"/>
	<path class="may-be-censored-st2" d="M62.9,153c-0.5-0.1-0.9-0.4-1-0.7L54,131c-0.4-1-0.3-1.9,0.4-2.7c0.6-0.4,1.1-0.7,1.3-0.8l12.5-4.5
		c0.4,0,0.8,0.1,1.2,0.4c0.4,0.3,0.7,0.6,0.8,1c0.2,0.5,0.2,1.1-0.1,1.7c-0.3,0.5-0.8,0.9-1.4,1.2c-0.2,0.1-0.3,0.1-0.4,0.1
		c0.7-0.3,1.1-0.6,1.2-0.9c-1.3,0.7-2.7,1.2-4.1,1.8l-4.3,1.6c-0.8,0.3-1.6,0.6-2.2,0.9l-0.4,0.8c0.3,0.6,0.6,1.6,1.1,2.9
		c0.5,1.4,0.9,2.4,1.2,2.9l0.6,0.1c0.6-0.2,1.8-0.7,3.5-1.3c1.5-0.6,2.6-1,3.4-1.3c1.2-0.4,2.3-0.6,3.3-0.8c0.4,0.1,0.7,0.3,0.9,0.6
		c0.1,0.2,0.3,0.5,0.5,0.9c0.2,0.8-0.1,1.5-0.8,2l0.1-0.2l-0.1-0.1l-0.1,0.3l-3.4,1.4c-0.1-0.2-0.2-0.2-0.3-0.2c0,0-0.1,0.1-0.1,0.2
		c-0.4,0.2-1,0.4-1.8,0.6c-0.9,0.3-1.5,0.5-1.9,0.6c-0.8,0.3-1.5,0.7-2.2,1.2l-0.1,0.8l2.1,5.6l0.7,0.2l11.6-4.1
		c0.8,0,1.4,0.3,1.8,1.1c0.4,0.9,0.3,1.6-0.2,2.2c-0.1,0-0.2,0.1-0.4,0.3c-0.2,0.2-0.3,0.2-0.5,0.3c0.1-0.1,0.2-0.1,0.3-0.2
		l-0.2-0.1c-2.2,0.9-4.5,1.8-6.9,2.7c-2.4,0.9-4.6,1.7-6.8,2.5C63.8,153,63.4,153.1,62.9,153z M54.9,128.4c0.6-0.4,1.6-0.8,3-1.2
		c0.5-0.2,0.9-0.3,1.3-0.5c0.6-0.2,1.2-0.5,1.5-0.7l0,0.1l3.8-1.4c1.6-0.6,2.9-1,3.9-1.2l0.2-0.2l-0.5-0.1l-12.7,4.6L54.9,128.4z
		 M62.8,137.3l1.5-0.6L62.8,137.3L62.8,137.3z M64.8,136.6c2.8-0.9,4.6-1.5,5.3-1.8c0-0.1,0.1-0.1,0.1-0.1c0.1,0,0.2,0,0.4,0
		c0.2,0,0.3,0,0.3,0c0.1,0,0.1-0.1,0.1-0.2C70.1,134.6,68,135.4,64.8,136.6z M66,148.3c0.8-0.2,2.7-0.9,5.7-2
		c2.3-0.8,4.2-1.5,5.7-1.9c-1.1,0.2-2.4,0.5-3.8,1c-2.4,0.9-4.9,1.8-7.5,2.7L66,148.3z"/>
	<path class="may-be-censored-st2" d="M90.2,115.9l1.1,2.1l7.3,20.4c-0.2,1.2-0.6,2-1.3,2.2c-0.4,0.2-0.9,0.2-1.3,0.1l-2.6-1.8l-12.4-9.5
		c-0.2-0.1-0.4-0.2-0.5-0.1c-0.1,0-0.2,0.2-0.3,0.4l0.1,0.8l4.9,13.2c0,0.6-0.2,1.1-0.7,1.6l0.1-0.2c-0.2,0-0.7,0.2-1.5,0.5
		c-0.5,0.2-1,0.1-1.4-0.3l-1.5-3.4l-7-19.4c0-0.6,0.3-1.2,1.1-1.8c0.1-0.1,0.2-0.1,0.4-0.2c0.8-0.3,1.6-0.1,2.6,0.6L91,131.6
		c0.1,0,0.2,0,0.3,0c0.1,0,0.2-0.1,0.3-0.3l-0.1-1l-4.8-12.9c0.2-0.8,0.5-1.4,1.1-1.7C88.7,115.2,89.5,115.3,90.2,115.9z
		 M75.4,120.6c0,0,0.1,0,0.1,0c-0.1-0.1-0.4-0.1-1,0.1c-0.4,0.1-0.6,0.3-0.7,0.6c0.6-0.3,1.1-0.5,1.5-0.6
		C75.3,120.6,75.3,120.6,75.4,120.6z M88.1,115.7c-0.4,0.1-0.6,0.3-0.8,0.6l0.2,0.1c0.2-0.2,0.5-0.3,0.9-0.5c0.3-0.1,0.6-0.2,1-0.3
		C88.9,115.5,88.5,115.6,88.1,115.7z M97.4,140.6c0.1-0.1,0.2-0.2,0.3-0.4l-0.9,0.3C97.1,140.6,97.3,140.6,97.4,140.6z"/>
	<path class="may-be-censored-st2" d="M115.9,125.6c0.5,1.3,0.6,2.7,0.3,4.1c-0.3,1.4-1,2.6-2.1,3.6l-2.2,1.7l0.1-0.1c-0.5,0.3-1.2,0.6-2.1,0.9
		l-2.2,0.7c0.1,0,0.3,0,0.4,0c-3.1,0.7-5.7,0.2-7.9-1.4c-0.1-0.1-0.2-0.3-0.3-0.5c-0.2-0.4-0.1-0.9,0.1-1.6c0.3-0.6,0.6-0.9,1.1-1.1
		c0.5-0.2,1.2-0.1,2.1,0.3c1.1,0.4,1.9,0.6,2.3,0.6c1,0,1.9-0.2,2.9-0.5c1.3-0.5,2.4-1.2,3.1-2.2c0.6-1.1,0.9-1.9,0.8-2.3
		c0-0.1,0-0.3-0.1-0.4c-0.2-0.4-0.5-0.9-1-1.3l-1.6-0.5c-0.8-0.1-2.6-0.2-5.5-0.3c-2.5,0-4.3-0.3-5.5-0.7c-1.8-0.6-3.1-1.8-3.7-3.5
		c-0.2-0.5-0.3-1-0.4-1.7c-0.3-2.1,0.3-4,1.9-5.8c1.1-1.1,2.4-2,3.9-2.6c1.5-0.6,3.1-0.8,4.8-0.7c1.6,0.1,3.1,0.6,4.5,1.5
		c0.3,0.6,0.3,1.2,0.2,1.8c-0.3,0.6-0.8,0.9-1.2,1.1c-0.5,0.2-1.4,0.1-2.8-0.2c-1.4-0.3-2.4-0.4-2.9-0.1c-0.2,0.1-0.4,0.2-0.5,0.3
		c-0.2,0.1-0.4,0.1-0.6,0.2c-1.5,0.6-2.6,1.8-3.2,3.7c0,0.2,0.1,0.4,0.2,0.6c0.2,0.6,0.6,1,1.2,1.4c1.6,0.3,3.5,0.5,5.8,0.6
		c3.5,0.2,5.4,0.3,5.8,0.3C113.5,121.9,115,123.3,115.9,125.6z M100.7,111c-0.9,0.3-1.8,0.8-2.5,1.4c1.7-0.8,2.6-1.2,2.8-1.3
		c0.7-0.3,1.3-0.4,1.8-0.4c0-0.1,0-0.1,0-0.2c0.1,0,0.2,0,0.3,0c-0.1,0-0.2,0-0.3,0C102.1,110.5,101.4,110.7,100.7,111z M102,132.2
		l0.2-0.2c-0.2-0.1-0.5-0.1-0.8,0.1c-0.3,0.1-0.6,0.3-0.9,0.5c0.1,0.1,0.3,0.1,0.6-0.1c0.3-0.1,0.5-0.2,0.6-0.3
		C101.8,132.3,101.8,132.3,102,132.2z M103,114c-0.3,0.1-0.6,0.2-0.9,0.3s-0.5,0.2-0.7,0.3L103,114z M108.5,114.1
		c-0.3,0-0.5,0.1-0.7,0.3l0.3,0.1c0.5-0.1,0.9-0.4,1-0.6C109.1,114,108.8,114.1,108.5,114.1z M108.2,136.3c0.9-0.2,1.8-0.4,2.7-0.8
		C109.4,136.1,108.5,136.3,108.2,136.3z M109.2,132.2c0.1,0,0.2-0.1,0.3-0.3c0,0,0,0,0.1-0.1c0,0,0,0,0,0c0,0-0.2,0.1-0.5,0.3l0,0
		l-0.2,0.1c0.1,0,0.1,0,0.2-0.1C109.1,132.2,109.1,132.2,109.2,132.2z M111.7,135l0.2-0.1C111.9,135,111.8,135,111.7,135z"/>
	<path class="may-be-censored-st2" d="M118.7,103.9c0.1,0,0.2-0.1,0.4-0.1c-0.2,0.1-0.8,0.5-1.8,1.2c0.4-0.1,0.8-0.3,1.1-0.4
		c0.3-0.1,0.6-0.2,0.8-0.4l1.2,3.3c0,0-0.1,0-0.1,0c-0.1,0-0.2,0.2-0.3,0.4l-0.1,0c-1.3,1.5-1.8,2.8-1.7,3.8
		c0.4,1.9,1.1,3.8,1.9,5.9c1,2.6,1.8,4.5,2.3,5.8c0.4,0.7,1,1.2,1.9,1.5c0.9,0.4,1.7,0.5,2.5,0.4c0.7,1.4,1.2,2.6,1.4,3.4
		c-0.1,0-0.4,0.1-0.8,0.3c-0.3,0.1-0.5,0.2-0.7,0.4l0.7,0.1c-1.3,0.3-2.6,0.2-4-0.3c-1.3-0.4-2.5-1.1-3.5-2.1
		c-1.1-1.3-2.1-3.1-3-5.3c-0.3-0.7-0.7-2-1.2-3.7c-0.5-1.6-0.9-2.8-1.3-3.7c-0.6-1.6-0.7-3.3-0.1-5.2c0.6-1.8,1.5-3.3,2.9-4.4
		C118.3,104.1,118.8,103.8,118.7,103.9z M126.1,103.4c1.7,0.6,3.1,1.6,4.1,3c1.5,2.9,3,6.8,4.6,11.6c0.5,1.5,0.5,3,0,4.7
		c-0.5,1.6-1.3,2.9-2.4,4.1l-1.5,1.2l0.4-0.4c-0.2-0.1-0.3-0.1-0.5-0.1c-0.1,0-0.2,0.1-0.4,0.2c-0.2,0.1-0.3,0.2-0.3,0.2
		c-0.2-0.5-0.5-1.1-0.7-1.6c-0.2-0.6-0.4-1.2-0.6-1.7c1.3-1.1,2.1-2.4,2.2-3.7l-0.2-1.8l-3.9-10.4c-0.5-0.7-1.2-1.2-2.1-1.6
		s-1.7-0.5-2.5-0.3l-1.3-3.3c0.3,0,0.8-0.1,1.4-0.4c-0.1-0.2-0.4-0.2-1.1-0.1l-0.5,0.2l0-0.2C122.6,102.5,124.3,102.7,126.1,103.4z
		 M123.7,102.9c-0.1,0.1-0.3,0.1-0.8,0.1c0.1,0,0.2,0.1,0.3,0c0.1,0,0.3,0,0.3,0.1L123.7,102.9z"/>
	<path class="may-be-censored-st2" d="M142,123.2c-0.1,0.1-0.3,0.2-0.6,0.4c-0.2,0.2-0.4,0.4-0.5,0.4c-0.2,0.1-0.4,0-0.7-0.1l-1-0.8l-8.1-22.2
		c-0.2-0.7,0-1.3,0.8-1.9c1-0.5,1.8-0.9,2.4-1c-0.2,0.2-0.5,0.4-1.1,0.5c-0.6,0.2-0.9,0.4-1,0.7c0.2,0,0.5-0.1,0.9-0.3
		c0.4-0.2,0.7-0.3,1-0.3l0,0.1l0.4-0.2l8.4,23.3c0,0.9-0.3,1.5-1,2l-0.8,0.2c0.8-0.4,1.2-0.7,1.2-0.9
		C142.3,123.1,142.1,123.1,142,123.2z M155,116.6c0.4,0.8,0.3,1.6-0.4,2.4c-0.2,0.1-0.4,0.2-0.5,0.3c0.2-0.4,0.3-0.6,0.3-0.7
		c-0.1,0-0.2,0-0.4,0.1c-0.1,0-0.3,0.1-0.6,0.4c-0.1,0.1-0.2,0.1-0.4,0.2c-0.1,0-0.2,0.1-0.3,0.1c0,0.1,0.3,0.2,0.8,0.2
		c-0.3,0.2-0.8,0.2-1.2,0.1c-0.5-0.1-0.8-0.4-1-0.7l-7.3-7.7c-1.2-0.1-2-0.1-2.3,0c-0.1,0.1-0.3,0.1-0.4,0.2l-1.2-3.5l3.8-1.4
		c1.4-0.7,2.1-1.8,2.1-3.2c-0.1-0.5-0.2-0.9-0.3-1.3c-0.2-0.6-0.6-1.1-1-1.4c-1.1-0.8-2.5-0.9-4.1-0.3c0,0,0.1-0.1,0.1-0.1
		c-0.9,0.1-1.9,0.4-3,0.9l-1.3-3.7c0.6-0.3,1.2-0.5,1.7-0.7c4.2-1.6,7.5-1.2,9.8,1.2c0.7,0.7,1.2,1.5,1.6,2.5c0.7,1.9,0.7,3.9,0,5.9
		c-0.1,0.3-0.4,0.8-1,1.5c-0.5,0.6-0.6,1.1-0.5,1.5c0,0.1,0.1,0.2,0.2,0.3L155,116.6z M137.5,97.3c0.3-0.1,0.6-0.2,0.8-0.4l-1.9,0.6
		l0.1,0.2C136.7,97.6,137,97.5,137.5,97.3z M140.9,95.9l-2,0.6l-0.2,0.2L140.9,95.9z M141.6,107.8c0.4-0.2,0.8-0.4,1-0.6
		c-0.5,0.2-1,0.4-1.4,0.6c-0.4,0.1-0.7,0.2-1,0.3C140.7,108,141.2,107.9,141.6,107.8z"/>
	<path class="may-be-censored-st2" d="M154.8,94.4l2.3,7.8l-1.7,0.6l-3.3-7.4L154.8,94.4z"/>
	<path class="may-be-censored-st2" d="M165.8,113.5l-1.1-2.2l-7.1-20c-0.3-0.9,0-1.8,1-2.5c0.1,0,0.4-0.1,1.1-0.4c0.4-0.2,0.8-0.2,1.1-0.2l-1.4,0.5
		c-0.6,0.2-0.9,0.5-1.1,0.9c0.4-0.1,0.8-0.2,1.1-0.4c0.3-0.1,0.6-0.2,0.8-0.3l0.9-0.3l8.8,24.3c-0.1,0-0.2,0-0.3,0.1
		c-0.1,0.1-0.3,0.1-0.4,0.3l-1.8,0.7c0.1,0,0.2,0.1,0.3,0.1C166.9,114.2,166.3,114,165.8,113.5z M175.9,111.1c-0.1,0-0.2,0-0.3,0
		c-0.1,0-0.2,0-0.2,0c-0.1,0-0.1,0.1-0.1,0.3c-1.6,0.5-2.8,0.8-3.6,1.1l-1.1-3c0.4-0.2,1-0.5,1.9-0.9c0.9-0.4,1.5-0.6,1.9-0.9
		c-0.4,0-0.8,0-1,0.2c-0.3,0.1-1.2,0.5-2.8,1.2c-0.1-0.1,0-0.3,0.1-0.4c0.1-0.1,0.2-0.1,0.4-0.1c0.3-0.1,0.7-0.2,1.3-0.4
		c0.6-0.2,1-0.3,1.3-0.4c1.9-0.7,2.9-1.8,3-3.2l-0.1-1.7l-4.2-11.1c-0.7-1.2-1.9-1.9-3.7-2l-1.2,0.4c0.1,0,0.1-0.1,0.1-0.1l-1.8,0.6
		c-0.8,0.3-1.4,0.4-1.7,0.6c-0.3-0.3-0.5-0.8-0.7-1.4c-0.3-0.9-0.4-1.5-0.5-1.7c0.6-0.3,1.2-0.6,1.8-0.8c0.6-0.2,1.2-0.4,1.9-0.5
		c0.1,0,0.2-0.1,0.3-0.2c0.2-0.1,0.3-0.2,0.3-0.3l-0.3-0.1l-4.1,1.5c0.7-0.4,1.3-0.7,1.8-0.9c3.7-1.3,6.4-1.3,8.2-0.1
		c1.9,1,3.5,3.1,4.6,6.1c0.3,0.8,0.7,2.1,1.2,3.8c0.5,1.7,0.9,3,1.2,3.8c0.2,0.6,0.4,1.1,0.6,1.5c0.4,1.3,0.4,2.7,0,4
		c-0.4,1.4-1.1,2.6-2,3.6c-1,0.8-1.6,1.2-1.8,1.2c-0.2,0.1-0.4,0.1-0.6,0.1C176.1,111,176,111.1,175.9,111.1z M167.9,85.9l-0.5,0
		l-0.1,0.2L167.9,85.9z M167.6,114.1c0.2,0,0.5,0,0.7-0.1C168.1,114.1,167.8,114.1,167.6,114.1z"/>
</g>
<g>
</g>
<g>
</g>
<g>
</g>
<g>
</g>
<g>
</g>
<g>
</g>
<g>
</g>
<g>
</g>
<g>
</g>
<g>
</g>
<g>
</g>
<g>
</g>
<g>
</g>
<g>
</g>
<g>
</g>
</svg>
