<svg version="1.1" id="other-language-button" xmlns="http://www.w3.org/2000/svg" xmlns:xlink="http://www.w3.org/1999/xlink" x="0px" y="0px"
	 viewBox="0 0 200 200" style="enable-background:new 0 0 200 200;" xml:space="preserve">
<style type="text/css">
	.other-language-st0{fill:none;stroke:#2E3191;stroke-width:2.7;stroke-miterlimit:10;}
	.other-language-st1{fill:#2E3191;}
</style>
<circle class="other-language-st0" cx="100.2" cy="99.7" r="94.9"/>
<g>
	<g>
		<path class="other-language-st1" d="M38,81.5c0.1,0,0.3-0.1,0.4-0.1c-0.2,0.1-0.9,0.5-2,1.4c0.5-0.2,0.9-0.3,1.3-0.4c0.4-0.1,0.7-0.3,0.9-0.4
			l1.4,3.7c0,0-0.1,0-0.1,0c-0.1,0.1-0.3,0.2-0.4,0.5l-0.1,0c-1.4,1.7-2.1,3.1-2,4.2c0.5,2.1,1.2,4.3,2.1,6.6c1.1,2.9,2,5,2.6,6.5
			c0.5,0.7,1.2,1.3,2.1,1.7c1,0.4,1.9,0.6,2.8,0.5c0.8,1.6,1.3,2.9,1.6,3.8c-0.1,0.1-0.4,0.1-0.9,0.3c-0.4,0.1-0.6,0.2-0.7,0.4
			l0.8,0.1c-1.4,0.3-2.9,0.2-4.5-0.4c-1.5-0.5-2.8-1.3-3.9-2.3c-1.3-1.5-2.4-3.5-3.3-5.9c-0.3-0.8-0.8-2.2-1.4-4.1
			c-0.6-1.8-1-3.2-1.4-4.1c-0.7-1.8-0.7-3.7-0.1-5.8c0.6-2.1,1.7-3.7,3.3-5C37.6,81.7,38.1,81.4,38,81.5z M46.3,80.9
			c1.9,0.7,3.4,1.8,4.6,3.4c1.7,3.3,3.4,7.7,5.1,13.1c0.5,1.7,0.6,3.4,0,5.3c-0.5,1.8-1.4,3.3-2.7,4.6l-1.7,1.4l0.4-0.4
			c-0.2-0.1-0.4-0.1-0.6-0.1c-0.1,0-0.2,0.1-0.4,0.3c-0.2,0.1-0.3,0.2-0.3,0.2c-0.3-0.6-0.5-1.2-0.8-1.8c-0.2-0.7-0.5-1.3-0.6-1.9
			c1.5-1.3,2.3-2.7,2.5-4.1l-0.2-2l-4.4-11.6c-0.6-0.7-1.3-1.3-2.3-1.8c-1-0.5-1.9-0.6-2.8-0.4l-1.4-3.8c0.3,0,0.9-0.1,1.6-0.4
			c-0.1-0.2-0.5-0.3-1.2-0.2l-0.5,0.2l0-0.3C42.3,80,44.3,80.1,46.3,80.9z M43.6,80.4c-0.1,0.1-0.4,0.1-0.9,0.2
			c0.1,0.1,0.2,0.1,0.4,0c0.2,0,0.3,0,0.4,0.1L43.6,80.4z"/>
		<path class="other-language-st1" d="M72.6,70c0.4,0.6,0.6,1.3,0.4,2.2c-0.3,0.8-1.2,1.5-2.7,2c0.8-0.3,1.4-0.6,1.8-0.9l0-0.3
			c-2.2,0.8-4,1.6-5.1,2.2c0,0.1,0,0.2-0.2,0.4c-0.2,0.2-0.3,0.4-0.2,0.6l8,22.1c-0.1,1-0.5,1.6-1.2,2c-0.1,0.1-0.3,0.2-0.4,0.3
			c-0.2,0.1-0.8,0.1-1.6-0.1c-0.6-0.2-1.2-0.9-1.6-2.1L62.2,78c-0.2-0.3-0.6-0.5-1.1-0.4l0.1,0L61,77.4l-2.7,0.8
			c-1,0.3-1.8,0.6-2.5,1c0.5,0,1.2-0.1,2-0.4c0.9-0.4,1.5-0.6,1.9-0.6l-2.9,1.1c-1.1,0.4-2.1,0.2-2.8-0.6c-0.1-0.2-0.2-0.3-0.2-0.5
			c-0.4-1-0.2-1.8,0.5-2.6c2.1-1,7.4-3.1,15.9-6.2C71.4,69.3,72.1,69.5,72.6,70z M64,72.1c2.2-0.8,4.6-1.6,7-2.4l-0.6,0l-13.1,4.9
			c-1.8,0.7-2.9,1.3-3,1.8c0.7-0.5,1.2-0.9,1.7-1.1c0.1,0.1,0.2,0.1,0.2,0.1c0.1-0.1,0.2-0.2,0.3-0.2c0.1-0.1,0.3-0.1,0.3,0
			C59.4,73.9,61.7,72.9,64,72.1z M69.1,74.6c0.3-0.1,0.6-0.2,1.1-0.4c-1,0.3-1.6,0.6-1.8,0.7C68.6,74.8,68.8,74.7,69.1,74.6z
			 M73,100.4c0.3-0.1,0.5-0.2,0.6-0.4l0.1-0.1l-0.1,0.1c-0.1,0.1-0.2,0.2-0.4,0.2c-0.3,0.1-0.8,0.2-1.4,0.3l0.2,0.2
			C72.4,100.6,72.8,100.5,73,100.4z"/>
		<path class="other-language-st1" d="M87,93.9l-0.7-1l-8.8-24.3c-0.1-0.9,0.2-1.6,0.9-2.2c0.2-0.2,0.4-0.3,0.6-0.4c1-0.4,1.9-0.2,2.7,0.7l3.5,9.7
			c0.2,0.5,0.7,0.6,1.3,0.5l6.5-2.5l0.2-0.7l-3.5-9.6c-0.1-0.5,0-1,0.3-1.5c0.3-0.5,0.7-0.8,1.2-1c0.7-0.3,1.3-0.2,2,0.2l1,0.8
			l8.1,22.3c0,0.3,0.2,1,0.5,2c0.3,0.8,0.3,1.5,0.1,2c-0.3,0.3-0.5,0.6-0.8,0.7c0,0,0-0.1,0-0.1c-0.6,0.1-1.2,0.3-1.7,0.4
			c-0.7,0-1.2-0.2-1.5-0.8l-3.8-10c-0.8-0.4-1.5-0.3-2.3,0l-5.3,2.1l-0.4,1.1l3.5,9.4c0.1,0.4,0.1,0.8-0.1,1.2
			c-0.2,0.5-0.4,0.8-0.7,1l-0.5,0.2l0.2-0.1c-0.1-0.1-0.3-0.1-0.6,0c-0.1,0-0.2,0.1-0.4,0.2l-0.1,0.1l0.4,0
			C88.5,94.8,87.8,94.6,87,93.9z M79.6,66.2c-0.3,0.1-0.5,0.1-0.6,0.1c-0.3,0.1-0.4,0.3-0.4,0.5c0.9-0.2,1.5-0.4,1.9-0.5L80.3,66
			C80.1,66.1,79.9,66.1,79.6,66.2z M87.7,76.7c0.2-0.1,1.1-0.4,2.5-1c0.8-0.3,1.3-0.5,1.4-0.6c-0.1,0-0.3,0.1-0.6,0.2
			c-0.3,0.1-0.6,0.3-0.8,0.3C88.9,76.3,88.1,76.6,87.7,76.7z M91.6,61.8c-0.4,0.1-0.7,0.4-1,0.7c0.1,0.1,0.3,0.1,0.4,0
			c0.1,0,0.2-0.1,0.4-0.3c0.2-0.1,0.3-0.2,0.5-0.3c0.1,0.1,0.3,0.1,0.5,0c0.2-0.1,0.4-0.1,0.6,0c0-0.1-0.1-0.1-0.2-0.1
			C92.4,61.6,92.1,61.6,91.6,61.8z M101.9,89.8c-0.1,0.1-0.3,0.1-0.4,0.1C101.5,89.9,101.7,89.8,101.9,89.8z M101.9,89.8
			c0.1,0,0.2-0.1,0.4-0.1C102.2,89.7,102,89.7,101.9,89.8z"/>
		<path class="other-language-st1" d="M109.1,86.4c-0.6-0.1-1-0.4-1.1-0.8l-8.8-23.9c-0.4-1.2-0.3-2.2,0.5-3c0.7-0.5,1.2-0.8,1.5-0.9l14.1-5
			c0.5,0,0.9,0.1,1.4,0.4c0.5,0.3,0.8,0.7,0.9,1.1c0.2,0.6,0.2,1.2-0.1,1.9c-0.3,0.6-0.9,1-1.6,1.3c-0.2,0.1-0.4,0.1-0.5,0.1
			c0.8-0.3,1.3-0.6,1.4-1c-1.4,0.7-3,1.4-4.6,2l-4.8,1.8c-0.9,0.4-1.8,0.7-2.5,1l-0.4,0.9c0.3,0.7,0.7,1.8,1.2,3.3
			c0.5,1.6,1,2.6,1.3,3.3l0.7,0.1c0.7-0.3,2-0.8,3.9-1.5c1.7-0.7,2.9-1.2,3.8-1.4c1.4-0.4,2.6-0.7,3.7-0.9c0.4,0.1,0.8,0.3,1,0.6
			c0.2,0.2,0.4,0.6,0.6,1.1c0.2,1-0.1,1.7-0.9,2.3l0.1-0.2l-0.1-0.1l-0.2,0.3l-3.9,1.6c-0.1-0.2-0.2-0.3-0.3-0.2
			c0,0-0.1,0.1-0.2,0.2c-0.5,0.2-1.2,0.5-2,0.7c-1,0.3-1.7,0.5-2.1,0.7c-0.9,0.3-1.7,0.8-2.4,1.4l-0.1,0.9l2.4,6.3l0.8,0.2l13.1-4.6
			c0.9,0,1.6,0.4,2.1,1.2c0.4,1,0.3,1.8-0.2,2.5c-0.1,0-0.2,0.1-0.4,0.3s-0.4,0.3-0.5,0.3c0.1-0.1,0.2-0.1,0.3-0.2l-0.2-0.1
			c-2.5,1-5.1,2-7.7,3c-2.6,1-5.2,1.9-7.6,2.8C110.2,86.4,109.7,86.5,109.1,86.4z M100.1,58.8c0.7-0.4,1.8-0.9,3.3-1.4
			c0.6-0.2,1.1-0.4,1.5-0.5c0.7-0.3,1.3-0.5,1.7-0.8l0,0.1l4.3-1.6c1.8-0.6,3.3-1.1,4.4-1.3l0.2-0.3L115,53l-14.3,5.2L100.1,58.8z
			 M109.1,68.8l1.7-0.7L109.1,68.8L109.1,68.8z M111.3,67.9c3.2-1.1,5.1-1.7,6-2c0-0.1,0.1-0.1,0.2-0.1c0.1,0,0.2-0.1,0.4,0
			c0.2,0,0.3,0,0.4,0c0.1,0,0.1-0.1,0.1-0.2C117.3,65.8,114.9,66.6,111.3,67.9z M112.6,81.1c0.9-0.3,3-1,6.4-2.3
			c2.6-0.9,4.7-1.6,6.4-2.1c-1.3,0.2-2.7,0.6-4.3,1.2c-2.7,1-5.5,2-8.4,3.1L112.6,81.1z"/>
		<path class="other-language-st1" d="M134.9,76.6c-0.2,0.1-0.4,0.2-0.6,0.5c-0.3,0.3-0.5,0.4-0.6,0.5c-0.2,0.1-0.5,0-0.8-0.1l-1.1-0.9l-9.1-25
			c-0.3-0.7,0-1.5,0.9-2.2c1.2-0.6,2.1-1,2.7-1.1c-0.2,0.2-0.6,0.4-1.2,0.6c-0.6,0.2-1,0.5-1.1,0.8c0.2,0,0.5-0.1,1-0.4
			c0.4-0.2,0.8-0.3,1.1-0.3l0,0.1l0.5-0.2l9.5,26.2c0,1-0.4,1.7-1.1,2.2l-0.9,0.2c0.9-0.4,1.3-0.8,1.3-1.1
			C135.2,76.5,135,76.5,134.9,76.6z M149.4,69.2c0.5,0.8,0.3,1.8-0.4,2.7c-0.3,0.1-0.4,0.2-0.5,0.3c0.2-0.4,0.3-0.7,0.4-0.8
			c-0.1,0-0.3,0-0.4,0.1c-0.1,0-0.3,0.2-0.6,0.4c-0.1,0.1-0.3,0.1-0.4,0.2c-0.1,0-0.2,0.1-0.3,0.1c0,0.2,0.3,0.2,0.9,0.2
			c-0.4,0.2-0.9,0.2-1.4,0.1c-0.6-0.1-0.9-0.4-1.2-0.8l-8.3-8.6c-1.4-0.2-2.3-0.2-2.6,0c-0.2,0.1-0.3,0.1-0.4,0.2l-1.3-3.9l4.2-1.6
			c1.6-0.8,2.4-2,2.3-3.6c-0.1-0.6-0.2-1-0.3-1.4c-0.3-0.7-0.7-1.2-1.2-1.6c-1.3-0.9-2.8-1-4.6-0.4c0,0,0.1-0.1,0.1-0.1
			c-1,0.1-2.1,0.5-3.3,1l-1.4-4.1c0.7-0.3,1.3-0.6,1.9-0.8c4.7-1.8,8.4-1.3,11.1,1.4c0.8,0.8,1.4,1.7,1.8,2.8c0.8,2.1,0.8,4.3,0,6.6
			c-0.1,0.3-0.4,0.9-1.1,1.7c-0.5,0.6-0.7,1.2-0.5,1.7c0,0.1,0.1,0.2,0.2,0.3L149.4,69.2z M129.8,47.5c0.3-0.1,0.6-0.3,1-0.5
			l-2.1,0.6l0.2,0.2C128.9,47.8,129.2,47.7,129.8,47.5z M133.6,46l-2.2,0.7l-0.3,0.3L133.6,46z M134.4,59.3c0.5-0.2,0.9-0.4,1.2-0.7
			c-0.6,0.2-1.1,0.5-1.5,0.6c-0.4,0.2-0.8,0.3-1.1,0.4C133.4,59.6,133.9,59.5,134.4,59.3z"/>
	</g>
</g>
<g>
	<g>
		<path class="other-language-st1" d="M40.4,152.7c0.1,0.2,0.3,0.3,0.6,0.3l0.7-0.1l7.2-2.5c0.7,0,1.2,0.3,1.5,0.6c0.1,0.1,0.1,0.3,0.2,0.4
			c0.3,0.9,0.2,1.5-0.3,1.9l-0.2,0.1l0.1-0.1c-0.2,0-0.4,0.1-0.7,0.2c-0.1,0.1-0.4,0.2-0.7,0.3c-0.3,0.1-0.5,0.2-0.7,0.3
			c-0.4,0.1-0.7,0.2-0.9,0.2l-0.1,0.2l-0.2-0.1c-0.1,0.1-0.3,0.2-0.4,0.3c0,0-0.2,0-0.5,0.1c-0.2,0-0.4,0.1-0.5,0.2
			c-0.5,0.2-1.3,0.5-2.3,0.8c-1,0.3-1.8,0.6-2.3,0.9l0.4-0.1l-2,0.7c-0.8-0.2-1.2-0.4-1.4-0.8l-7.2-19.9c0-0.5,0.2-1,0.8-1.5
			c0.9-0.4,1.7-0.3,2.4,0.3L40.4,152.7z M31.4,135.5c-0.1,0.1-0.1,0.2-0.1,0.3c0.1-0.2,0.3-0.3,0.5-0.4c0.1,0,0.1,0,0.3-0.1
			s0.2,0,0.3-0.1c0.1,0,0.2-0.1,0.3-0.2c-0.1-0.1-0.3-0.1-0.5,0c-0.2,0.1-0.3,0.1-0.4,0.2c-0.1,0-0.1,0.1-0.1,0
			C31.6,135.4,31.5,135.4,31.4,135.5z M40.3,157.1c0.2-0.1,0.4-0.2,0.6-0.3l-1.2,0.3C39.9,157.2,40.1,157.2,40.3,157.1z M41.9,156.6
			l-0.5,0l8.5-3.1L41.9,156.6z M41.5,153.2c1-0.3,2.3-0.7,4-1.3c1.8-0.7,3.1-1.1,4-1.4c-0.9,0.1-2.1,0.5-3.5,1
			c-1.7,0.7-2.9,1.1-3.5,1.2L41.5,153.2z"/>
		<path class="other-language-st1" d="M56.6,127.5l12.9,16.6c0.2,0.6,0.2,1.2,0,1.7c-0.3,0.2-0.6,0.4-0.8,0.6l0.1-0.1c-0.1-0.1-0.3-0.1-0.5,0
			c-0.1,0-0.2,0.1-0.3,0.2c-0.1,0-0.1,0-0.1,0l0.1,0.2c-0.8-0.1-1.6-0.7-2.3-1.7c-1-1.4-1.6-2.2-1.8-2.4c-0.4-0.2-0.9-0.2-1.4-0.1
			l-1.2,0.3l-1-2.9c0.1,0,0.1,0,0.2,0c0.1,0,0.2-0.1,0.2-0.3L60,140c0.6-0.3,0.9-0.6,0.9-0.9c-0.8-1.2-2.1-2.9-3.9-5.1
			c-1.8-2.2-3.1-3.9-3.8-5.1c-0.1-0.4-0.1-0.8,0.1-1.2c0.1,0.1,0.3,0.1,0.4,0.1c0.1,0,0.2-0.1,0.3-0.2c0.1-0.1,0.2-0.1,0.3-0.2
			c0.1,0,0.2-0.1,0.3,0c0,0,0.1,0,0.2-0.2c0.1-0.1,0.2-0.2,0.2-0.2c0.1,0,0.2,0,0.2,0.1l0.1-0.3c0,0-0.1-0.1-0.2-0.1
			c0.2,0.1,0.4,0.1,0.6,0.2L56.6,127.5z M55,151.2c-0.4-0.2-0.7-0.5-0.9-0.9c-0.1-0.3-0.2-0.6-0.2-1c-0.1-0.6-0.1-1-0.1-1l-0.5-15.5
			l0.4,0l3.4,4.2l0.2,3.4c0.2,0.3,0.5,0.4,0.9,0.4l0.3-0.1c0.3,0.7,0.5,1.2,0.7,1.7c0.3,0.8,0.5,1.4,0.5,1.6c0,0.1-0.1,0.1-0.3,0.2
			c0.1-0.1,0.2-0.2,0.3-0.2c-0.3,0-0.5,0-0.7,0.1c-0.2,0.1-0.6,0.3-1.2,0.8c-0.1,0.7-0.2,1.6-0.1,2.8c0.1,1.3,0,2.3-0.1,2.9
			l-0.3,0.3c0,0,0-0.1,0-0.1c-0.1,0-0.7,0.2-1.5,0.5c0.1,0.2,0.5,0.2,1,0C56.4,151.2,55.8,151.2,55,151.2z M53.9,126.7
			c0.3-0.1,0.7-0.1,1.1,0c-0.4,0.1-0.7,0.1-0.9,0.2l-0.4,0.2c-0.2,0.1-0.3,0.2-0.3,0.3C53.3,127.3,53.5,127.1,53.9,126.7z M55,126.7
			c0.1,0,0.1,0,0.2,0C55.1,126.7,55,126.7,55,126.7z M56.8,151l0.3-0.3C57,150.8,56.9,150.9,56.8,151z M59.3,144
			c0,0-0.1,0.1-0.1,0.1C59.2,144.1,59.2,144,59.3,144z"/>
		<path class="other-language-st1" d="M81,117.7l0.9,1.9l6.5,18c-0.2,1.1-0.5,1.7-1.1,2c-0.4,0.1-0.8,0.2-1.2,0.1l-2.3-1.6l-11-8.4
			c-0.2-0.1-0.3-0.2-0.4-0.1c-0.1,0-0.2,0.1-0.2,0.3l0.1,0.7l4.4,11.6c0,0.5-0.2,1-0.7,1.4l0.1-0.2c-0.1,0-0.6,0.2-1.3,0.5
			c-0.5,0.2-0.9,0.1-1.3-0.3l-1.3-3L66,123.4c0-0.5,0.3-1.1,0.9-1.6c0.1-0.1,0.2-0.1,0.3-0.2c0.7-0.3,1.5-0.1,2.3,0.5l12.2,9.3
			c0.1,0,0.2,0,0.2,0c0.1,0,0.2-0.1,0.3-0.3l-0.1-0.9L77.9,119c0.2-0.7,0.5-1.2,0.9-1.5C79.7,117.1,80.4,117.1,81,117.7z M68,121.8
			c0,0,0.1,0,0.1,0c0-0.1-0.4-0.1-0.9,0.1c-0.4,0.1-0.6,0.3-0.6,0.5c0.6-0.3,1-0.5,1.3-0.5C67.9,121.9,67.9,121.8,68,121.8z
			 M79.2,117.5c-0.3,0.1-0.6,0.3-0.7,0.5l0.2,0.1c0.2-0.1,0.4-0.3,0.8-0.4c0.3-0.1,0.6-0.2,0.9-0.3
			C79.9,117.4,79.5,117.4,79.2,117.5z M87.4,139.5c0.1,0,0.2-0.2,0.3-0.4l-0.8,0.3C87.1,139.5,87.3,139.6,87.4,139.5z"/>
		<path class="other-language-st1" d="M104.2,121.2c0,0,0.3,0.4,0.8,1.2c0.1,0.3,0.2,0.5,0.3,0.8c0.6,1.7,0.8,3.4,0.6,5c-0.3,1.7-1,3.2-2.2,4.5
			c-1.1,0.9-1.8,1.4-2.1,1.5c-0.1,0.1-0.3,0.1-0.4,0.1l0.2,0.1c-2.4,0.7-4.4,0.9-6,0.5c-2.6-0.6-4.5-2.6-5.8-6
			c-0.2-0.6-0.5-1.5-0.9-2.7c-0.4-1.2-0.7-2.1-0.9-2.7c-0.2-0.5-0.4-1-0.6-1.5c-0.3-1.5-0.2-3.1,0.4-4.8c0.8-2.4,2.4-4.1,4.9-5
			c1.5-0.6,3-0.7,4.5-0.4s2.8,1,4,2.1c0.4,0.4,0.6,0.9,0.5,1.7c-0.1,0.5-0.3,0.8-0.7,0.9c-0.1,0-0.3,0.1-0.5,0.1
			c-0.2,0-0.4,0.1-0.5,0.1c-0.2,0.1-0.3,0.1-0.4,0.3l0.1,0c-0.3,0-0.9-0.3-1.8-0.8c-1.3-0.7-2.6-0.9-3.8-0.4c-0.7,0.3-1.2,0.6-1.6,1
			c-1.4,1.6-1.6,3.6-0.7,6c0.2,0.5,0.5,1.2,1,2.2c0.5,1,0.8,1.7,1,2.2c0.2,0.5,0.3,1,0.4,1.4c0.7,1.2,1.5,2,2.6,2.3
			c1.2,0.2,2.3,0.1,3.3-0.2s1.8-1.1,2.3-2.2c0.5-1.1,0.6-2.1,0.2-3.1c-0.1-0.1-0.1-0.3-0.2-0.4c-0.4-0.2-0.8-0.3-1.4-0.1
			c-0.1,0.1-0.4,0.1-0.6,0.3c-0.3,0.1-0.5,0.2-0.6,0.3c-0.3,0.1-0.6,0.2-0.9,0.2c-0.8-0.2-1.3-0.5-1.5-1c-0.2-0.6-0.1-1.4,0.5-2.2
			c0.4-0.2,1-0.5,1.8-0.8c1-0.4,2.3-0.8,3.9-1.3C103.5,120.5,103.8,120.7,104.2,121.2z M92.3,112.5c-0.7,0.3-1.3,0.6-1.7,1
			c1.5-0.7,2.7-1.2,3.7-1.5C93.5,112.1,92.9,112.2,92.3,112.5z M100.6,121.7c0.3-0.1,0.6-0.2,0.9-0.4c0.8-0.2,1.3-0.4,1.6-0.6
			l-4.7,1.5c-0.5,0.3-0.8,0.5-0.8,0.6l2.3-0.9C100,121.9,100.3,121.8,100.6,121.7z M99.6,125.5c0.6-0.3,1-0.5,1.3-0.6l-2.7,0.9
			C98.6,125.8,99.1,125.7,99.6,125.5z"/>
		<path class="other-language-st1" d="M117.4,102.9c0.5-0.2,1.1-0.1,1.8,0.4l0.6,0.9l5.2,14.5c0.3,1.4,0.1,2.9-0.6,4.4c-0.7,1.5-1.6,2.7-2.9,3.5
			c-0.1-0.1-0.2-0.1-0.3-0.1c0,0-0.1,0.1-0.3,0.2c-0.1,0-0.1,0.1-0.2,0.1c-0.1,0-0.1,0-0.2,0l-2.1,0.8l0.2,0.1
			c-1.4,0.4-2.8,0.4-4.4-0.2c-1.6-0.6-2.8-1.4-3.7-2.6l-1.3-2.2l-4.7-13.1c-0.2-0.6-0.2-1.1,0.1-1.6c0-0.1,0.2-0.3,0.7-0.7
			c0.7-0.4,1.5-0.3,2.2,0.3c0.4,0.9,0.8,2,1.2,3.2l2.8,7.4c0.6,1.7,1.1,3,1.5,4.1c0.5,0.7,1.1,1.3,2,1.7s1.8,0.5,2.6,0.4
			c1-0.3,1.8-0.8,2.5-1.5c0.7-0.7,1.1-1.6,1.1-2.6l-0.5-2.4l-4.7-13.1c0-0.7,0.3-1.2,0.9-1.6C117.1,103,117.3,102.9,117.4,102.9z
			 M106.7,107.5c-0.4-0.2-0.8-0.2-1,0c-0.1,0.1-0.3,0.2-0.5,0.3c-0.2,0.1-0.3,0.3-0.3,0.5C105.6,108,106.3,107.7,106.7,107.5z
			 M117.1,103.6c0.5-0.2,0.9-0.4,1.3-0.5c-0.4-0.1-0.7-0.1-1,0c-0.7,0.3-1,0.7-0.8,1C116.7,103.9,116.9,103.8,117.1,103.6z
			 M118.9,124.3l-0.5,0.1c-0.2,0.1-0.3,0.1-0.3,0.2L118.9,124.3z M119.2,124.2c0.2,0,0.3-0.1,0.3-0.2l-0.7,0.2
			C119,124.2,119.1,124.2,119.2,124.2z"/>
		<path class="other-language-st1" d="M132.8,98.9l12.9,16.6c0.2,0.6,0.2,1.2,0,1.7c-0.3,0.2-0.6,0.4-0.8,0.6l0.1-0.1c-0.1-0.1-0.3-0.1-0.5,0
			c-0.1,0-0.2,0.1-0.3,0.2c-0.1,0-0.1,0-0.1,0l0.1,0.2c-0.8-0.1-1.6-0.7-2.3-1.7c-1-1.4-1.6-2.2-1.8-2.4c-0.4-0.2-0.9-0.2-1.4-0.1
			l-1.2,0.3l-1-2.9c0.1,0,0.1,0,0.2,0c0.1,0,0.2-0.1,0.2-0.3l-0.5,0.1c0.6-0.3,0.9-0.6,0.9-0.9c-0.8-1.2-2.1-2.9-3.9-5.1
			c-1.8-2.2-3.1-3.9-3.8-5.1c-0.1-0.4-0.1-0.8,0.1-1.2c0.1,0.1,0.3,0.1,0.4,0.1c0.1,0,0.2-0.1,0.3-0.2s0.2-0.1,0.3-0.2
			c0.1,0,0.2-0.1,0.3,0c0,0,0.1,0,0.2-0.2c0.1-0.1,0.2-0.2,0.2-0.2c0.1,0,0.2,0,0.2,0.1l0.1-0.3c0,0-0.1-0.1-0.2-0.1
			c0.2,0.1,0.4,0.1,0.6,0.2L132.8,98.9z M131.2,122.5c-0.4-0.2-0.7-0.5-0.9-0.9c-0.1-0.3-0.2-0.6-0.2-1c-0.1-0.6-0.1-1-0.1-1
			l-0.5-15.5l0.4,0l3.4,4.2l0.2,3.4c0.2,0.3,0.5,0.4,0.9,0.4l0.3-0.1c0.3,0.7,0.5,1.2,0.7,1.7c0.3,0.8,0.5,1.4,0.5,1.6
			c0,0.1-0.1,0.1-0.3,0.2c0.1-0.1,0.2-0.2,0.3-0.2c-0.3,0-0.5,0-0.7,0.1c-0.2,0.1-0.6,0.3-1.2,0.8c-0.1,0.7-0.2,1.6-0.1,2.8
			c0.1,1.3,0,2.3-0.1,2.9l-0.3,0.3c0,0,0-0.1,0-0.1c-0.1,0-0.7,0.2-1.5,0.5c0.1,0.2,0.5,0.2,1,0C132.5,122.6,132,122.6,131.2,122.5z
			 M130.1,98.1c0.3-0.1,0.7-0.1,1.1,0c-0.4,0.1-0.7,0.1-0.9,0.2l-0.4,0.2c-0.2,0.1-0.3,0.2-0.3,0.3
			C129.5,98.7,129.7,98.4,130.1,98.1z M131.2,98c0.1,0,0.1,0,0.2,0C131.3,98,131.2,98,131.2,98z M133,122.4l0.3-0.3
			C133.2,122.2,133.1,122.3,133,122.4z M135.5,115.4c0,0-0.1,0.1-0.1,0.1C135.4,115.4,135.4,115.4,135.5,115.4z"/>
		<path class="other-language-st1" d="M161.3,99.7c0,0,0.3,0.4,0.8,1.2c0.1,0.3,0.2,0.5,0.3,0.8c0.6,1.7,0.8,3.4,0.6,5c-0.3,1.7-1,3.2-2.2,4.5
			c-1.1,0.9-1.8,1.4-2.1,1.5c-0.1,0.1-0.3,0.1-0.4,0.1l0.2,0.1c-2.4,0.7-4.4,0.9-6,0.5c-2.6-0.6-4.5-2.6-5.8-6
			c-0.2-0.6-0.5-1.5-0.9-2.7c-0.4-1.2-0.7-2.1-0.9-2.7c-0.2-0.5-0.4-1-0.6-1.5c-0.3-1.5-0.2-3.1,0.4-4.8c0.8-2.4,2.4-4.1,4.9-5
			c1.5-0.6,3-0.7,4.5-0.4c1.5,0.3,2.8,1,4,2.1c0.4,0.4,0.6,0.9,0.5,1.7c-0.1,0.5-0.3,0.8-0.7,0.9c-0.1,0-0.3,0.1-0.5,0.1
			c-0.2,0-0.4,0.1-0.5,0.1c-0.2,0.1-0.3,0.1-0.4,0.3l0.1,0c-0.3,0-0.9-0.3-1.8-0.8c-1.3-0.7-2.6-0.9-3.8-0.4c-0.7,0.3-1.2,0.6-1.6,1
			c-1.4,1.6-1.6,3.6-0.7,6c0.2,0.5,0.5,1.2,1,2.2c0.5,1,0.8,1.7,1,2.2c0.2,0.5,0.3,1,0.4,1.4c0.7,1.2,1.5,2,2.6,2.3
			c1.2,0.2,2.3,0.1,3.3-0.2s1.8-1.1,2.3-2.2c0.5-1.1,0.6-2.1,0.2-3.1c-0.1-0.1-0.1-0.3-0.2-0.4c-0.4-0.2-0.8-0.3-1.4-0.1
			c-0.1,0.1-0.4,0.1-0.6,0.3c-0.3,0.1-0.5,0.2-0.6,0.3c-0.3,0.1-0.6,0.2-0.9,0.2c-0.8-0.2-1.3-0.5-1.5-1c-0.2-0.6-0.1-1.4,0.5-2.2
			c0.4-0.2,1-0.5,1.8-0.8c1-0.4,2.3-0.8,3.9-1.3C160.6,99,161,99.3,161.3,99.7z M149.4,91c-0.7,0.3-1.3,0.6-1.7,1
			c1.5-0.7,2.7-1.2,3.7-1.5C150.7,90.6,150,90.8,149.4,91z M157.7,100.2c0.3-0.1,0.6-0.2,0.9-0.4c0.8-0.2,1.3-0.4,1.6-0.6l-4.7,1.5
			c-0.5,0.3-0.8,0.5-0.8,0.6l2.3-0.9C157.2,100.4,157.4,100.3,157.7,100.2z M156.7,104c0.6-0.3,1-0.5,1.3-0.6l-2.7,0.9
			C155.7,104.3,156.2,104.2,156.7,104z"/>
		<path class="other-language-st1" d="M169.6,108.1c-0.5-0.1-0.8-0.3-0.9-0.6l-6.9-18.8c-0.3-0.9-0.2-1.7,0.4-2.4c0.5-0.4,0.9-0.6,1.2-0.7l11.1-3.9
			c0.4,0,0.7,0.1,1.1,0.3c0.4,0.2,0.6,0.5,0.7,0.9c0.2,0.5,0.2,1-0.1,1.5c-0.3,0.5-0.7,0.8-1.2,1c-0.1,0.1-0.3,0.1-0.4,0.1
			c0.6-0.2,1-0.5,1.1-0.8c-1.1,0.6-2.3,1.1-3.6,1.6l-3.8,1.4c-0.7,0.3-1.4,0.5-2,0.8l-0.3,0.7c0.2,0.5,0.5,1.4,0.9,2.6
			c0.4,1.2,0.8,2.1,1.1,2.6l0.5,0.1c0.6-0.2,1.6-0.6,3.1-1.2c1.3-0.5,2.3-0.9,3-1.1c1.1-0.3,2-0.6,2.9-0.7c0.3,0.1,0.6,0.2,0.8,0.5
			c0.1,0.2,0.3,0.4,0.5,0.8c0.1,0.8-0.1,1.4-0.7,1.8l0.1-0.2l-0.1-0.1l-0.1,0.3l-3,1.2c-0.1-0.1-0.1-0.2-0.2-0.2
			c0,0-0.1,0.1-0.1,0.2c-0.4,0.2-0.9,0.4-1.6,0.6c-0.8,0.2-1.4,0.4-1.7,0.5c-0.7,0.3-1.4,0.6-1.9,1.1l-0.1,0.7l1.8,4.9l0.6,0.2
			l10.3-3.6c0.7,0,1.2,0.3,1.6,1c0.3,0.8,0.3,1.4-0.2,1.9c-0.1,0-0.2,0.1-0.3,0.3c-0.2,0.1-0.3,0.2-0.4,0.2c0.1-0.1,0.2-0.1,0.2-0.1
			l-0.2-0.1c-2,0.8-4,1.6-6.1,2.3c-2.1,0.8-4.1,1.5-6,2.2C170.4,108.2,170,108.2,169.6,108.1z M162.5,86.4c0.6-0.3,1.4-0.7,2.6-1.1
			c0.4-0.1,0.8-0.3,1.2-0.4c0.6-0.2,1-0.4,1.3-0.6l0,0.1l3.3-1.2c1.4-0.5,2.6-0.9,3.5-1.1l0.1-0.2l-0.4-0.1L163,86L162.5,86.4z
			 M169.5,94.3l1.4-0.5L169.5,94.3L169.5,94.3z M171.2,93.6c2.5-0.8,4-1.4,4.7-1.6c0-0.1,0.1-0.1,0.1-0.1c0.1,0,0.2,0,0.4,0
			c0.2,0,0.3,0,0.3,0c0.1,0,0.1-0.1,0.1-0.2C176,91.9,174.1,92.6,171.2,93.6z M172.3,104c0.7-0.2,2.4-0.8,5-1.8c2-0.7,3.7-1.3,5-1.7
			c-1,0.2-2.1,0.5-3.4,0.9c-2.1,0.8-4.3,1.6-6.6,2.4L172.3,104z"/>
	</g>
</g>
<g>
</g>
<g>
</g>
<g>
</g>
<g>
</g>
<g>
</g>
<g>
</g>
<g>
</g>
<g>
</g>
<g>
</g>
<g>
</g>
<g>
</g>
<g>
</g>
<g>
</g>
<g>
</g>
<g>
</g>
</svg>
