<svg version="1.1" id="chinese-button" xmlns="http://www.w3.org/2000/svg" xmlns:xlink="http://www.w3.org/1999/xlink" x="0px" y="0px"
	 viewBox="0 0 200 200" style="enable-background:new 0 0 200 200;" xml:space="preserve">
<style type="text/css">
	.chinese-st0{fill:none;stroke:#EB2027;stroke-width:2.7;stroke-miterlimit:10;}
	.chinese-st1{fill:none;}
	.chinese-st2{fill:#EB2027;}
</style>
<circle class="chinese-st0" cx="99.5" cy="100.1" r="94.9"/>
<g>
	<line class="chinese-st1" x1="-121.5" y1="201.3" x2="204.3" y2="78.9"/>
	<path class="chinese-st2" d="M49.3,128.6c0.6,1.5,0.4,3.2-0.5,5.2c-0.8,1.8-1.9,3.2-3.2,4.2c-0.3,0.3-0.8,0.6-1.5,0.9
		c-0.8,0.3-1.3,0.6-1.5,0.8c-1.5,0.5-3,0.6-4.6,0.4c-4.1-0.5-7.2-3.3-9.1-8.5c-0.3-0.8-0.7-1.9-1.2-3.4c-0.5-1.5-0.9-2.6-1.1-3.4
		c-0.2-0.6-0.5-1.2-0.7-1.7c-0.3-1.7-0.2-3.4,0.3-5.2s1.4-3.2,2.6-4.3c1-1.1,2.3-1.9,3.9-2.5c3.3-1.3,6.6-0.7,9.9,1.6
		c0.5,0.4,0.9,0.9,1.2,1.6c0.4,0.9,0.1,1.8-0.8,2.5c-0.2-0.2-0.5-0.2-0.7,0c-0.1,0.1-0.1,0.2-0.1,0.2c0,0.1,0.1,0.1,0.3,0.1
		c-0.8,0.3-1.9,0.1-3.2-0.7c-1.4-0.9-2.5-1.3-3.2-1.1c-0.2,0.1-0.5,0.1-0.9,0.1c-0.4,0-0.7,0-0.9,0.1c-0.2,0.1-0.3,0.1-0.5,0.3
		c0-0.1,0-0.1-0.1-0.2c-0.7,0.8-1.3,1.3-1.8,1.7c-1.5,1.9-1.6,4.5-0.4,7.8c0.3,0.7,0.7,1.8,1.4,3.2c0.7,1.4,1.1,2.5,1.4,3.2
		c0.2,0.7,0.4,1.2,0.5,1.7c0.8,1,1.8,1.6,3,2.1s2.4,0.4,3.5,0c0.9-0.3,1.7-0.9,2.4-1.7c0.7-0.5,1.2-1.6,1.4-3.4
		c0.2-1.6,0.6-2.5,1.4-2.8c0.3-0.1,0.8-0.2,1.3-0.2C48.5,127.5,49.1,127.9,49.3,128.6z M30.2,112.9l0.2-0.4c0,0,0.1-0.1,0.1-0.1
		c0.1,0,0.2,0,0.3,0c0,0,0.1-0.1,0.2-0.1c0.1-0.1,0.2-0.1,0.2-0.1c0.1,0,0.2,0,0.3,0c0.5-0.3,1-0.6,1.6-0.8l1.7-0.5
		c-1.4,0.2-2.4,0.4-3,0.6c-0.7,0.4-1.1,0.6-1.3,0.8l0,0l0,0.1C30.3,112.7,30.2,112.8,30.2,112.9z M46.8,127.9
		c0.2-0.1,0.5-0.2,0.7-0.4c-0.4,0-0.8,0-1,0.1c-0.3,0.1-0.5,0.3-0.7,0.6c0.1,0.1,0.2,0.1,0.2,0c0,0,0-0.1,0-0.1
		C46.2,128,46.5,128,46.8,127.9z"/>
	<path class="chinese-st2" d="M56.4,133l-0.7-1L47,107.7c-0.1-0.9,0.2-1.6,0.9-2.2c0.2-0.2,0.4-0.3,0.6-0.4c1-0.4,1.9-0.2,2.7,0.7l3.5,9.7
		c0.2,0.5,0.7,0.6,1.3,0.5l6.5-2.5l0.2-0.7l-3.5-9.6c-0.1-0.5,0-1,0.3-1.5c0.3-0.5,0.7-0.8,1.2-1c0.7-0.3,1.3-0.2,2,0.2l1,0.8
		l8.1,22.3c0,0.3,0.2,1,0.5,2c0.3,0.8,0.3,1.5,0.1,2c-0.3,0.3-0.5,0.6-0.8,0.7c0,0,0-0.1,0-0.1c-0.6,0.1-1.2,0.3-1.7,0.4
		c-0.7,0-1.2-0.2-1.5-0.8l-3.8-10c-0.8-0.4-1.5-0.3-2.3,0l-5.3,2.1l-0.4,1.1l3.5,9.4c0.1,0.4,0.1,0.8-0.1,1.2
		c-0.2,0.5-0.4,0.8-0.7,1l-0.5,0.2l0.2-0.1c-0.1-0.1-0.3-0.1-0.6,0c-0.1,0-0.2,0.1-0.4,0.2l-0.1,0.1l0.4,0
		C57.9,133.9,57.2,133.7,56.4,133z M49,105.3c-0.3,0.1-0.5,0.1-0.6,0.1c-0.3,0.1-0.4,0.3-0.4,0.5c0.9-0.2,1.5-0.4,1.9-0.5l-0.2-0.3
		C49.5,105.2,49.3,105.3,49,105.3z M57.1,115.9c0.2-0.1,1.1-0.4,2.5-1c0.8-0.3,1.3-0.5,1.4-0.6c-0.1,0-0.3,0.1-0.6,0.2
		s-0.6,0.3-0.8,0.3C58.3,115.4,57.5,115.7,57.1,115.9z M61,100.9c-0.4,0.1-0.7,0.4-1,0.7c0.1,0.1,0.3,0.1,0.4,0
		c0.1,0,0.2-0.1,0.4-0.3c0.2-0.1,0.3-0.2,0.5-0.3c0.1,0.1,0.3,0.1,0.5,0c0.2-0.1,0.4-0.1,0.6,0c0-0.1-0.1-0.1-0.2-0.1
		C61.8,100.8,61.4,100.8,61,100.9z M71.2,128.9c-0.1,0.1-0.3,0.1-0.4,0.1C70.9,129,71,129,71.2,128.9z M71.2,128.9
		c0.1,0,0.2-0.1,0.4-0.1C71.5,128.8,71.4,128.9,71.2,128.9z"/>
	<path class="chinese-st2" d="M77.5,124.9l-9.2-25.1c-0.1-0.6,0.2-1.5,0.9-2.4c0.1-0.1,0.3-0.1,0.4-0.2c0.5-0.2,1.2-0.1,2.1,0.2l0.8,0.9
		l9.1,25.1c0.1,0.8-0.2,1.5-0.9,2l-0.5,0.2c0.4-0.2,0.6-0.3,0.7-0.6c-0.2,0-0.4,0.1-0.6,0.3c-0.2,0.2-0.4,0.2-0.5,0.2l-0.1,0.4
		C78.8,125.9,78.1,125.6,77.5,124.9z M70,97.3c-0.3,0.1-0.7,0.4-1,0.7c0.1,0,0.2,0,0.3,0c0.3-0.1,0.6-0.2,0.8-0.2l0.9-0.3
		C70.7,97.2,70.4,97.1,70,97.3z"/>
	<path class="chinese-st2" d="M95.7,88.9l1.2,2.4l8.3,22.9c-0.2,1.4-0.7,2.2-1.5,2.5c-0.5,0.2-1,0.2-1.5,0.1l-3-2l-14-10.7
		c-0.2-0.2-0.4-0.2-0.5-0.2c-0.1,0-0.2,0.2-0.3,0.4l0.1,0.9l5.6,14.8c0,0.7-0.2,1.3-0.8,1.8l0.1-0.2c-0.2,0-0.7,0.2-1.7,0.6
		c-0.6,0.3-1.1,0.1-1.6-0.4l-1.7-3.9l-7.8-21.8c0-0.7,0.4-1.4,1.2-2c0.1-0.1,0.3-0.1,0.4-0.2c0.9-0.3,1.9-0.1,2.9,0.7l15.6,11.9
		c0.1,0,0.2,0,0.3,0c0.1-0.1,0.3-0.2,0.4-0.3l-0.1-1.1l-5.4-14.5c0.2-0.9,0.6-1.6,1.2-1.9C94,88.1,94.9,88.2,95.7,88.9z M79.1,94.2
		c0,0,0.1,0,0.2,0c-0.1-0.2-0.4-0.1-1.2,0.2c-0.4,0.2-0.7,0.4-0.8,0.7c0.7-0.3,1.2-0.6,1.6-0.7C78.9,94.2,79,94.2,79.1,94.2z
		 M93.3,88.7c-0.4,0.2-0.7,0.4-0.9,0.7l0.2,0.1c0.2-0.2,0.5-0.4,1-0.5c0.3-0.1,0.7-0.2,1.2-0.4C94.2,88.5,93.8,88.5,93.3,88.7z
		 M103.8,116.7c0.2-0.1,0.3-0.2,0.3-0.5l-1,0.4C103.4,116.7,103.6,116.7,103.8,116.7z"/>
	<path class="chinese-st2" d="M111.1,113.2c-0.6-0.1-1-0.4-1.1-0.8l-8.8-23.9c-0.4-1.2-0.3-2.2,0.4-3c0.7-0.5,1.2-0.8,1.5-0.9l14.1-5
		c0.5,0,0.9,0.1,1.4,0.4s0.8,0.7,0.9,1.1c0.2,0.6,0.2,1.2-0.1,1.9c-0.3,0.6-0.9,1-1.6,1.3c-0.2,0.1-0.4,0.1-0.5,0.1
		c0.8-0.3,1.3-0.6,1.4-1c-1.4,0.7-3,1.4-4.6,2l-4.8,1.8c-0.9,0.4-1.8,0.7-2.5,1l-0.4,0.9c0.3,0.7,0.7,1.8,1.2,3.3
		c0.5,1.6,1,2.6,1.3,3.3l0.7,0.1c0.7-0.3,2-0.8,3.9-1.5c1.7-0.7,2.9-1.2,3.8-1.4c1.4-0.4,2.6-0.7,3.7-0.9c0.4,0.1,0.8,0.3,1.1,0.7
		c0.2,0.2,0.4,0.6,0.6,1.1c0.2,1-0.1,1.7-0.9,2.3l0.1-0.2l-0.1-0.1l-0.2,0.3l-3.9,1.6c-0.1-0.2-0.2-0.3-0.3-0.2c0,0-0.1,0.1-0.1,0.3
		c-0.5,0.2-1.2,0.4-2,0.7c-1,0.3-1.7,0.5-2.1,0.6c-0.9,0.3-1.7,0.8-2.4,1.4l-0.1,0.9l2.4,6.3l0.8,0.2l13.1-4.6
		c0.9,0,1.6,0.4,2.1,1.2c0.4,1,0.3,1.8-0.2,2.5c-0.1,0-0.2,0.1-0.4,0.3s-0.4,0.3-0.5,0.3c0.1-0.1,0.2-0.1,0.3-0.2l-0.2-0.1
		c-2.5,1-5.1,2-7.7,3c-2.6,1-5.2,1.9-7.6,2.8C112.2,113.3,111.7,113.4,111.1,113.2z M102.1,85.7c0.7-0.4,1.8-0.9,3.3-1.4
		c0.6-0.2,1.1-0.4,1.5-0.5c0.7-0.3,1.3-0.5,1.7-0.8l0,0.1l4.3-1.6c1.8-0.6,3.3-1.1,4.4-1.3l0.2-0.3l-0.5-0.1l-14.3,5.2L102.1,85.7z
		 M111,95.7l1.7-0.7L111,95.7L111,95.7z M113.2,94.8c3.2-1.1,5.1-1.7,6-2c0-0.1,0.1-0.1,0.2-0.1c0.1,0,0.2-0.1,0.4,0
		c0.2,0,0.3,0,0.4,0c0.1,0,0.1-0.1,0.1-0.2C119.2,92.7,116.9,93.5,113.2,94.8z M114.6,108.1c0.9-0.3,3-1,6.4-2.3
		c2.6-0.9,4.7-1.7,6.3-2.1c-1.3,0.2-2.7,0.6-4.3,1.2c-2.7,1-5.5,2-8.4,3.1L114.6,108.1z"/>
	<path class="chinese-st2" d="M150.2,90.1c0.6,1.5,0.7,3,0.3,4.6c-0.4,1.6-1.1,2.9-2.3,4l-2.4,1.9l0.1-0.1c-0.6,0.3-1.4,0.7-2.3,1l-2.4,0.7
		c0.1,0,0.3,0,0.5,0c-3.5,0.7-6.4,0.2-8.8-1.6c-0.1-0.1-0.2-0.3-0.3-0.5c-0.2-0.5-0.2-1.1,0.1-1.8c0.3-0.6,0.7-1,1.2-1.2
		c0.5-0.2,1.3-0.1,2.4,0.3c1.3,0.5,2.2,0.7,2.6,0.7c1.1,0,2.2-0.2,3.2-0.6c1.5-0.6,2.7-1.4,3.5-2.5c0.7-1.3,1-2.1,0.9-2.6
		c0-0.2,0-0.3-0.1-0.5c-0.2-0.5-0.6-1-1.1-1.5l-1.8-0.6c-0.9-0.2-2.9-0.3-6.2-0.3c-2.8,0-4.8-0.3-6.2-0.8c-2-0.7-3.4-2-4.2-4
		c-0.2-0.5-0.4-1.1-0.5-1.9c-0.4-2.4,0.3-4.5,2.1-6.5c1.2-1.3,2.7-2.2,4.4-2.9c1.7-0.6,3.5-0.9,5.3-0.8c1.8,0.1,3.5,0.7,5,1.7
		c0.3,0.6,0.4,1.3,0.2,2c-0.4,0.6-0.8,1-1.4,1.2c-0.5,0.2-1.6,0.1-3.1-0.2s-2.6-0.4-3.3-0.2c-0.2,0.1-0.4,0.2-0.6,0.3
		c-0.2,0.1-0.5,0.1-0.7,0.2c-1.7,0.6-2.9,2-3.6,4.2c0,0.3,0.1,0.5,0.2,0.7c0.2,0.6,0.7,1.2,1.3,1.6c1.8,0.3,4,0.6,6.5,0.7
		c3.9,0.2,6.1,0.4,6.5,0.4C147.6,86,149.3,87.5,150.2,90.1z M133.2,73.7c-1,0.4-2,0.9-2.8,1.6c1.9-0.9,2.9-1.4,3.1-1.4
		c0.8-0.3,1.4-0.4,2-0.5c0-0.1,0-0.2,0-0.2c0.1,0,0.2,0,0.3,0c-0.1,0-0.2,0-0.3,0C134.7,73.2,134,73.4,133.2,73.7z M134.6,97.6
		l0.3-0.3c-0.3-0.1-0.6-0.1-0.9,0.1c-0.3,0.1-0.7,0.3-1,0.6c0.1,0.1,0.4,0.1,0.7-0.1c0.3-0.2,0.5-0.3,0.7-0.3
		C134.4,97.7,134.5,97.7,134.6,97.6z M135.7,77.1c-0.4,0.1-0.7,0.2-1,0.3c-0.3,0.1-0.6,0.2-0.8,0.4L135.7,77.1z M141.9,77.3
		c-0.4,0.1-0.6,0.2-0.8,0.3l0.3,0.2c0.6-0.2,1-0.4,1.2-0.7C142.6,77.1,142.3,77.2,141.9,77.3z M141.6,102.2c1-0.2,2-0.5,3-0.9
		C143,101.9,142,102.2,141.6,102.2z M142.7,97.6c0.1,0,0.2-0.1,0.4-0.3c0,0,0,0,0.1-0.1c0,0,0,0,0,0c0,0-0.2,0.1-0.5,0.3l0,0
		l-0.2,0.1c0.1,0,0.2,0,0.3-0.1C142.7,97.6,142.7,97.6,142.7,97.6z M145.6,100.8l0.2-0.1C145.8,100.7,145.7,100.7,145.6,100.8z"/>
	<path class="chinese-st2" d="M158.2,95.5c-0.6-0.1-1-0.4-1.1-0.8l-8.8-23.9c-0.4-1.2-0.3-2.2,0.5-3c0.7-0.5,1.2-0.8,1.5-0.9l14.1-5
		c0.5,0,0.9,0.1,1.4,0.4c0.5,0.3,0.8,0.7,0.9,1.1c0.2,0.6,0.2,1.2-0.1,1.9c-0.3,0.6-0.9,1-1.6,1.3c-0.2,0.1-0.4,0.1-0.5,0.1
		c0.8-0.3,1.3-0.6,1.4-1c-1.4,0.7-3,1.4-4.6,2l-4.8,1.8c-0.9,0.4-1.8,0.7-2.5,1l-0.4,0.9c0.3,0.7,0.7,1.8,1.2,3.3
		c0.5,1.6,1,2.6,1.3,3.3l0.7,0.1c0.7-0.3,2-0.8,3.9-1.5c1.7-0.7,2.9-1.2,3.8-1.4c1.4-0.4,2.6-0.7,3.7-0.9c0.4,0.1,0.8,0.3,1.1,0.7
		c0.2,0.2,0.4,0.6,0.6,1.1c0.2,1-0.1,1.7-0.9,2.3l0.1-0.2l-0.1-0.1l-0.2,0.3l-3.9,1.6c-0.1-0.2-0.2-0.3-0.3-0.2c0,0-0.1,0.1-0.1,0.3
		c-0.5,0.2-1.2,0.4-2,0.7c-1,0.3-1.7,0.5-2.1,0.6c-0.9,0.3-1.7,0.8-2.4,1.4l-0.1,0.9l2.4,6.3l0.8,0.2l13.1-4.6
		c0.9,0,1.6,0.4,2.1,1.2c0.4,1,0.3,1.8-0.2,2.5c-0.1,0-0.2,0.1-0.4,0.3s-0.4,0.3-0.5,0.3c0.1-0.1,0.2-0.1,0.3-0.2l-0.2-0.1
		c-2.5,1-5.1,2-7.7,3c-2.6,1-5.2,1.9-7.6,2.8C159.3,95.6,158.8,95.7,158.2,95.5z M149.3,67.9c0.7-0.4,1.8-0.9,3.3-1.4
		c0.6-0.2,1.1-0.4,1.5-0.5c0.7-0.3,1.3-0.5,1.7-0.8l0,0.1l4.3-1.6c1.8-0.6,3.3-1.1,4.4-1.3l0.2-0.3l-0.5-0.1l-14.3,5.2L149.3,67.9z
		 M158.2,78l1.7-0.7L158.2,78L158.2,78z M160.4,77.1c3.2-1.1,5.1-1.7,6-2c0-0.1,0.1-0.1,0.2-0.1c0.1,0,0.2-0.1,0.4,0
		c0.2,0,0.3,0,0.4,0c0.1,0,0.1-0.1,0.1-0.2C166.4,74.9,164,75.8,160.4,77.1z M161.7,90.3c0.9-0.3,3-1,6.4-2.3
		c2.6-0.9,4.7-1.7,6.3-2.1c-1.3,0.2-2.7,0.6-4.3,1.2c-2.7,1-5.5,2-8.4,3.1L161.7,90.3z"/>
</g>
<g>
</g>
<g>
</g>
<g>
</g>
<g>
</g>
<g>
</g>
<g>
</g>
<g>
</g>
<g>
</g>
<g>
</g>
<g>
</g>
<g>
</g>
<g>
</g>
<g>
</g>
<g>
</g>
<g>
</g>
</svg>
