<svg version="1.1" id="st-polten-st-polten-button" xmlns="http://www.w3.org/2000/svg" xmlns:xlink="http://www.w3.org/1999/xlink" x="0px" y="0px"
	 viewBox="0 0 200 200" style="enable-background:new 0 0 200 200;" xml:space="preserve">
<style type="text/css">
	.st-polten-st0{fill:none;stroke:#2E3191;stroke-width:2.7;stroke-miterlimit:10;}
	.st-polten-st1{fill:#EB2027;}
	.st-polten-st2{fill:none;stroke:#EB2027;stroke-width:2.7;stroke-miterlimit:10;}
</style>
<circle class="st-polten-st0" cx="99.3" cy="101" r="94.9"/>
<g>
	<g>
		<path class="st-polten-st1" d="M48.5,127.5c0.4,1.2,0.5,2.4,0.2,3.6c-0.3,1.2-0.9,2.3-1.8,3.2l-1.9,1.5l0.1-0.1c-0.5,0.3-1.1,0.5-1.8,0.8
			l-1.9,0.6c0.1,0,0.2,0,0.4,0c-2.7,0.6-5,0.2-6.9-1.3c-0.1-0.1-0.2-0.2-0.3-0.4c-0.1-0.4-0.1-0.8,0.1-1.4c0.3-0.5,0.6-0.8,0.9-1
			c0.4-0.2,1-0.1,1.9,0.2c1,0.4,1.7,0.6,2.1,0.6c0.8,0,1.7-0.2,2.5-0.5c1.2-0.4,2.1-1.1,2.8-2c0.5-1,0.8-1.7,0.7-2.1
			c0-0.1,0-0.3-0.1-0.4c-0.1-0.4-0.4-0.8-0.9-1.2l-1.4-0.5c-0.7-0.1-2.3-0.2-4.8-0.2c-2.2,0-3.8-0.2-4.9-0.6
			c-1.6-0.6-2.7-1.6-3.3-3.1c-0.2-0.4-0.3-0.9-0.4-1.5c-0.3-1.9,0.3-3.6,1.7-5.1c0.9-1,2.1-1.8,3.5-2.3c1.4-0.5,2.8-0.7,4.2-0.6
			c1.4,0.1,2.8,0.5,3.9,1.3c0.3,0.5,0.3,1,0.1,1.6c-0.3,0.5-0.7,0.8-1.1,1c-0.4,0.2-1.2,0.1-2.4-0.2c-1.2-0.3-2.1-0.3-2.6-0.1
			c-0.2,0.1-0.3,0.1-0.5,0.2c-0.2,0-0.4,0.1-0.5,0.2c-1.4,0.5-2.3,1.6-2.8,3.3c0,0.2,0.1,0.4,0.1,0.5c0.2,0.5,0.5,0.9,1,1.3
			c1.4,0.3,3.1,0.4,5.1,0.6c3.1,0.2,4.8,0.3,5.1,0.3C46.4,124.2,47.7,125.4,48.5,127.5z M35.1,114.6c-0.8,0.3-1.6,0.7-2.2,1.3
			c1.5-0.7,2.3-1.1,2.4-1.1c0.6-0.2,1.1-0.3,1.5-0.4c0-0.1,0-0.1,0-0.2c0.1,0,0.2,0,0.2,0c-0.1,0-0.2,0-0.2,0
			C36.3,114.2,35.7,114.3,35.1,114.6z M36.2,133.4l0.2-0.2c-0.2-0.1-0.4-0.1-0.7,0c-0.2,0.1-0.5,0.2-0.8,0.5
			c0.1,0.1,0.3,0.1,0.5-0.1c0.2-0.1,0.4-0.2,0.6-0.3C36,133.4,36.1,133.4,36.2,133.4z M37.1,117.2c-0.3,0.1-0.6,0.1-0.8,0.2
			c-0.2,0.1-0.4,0.2-0.6,0.3L37.1,117.2z M41.9,117.4c-0.3,0-0.5,0.1-0.6,0.3l0.3,0.1c0.5-0.1,0.8-0.3,0.9-0.6
			C42.5,117.2,42.3,117.3,41.9,117.4z M41.7,137c0.8-0.2,1.5-0.4,2.3-0.7C42.8,136.7,42,137,41.7,137z M42.6,133.3
			c0.1,0,0.2-0.1,0.3-0.2c0,0,0,0,0,0c0,0,0,0,0,0C42.9,133.1,42.8,133.1,42.6,133.3l-0.1,0l-0.2,0.1
			C42.3,133.3,42.4,133.3,42.6,133.3C42.5,133.3,42.5,133.3,42.6,133.3z M44.8,135.8l0.2-0.1C44.9,135.8,44.9,135.8,44.8,135.8z"/>
		<path class="st-polten-st1" d="M59.9,106.2c0.3,0.4,0.4,1,0.3,1.7c-0.2,0.7-1,1.2-2.2,1.5c0.6-0.2,1.1-0.5,1.4-0.7l0-0.2
			c-1.8,0.7-3.1,1.2-4,1.7c0,0,0,0.2-0.2,0.3c-0.2,0.2-0.2,0.3-0.2,0.5l6.3,17.4c-0.1,0.8-0.4,1.3-0.9,1.5c-0.1,0.1-0.2,0.2-0.3,0.2
			c-0.2,0.1-0.6,0-1.3-0.1c-0.5-0.1-0.9-0.7-1.3-1.6l-5.9-16.1c-0.2-0.3-0.5-0.4-0.9-0.3l0.1,0l-0.1-0.2l-2.1,0.6
			c-0.8,0.2-1.4,0.5-2,0.8c0.4,0,0.9-0.1,1.6-0.3c0.7-0.3,1.2-0.4,1.5-0.5l-2.3,0.9c-0.9,0.3-1.6,0.1-2.2-0.5
			c-0.1-0.1-0.1-0.3-0.2-0.4c-0.3-0.8-0.2-1.5,0.4-2c1.6-0.8,5.8-2.4,12.5-4.9C58.9,105.6,59.5,105.8,59.9,106.2z M53.1,107.8
			c1.7-0.7,3.6-1.3,5.5-1.9l-0.5,0l-10.3,3.9c-1.4,0.5-2.2,1-2.4,1.4c0.5-0.4,1-0.7,1.3-0.9c0.1,0.1,0.1,0.1,0.2,0.1
			c0.1-0.1,0.2-0.1,0.2-0.2c0.1-0.1,0.2-0.1,0.3,0C49.5,109.2,51.4,108.4,53.1,107.8z M57.2,109.8c0.2-0.1,0.5-0.2,0.8-0.3
			c-0.7,0.3-1.2,0.4-1.4,0.5C56.8,109.9,56.9,109.9,57.2,109.8z M60.2,130c0.2-0.1,0.4-0.2,0.5-0.3l0.1-0.1l-0.1,0.1
			c-0.1,0.1-0.2,0.1-0.3,0.2c-0.3,0.1-0.6,0.2-1.1,0.2l0.2,0.1C59.8,130.2,60,130.1,60.2,130z"/>
		<path class="st-polten-st1" d="M70.8,124.6c-0.4-1,0-2,1-2.4c1-0.4,1.9,0.1,2.3,1.1c0.4,1,0,2-1,2.4C72.1,126.1,71.2,125.6,70.8,124.6z"/>
		<path class="st-polten-st1" d="M79,123c0-0.1-0.2-0.2-0.4-0.1c-0.1,0-0.3,0.1-0.4,0.2c-0.1,0-0.1,0-0.2,0.1c-0.1,0.1-0.1,0.1,0,0.2
			c-0.6,0-1.1-0.3-1.6-0.9l-7.1-19.9c0.2-0.7,0.6-1.3,1.2-1.6c0.9-0.4,1.6-0.3,2,0.2l7.3,20.1C80,121.8,79.7,122.4,79,123z
			 M71,101.3c0.3-0.1,0.6-0.3,0.8-0.5c-0.5,0.1-0.9,0.2-1.1,0.3c-0.3,0.1-0.5,0.3-0.6,0.4C70.4,101.5,70.7,101.4,71,101.3z M82.9,99
			c1.3,0.8,2.2,1.9,2.7,3.4c0.3,0.9,0.5,1.7,0.4,2.6c-0.1,1.2-0.4,2.2-1,3.2c-0.6,1.1-1.4,1.9-2.4,2.3c-0.4,0.3-1,0.6-1.8,0.9
			c0.5-0.2,0.9-0.5,1.3-0.7c-0.6,0.2-1,0.3-1,0.3c-1.5,0.5-2.4,0.9-2.9,1l-1.1-3.1c1.5-0.6,2.6-1,3.3-1.3c1.2-0.5,1.9-1.4,1.9-2.7
			c0-0.4,0-0.7-0.2-1c-0.3-0.8-0.8-1.3-1.5-1.7c-0.7-0.3-1.4-0.4-2.3-0.2c-1.3,0.4-2.3,0.7-2.9,0.9l2.9-1.1c0-0.1-0.1-0.1-0.2-0.1
			c-0.2,0-0.3,0-0.4,0.1l-2.8,1c-0.2-0.2-0.4-0.7-0.6-1.2c-0.2-0.8-0.4-1.3-0.4-1.5c0.4-0.1,1.1-0.4,2-0.8c0.8-0.3,1.5-0.6,2.1-0.7
			l-0.1-0.2c-1.9,0.6-3.3,1.1-4.2,1.4c0.2-0.2,0.5-0.3,1-0.5c0.5-0.2,0.8-0.3,1-0.4C78.7,97.8,81,97.8,82.9,99z M78.2,108.8
			c0.5-0.2,1.1-0.4,1.8-0.8c-0.2,0.1-0.5,0.2-0.9,0.3c-0.5,0.1-0.8,0.2-1,0.3c-0.4,0.1-0.6,0.3-0.8,0.5
			C77.6,109,77.9,108.9,78.2,108.8z M78.4,123.3l0.6-0.3c-0.1,0.1-0.2,0.2-0.4,0.3L78.4,123.3z M78.9,111.9c0.5-0.1,0.8-0.2,1.1-0.3
			L78.9,111.9z M80,111.6c0.3-0.1,0.6-0.2,0.9-0.3C80.6,111.4,80.3,111.5,80,111.6z"/>
		<path class="st-polten-st1" d="M91.8,92.9c0.1,0,0.2-0.1,0.3-0.1c-0.2,0.1-0.7,0.4-1.6,1.1c0.4-0.1,0.7-0.2,1-0.3s0.5-0.2,0.7-0.3l1.1,2.9
			c0,0-0.1,0-0.1,0c-0.1,0-0.2,0.2-0.3,0.4l-0.1,0c-1.1,1.3-1.6,2.4-1.5,3.3c0.4,1.7,0.9,3.4,1.6,5.2c0.9,2.3,1.6,4,2,5.1
			c0.4,0.6,0.9,1,1.7,1.3c0.8,0.3,1.5,0.4,2.2,0.4c0.6,1.3,1,2.3,1.3,3c-0.1,0-0.3,0.1-0.7,0.2c-0.3,0.1-0.5,0.2-0.6,0.3l0.6,0.1
			c-1.1,0.2-2.3,0.1-3.5-0.3c-1.1-0.4-2.2-1-3.1-1.8c-1-1.2-1.9-2.7-2.6-4.7c-0.2-0.6-0.6-1.7-1.1-3.2c-0.4-1.4-0.8-2.5-1.1-3.2
			c-0.6-1.4-0.6-2.9-0.1-4.6c0.5-1.6,1.3-2.9,2.6-3.9C91.5,93.2,91.9,92.9,91.8,92.9z M98.3,92.5c1.5,0.6,2.7,1.5,3.6,2.7
			c1.3,2.6,2.6,6,4,10.3c0.4,1.3,0.4,2.7,0,4.1c-0.4,1.4-1.1,2.6-2.1,3.6l-1.4,1.1l0.3-0.3c-0.1-0.1-0.3-0.1-0.5,0
			c-0.1,0-0.2,0.1-0.3,0.2c-0.1,0.1-0.2,0.2-0.3,0.2c-0.2-0.5-0.4-1-0.6-1.5c-0.2-0.5-0.4-1-0.5-1.5c1.2-1,1.8-2.1,2-3.2l-0.2-1.6
			L99,97.3c-0.4-0.6-1-1.1-1.8-1.4c-0.8-0.4-1.5-0.5-2.2-0.3l-1.1-2.9c0.3,0,0.7-0.1,1.2-0.3c-0.1-0.2-0.4-0.2-0.9-0.1l-0.4,0.2
			l0-0.2C95.3,91.8,96.8,91.9,98.3,92.5z M96.2,92.1c-0.1,0-0.3,0.1-0.7,0.1c0.1,0,0.2,0,0.3,0c0.1,0,0.2,0,0.3,0.1L96.2,92.1z"/>
		<path class="st-polten-st1" d="M112.4,106.1c0.1,0.2,0.3,0.3,0.6,0.3l0.7-0.1l7.2-2.5c0.7,0,1.2,0.3,1.5,0.6c0.1,0.1,0.1,0.3,0.2,0.4
			c0.3,0.9,0.2,1.5-0.3,1.9l-0.2,0.1l0.1-0.1c-0.2,0-0.4,0.1-0.7,0.2c-0.1,0.1-0.4,0.2-0.7,0.3c-0.3,0.1-0.5,0.2-0.7,0.3
			c-0.4,0.1-0.7,0.2-0.9,0.2l-0.1,0.2l-0.2-0.1c-0.1,0.1-0.3,0.2-0.4,0.3c0,0-0.2,0-0.5,0.1c-0.2,0-0.4,0.1-0.5,0.2
			c-0.5,0.2-1.2,0.5-2.3,0.8c-1,0.3-1.8,0.6-2.3,0.9l0.4-0.1l-2,0.7c-0.8-0.2-1.2-0.4-1.4-0.8L102.8,90c0-0.5,0.2-1,0.8-1.5
			c0.9-0.4,1.7-0.3,2.3,0.3L112.4,106.1z M103.4,89c-0.1,0.1-0.1,0.2-0.1,0.3c0.1-0.2,0.3-0.3,0.5-0.4c0.1,0,0.1,0,0.3-0.1
			c0.1,0,0.2,0,0.3-0.1c0.1,0,0.2-0.1,0.3-0.2c-0.1-0.1-0.3-0.1-0.5,0c-0.2,0.1-0.3,0.1-0.4,0.2c-0.1,0-0.1,0.1-0.1,0
			C103.5,88.8,103.5,88.9,103.4,89z M112.3,110.5c0.2-0.1,0.4-0.2,0.6-0.3l-1.2,0.3C111.8,110.6,112,110.6,112.3,110.5z
			 M113.8,110.1l-0.5,0l8.5-3.1L113.8,110.1z M113.4,106.6c1-0.3,2.3-0.7,4-1.3c1.8-0.7,3.1-1.1,4-1.4c-0.9,0.1-2.1,0.5-3.5,1
			c-1.7,0.7-2.9,1.1-3.5,1.2L113.4,106.6z"/>
		<path class="st-polten-st1" d="M132.2,79c0.3,0.4,0.4,1,0.3,1.7c-0.2,0.7-1,1.2-2.2,1.5c0.6-0.2,1.1-0.5,1.4-0.7l0-0.2
			c-1.8,0.7-3.1,1.2-4,1.7c0,0,0,0.2-0.2,0.3c-0.2,0.2-0.2,0.3-0.2,0.5l6.3,17.4c-0.1,0.8-0.4,1.3-0.9,1.5c-0.1,0.1-0.2,0.2-0.3,0.2
			c-0.2,0.1-0.6,0-1.3-0.1c-0.5-0.1-0.9-0.7-1.3-1.6L124,85.3c-0.2-0.3-0.5-0.4-0.9-0.3l0.1,0l-0.1-0.2l-2.1,0.6
			c-0.8,0.2-1.4,0.5-2,0.8c0.4,0,0.9-0.1,1.6-0.3c0.7-0.3,1.2-0.4,1.5-0.5l-2.3,0.9c-0.9,0.3-1.6,0.1-2.2-0.5
			c-0.1-0.1-0.1-0.3-0.2-0.4c-0.3-0.8-0.2-1.5,0.4-2c1.6-0.8,5.8-2.4,12.5-4.9C131.3,78.4,131.9,78.6,132.2,79z M125.4,80.6
			c1.7-0.7,3.6-1.3,5.5-1.9l-0.5,0l-10.3,3.9c-1.4,0.5-2.2,1-2.4,1.4c0.5-0.4,1-0.7,1.3-0.9c0.1,0.1,0.1,0.1,0.2,0.1
			c0.1-0.1,0.2-0.1,0.2-0.2c0.1-0.1,0.2-0.1,0.3,0C121.8,82,123.7,81.3,125.4,80.6z M129.5,82.6c0.2-0.1,0.5-0.2,0.8-0.3
			c-0.7,0.3-1.2,0.4-1.4,0.5C129.1,82.8,129.3,82.7,129.5,82.6z M132.5,102.9c0.2-0.1,0.4-0.2,0.5-0.3l0.1-0.1l-0.1,0.1
			c-0.1,0.1-0.2,0.1-0.3,0.2c-0.3,0.1-0.6,0.2-1.1,0.2l0.2,0.1C132.1,103,132.4,102.9,132.5,102.9z"/>
		<path class="st-polten-st1" d="M142.6,98.7c-0.5-0.1-0.8-0.3-0.9-0.6l-6.9-18.8c-0.3-0.9-0.2-1.7,0.4-2.4c0.5-0.4,0.9-0.6,1.2-0.7l11.1-3.9
			c0.4,0,0.7,0.1,1.1,0.3c0.4,0.2,0.6,0.5,0.7,0.9c0.2,0.5,0.2,1-0.1,1.5c-0.3,0.5-0.7,0.8-1.2,1c-0.1,0.1-0.3,0.1-0.4,0.1
			c0.6-0.2,1-0.5,1.1-0.8c-1.1,0.6-2.3,1.1-3.6,1.6l-3.8,1.4c-0.7,0.3-1.4,0.5-2,0.8l-0.3,0.7c0.2,0.5,0.5,1.4,0.9,2.6
			c0.4,1.2,0.8,2.1,1.1,2.6l0.5,0.1c0.6-0.2,1.6-0.6,3.1-1.2c1.3-0.5,2.3-0.9,3-1.1c1.1-0.3,2-0.6,2.9-0.7c0.3,0.1,0.6,0.2,0.8,0.5
			c0.1,0.2,0.3,0.4,0.5,0.8c0.1,0.8-0.1,1.4-0.7,1.8l0.1-0.2l-0.1-0.1l-0.1,0.3l-3,1.2c-0.1-0.1-0.1-0.2-0.2-0.2
			c0,0-0.1,0.1-0.1,0.2c-0.4,0.2-0.9,0.4-1.6,0.6c-0.8,0.2-1.4,0.4-1.7,0.5c-0.7,0.3-1.4,0.6-1.9,1.1l-0.1,0.7l1.8,4.9l0.6,0.2
			l10.3-3.6c0.7,0,1.2,0.3,1.6,1c0.3,0.8,0.3,1.4-0.2,1.9c-0.1,0-0.2,0.1-0.3,0.3c-0.2,0.1-0.3,0.2-0.4,0.2c0.1-0.1,0.2-0.1,0.2-0.1
			l-0.2-0.1c-2,0.8-4,1.6-6.1,2.3c-2.1,0.8-4.1,1.5-6,2.2C143.5,98.8,143.1,98.8,142.6,98.7z M135.6,77c0.6-0.3,1.4-0.7,2.6-1.1
			c0.4-0.1,0.8-0.3,1.2-0.4c0.6-0.2,1-0.4,1.3-0.6l0,0.1l3.3-1.2c1.4-0.5,2.6-0.9,3.5-1.1l0.1-0.2l-0.4-0.1l-11.2,4.1L135.6,77z
			 M142.6,84.9l1.4-0.5L142.6,84.9L142.6,84.9z M144.3,84.2c2.5-0.8,4-1.4,4.7-1.6c0-0.1,0.1-0.1,0.1-0.1c0.1,0,0.2,0,0.4,0
			c0.2,0,0.3,0,0.3,0c0.1,0,0.1-0.1,0.1-0.2C149,82.5,147.2,83.2,144.3,84.2z M145.4,94.6c0.7-0.2,2.4-0.8,5-1.8
			c2-0.7,3.7-1.3,5-1.7c-1,0.2-2.1,0.5-3.4,0.9c-2.1,0.8-4.3,1.6-6.6,2.4L145.4,94.6z"/>
		<path class="st-polten-st1" d="M166.8,66l0.9,1.9l6.5,18c-0.2,1.1-0.5,1.7-1.1,2c-0.4,0.1-0.8,0.2-1.2,0.1l-2.3-1.6l-11-8.4
			c-0.2-0.1-0.3-0.2-0.4-0.1c-0.1,0-0.2,0.1-0.2,0.3l0.1,0.7l4.4,11.6c0,0.5-0.2,1-0.7,1.4l0.1-0.2c-0.1,0-0.6,0.2-1.3,0.5
			c-0.5,0.2-0.9,0.1-1.3-0.3l-1.3-3l-6.2-17.2c0-0.5,0.3-1.1,0.9-1.6c0.1-0.1,0.2-0.1,0.3-0.2c0.7-0.3,1.5-0.1,2.3,0.5l12.2,9.3
			c0.1,0,0.2,0,0.2,0c0.1,0,0.2-0.1,0.3-0.3l-0.1-0.9l-4.3-11.4c0.2-0.7,0.5-1.2,0.9-1.5C165.4,65.3,166.2,65.4,166.8,66z
			 M153.7,70.1c0,0,0.1,0,0.1,0c0-0.1-0.4-0.1-0.9,0.1c-0.4,0.1-0.6,0.3-0.6,0.5c0.6-0.3,1-0.5,1.3-0.5
			C153.6,70.1,153.7,70.1,153.7,70.1z M164.9,65.8c-0.3,0.1-0.6,0.3-0.7,0.5l0.2,0.1c0.2-0.1,0.4-0.3,0.8-0.4
			c0.3-0.1,0.6-0.2,0.9-0.3C165.7,65.6,165.3,65.7,164.9,65.8z M173.2,87.8c0.1,0,0.2-0.2,0.3-0.4l-0.8,0.3
			C172.9,87.8,173,87.8,173.2,87.8z"/>
	</g>
</g>
<circle class="st-polten-st2" cx="99.3" cy="101" r="86.4"/>
<g>
</g>
<g>
</g>
<g>
</g>
<g>
</g>
<g>
</g>
<g>
</g>
<g>
</g>
<g>
</g>
<g>
</g>
<g>
</g>
<g>
</g>
<g>
</g>
<g>
</g>
<g>
</g>
<g>
</g>
</svg>
