<svg version="1.1" id="censored-button" xmlns="http://www.w3.org/2000/svg" xmlns:xlink="http://www.w3.org/1999/xlink" x="0px" y="0px"
	 viewBox="0 0 200 200" style="enable-background:new 0 0 200 200;" xml:space="preserve">
<style type="text/css">
	.censored-st0{fill:#EC1C24;}
	.censored-st1{fill:none;stroke:#EB2027;stroke-width:24.5304;stroke-miterlimit:10;}
	.censored-st2{fill:none;}
	.censored-st3{fill:#FFFFFF;}
</style>
<path class="censored-st0" d="M190,87.7l-13.5-36.2c-0.8-2.2-3.3-3.4-5.5-2.5L11.7,108.4c-2.2,0.8-3.4,3.3-2.5,5.5l13.5,36.2
	c0.8,2.2,3.3,3.4,5.5,2.5l159.3-59.4C189.7,92.4,190.8,89.9,190,87.7z"/>
<circle class="censored-st1" cx="100.4" cy="99.8" r="82.4"/>
<g>
	<line class="censored-st2" x1="-17" y1="160" x2="279" y2="48.8"/>
	<path class="censored-st3" d="M47.3,128c0.5,1.4,0.4,2.9-0.4,4.7c-0.7,1.6-1.7,2.9-2.9,3.8c-0.3,0.3-0.7,0.5-1.4,0.8
		c-0.7,0.3-1.2,0.6-1.4,0.7c-1.4,0.4-2.8,0.5-4.2,0.4c-3.8-0.4-6.5-3-8.3-7.7c-0.3-0.7-0.6-1.7-1-3.1c-0.4-1.4-0.8-2.4-1-3.1
		c-0.2-0.6-0.4-1.1-0.7-1.6c-0.3-1.5-0.2-3.1,0.3-4.7c0.5-1.6,1.3-2.9,2.4-3.9c0.9-1,2.1-1.7,3.5-2.2c3-1.1,6-0.7,9,1.4
		c0.5,0.4,0.9,0.8,1.1,1.4c0.3,0.9,0.1,1.6-0.7,2.3c-0.2-0.2-0.4-0.2-0.6,0c-0.1,0.1-0.1,0.2-0.1,0.2c0,0.1,0.1,0.1,0.3,0.1
		c-0.7,0.3-1.7,0.1-2.9-0.7c-1.3-0.8-2.3-1.2-2.9-1c-0.2,0.1-0.5,0.1-0.9,0.1c-0.4,0-0.7,0-0.8,0.1c-0.2,0.1-0.3,0.1-0.4,0.2
		c0-0.1,0-0.1-0.1-0.1c-0.6,0.7-1.2,1.2-1.7,1.5c-1.4,1.8-1.5,4.1-0.4,7.1c0.2,0.7,0.7,1.6,1.3,2.9c0.6,1.3,1,2.3,1.3,2.9
		c0.2,0.6,0.4,1.1,0.5,1.6c0.7,0.9,1.6,1.5,2.7,1.9c1.1,0.4,2.2,0.4,3.2,0c0.8-0.3,1.6-0.8,2.2-1.6c0.7-0.5,1.1-1.5,1.3-3.1
		c0.2-1.5,0.6-2.3,1.3-2.6c0.3-0.1,0.7-0.2,1.2-0.1C46.6,127,47,127.4,47.3,128z M29.9,113.8l0.2-0.3c0,0,0.1-0.1,0.1-0.1
		c0.1,0,0.2,0,0.3,0c0,0,0.1-0.1,0.2-0.1c0.1-0.1,0.1-0.1,0.2-0.1c0.1,0,0.2,0,0.3,0c0.4-0.3,0.9-0.5,1.5-0.7l1.6-0.4
		c-1.3,0.2-2.2,0.4-2.7,0.6c-0.6,0.3-1,0.6-1.2,0.8l0,0l0,0.1C30,113.6,29.9,113.7,29.9,113.8z M45,127.4c0.2-0.1,0.4-0.2,0.7-0.4
		c-0.4,0-0.7,0-1,0.1c-0.3,0.1-0.5,0.3-0.6,0.5c0.1,0.1,0.2,0.1,0.2,0c0,0,0-0.1,0-0.1C44.5,127.5,44.7,127.5,45,127.4z"/>
	<path class="censored-st3" d="M52.6,133.2c-0.5-0.1-0.9-0.4-1-0.7l-8-21.7c-0.4-1.1-0.3-2,0.4-2.7c0.6-0.5,1.1-0.7,1.3-0.8l12.8-4.6
		c0.4,0,0.8,0.1,1.3,0.4c0.4,0.3,0.7,0.6,0.8,1c0.2,0.5,0.2,1.1-0.1,1.8c-0.3,0.6-0.8,1-1.4,1.2c-0.2,0.1-0.3,0.1-0.4,0.1
		c0.8-0.3,1.2-0.6,1.2-0.9c-1.3,0.7-2.7,1.3-4.2,1.8l-4.4,1.7c-0.9,0.3-1.6,0.6-2.3,0.9l-0.4,0.8c0.3,0.6,0.6,1.6,1.1,3
		c0.5,1.4,0.9,2.4,1.2,3l0.6,0.1c0.6-0.2,1.8-0.7,3.6-1.3c1.5-0.6,2.7-1.1,3.4-1.3c1.2-0.4,2.4-0.7,3.3-0.8c0.4,0.1,0.7,0.3,1,0.6
		c0.1,0.2,0.3,0.5,0.5,1c0.2,0.9-0.1,1.6-0.8,2.1l0.1-0.2l-0.1-0.1l-0.1,0.3l-3.5,1.4c-0.1-0.2-0.2-0.2-0.3-0.2c0,0-0.1,0.1-0.1,0.2
		c-0.4,0.2-1.1,0.4-1.8,0.7c-0.9,0.3-1.6,0.5-1.9,0.6c-0.8,0.3-1.6,0.7-2.2,1.2l-0.1,0.8l2.1,5.7l0.7,0.2l11.9-4.2
		c0.8,0,1.4,0.3,1.9,1.1c0.4,0.9,0.3,1.6-0.2,2.3c-0.1,0-0.2,0.1-0.4,0.3c-0.2,0.2-0.3,0.3-0.5,0.3c0.1-0.1,0.2-0.1,0.3-0.2
		l-0.2-0.1c-2.3,0.9-4.6,1.8-7,2.7c-2.4,0.9-4.7,1.7-6.9,2.5C53.6,133.2,53.2,133.3,52.6,133.2z M44.5,108.1c0.6-0.4,1.6-0.8,3-1.2
		c0.5-0.2,1-0.3,1.4-0.5c0.7-0.2,1.2-0.5,1.5-0.7l0,0.1l3.9-1.4c1.6-0.6,3-1,4-1.2l0.2-0.2l-0.5-0.1l-13,4.7L44.5,108.1z
		 M52.6,117.2l1.6-0.6L52.6,117.2L52.6,117.2z M54.6,116.4c2.9-1,4.7-1.6,5.4-1.9c0-0.1,0.1-0.1,0.1-0.1c0.1,0,0.2,0,0.4,0
		c0.2,0,0.3,0,0.3,0c0.1,0,0.1-0.1,0.1-0.2C60,114.5,57.9,115.2,54.6,116.4z M55.8,128.4c0.8-0.3,2.7-0.9,5.8-2.1
		c2.3-0.9,4.3-1.5,5.8-1.9c-1.2,0.2-2.5,0.5-3.9,1.1c-2.5,0.9-5,1.8-7.6,2.8L55.8,128.4z"/>
	<path class="censored-st3" d="M80.5,95.3l1.1,2.2l7.5,20.8c-0.2,1.2-0.6,2-1.3,2.3c-0.5,0.2-0.9,0.2-1.4,0.1l-2.7-1.8L71,109.2
		c-0.2-0.1-0.4-0.2-0.5-0.1c-0.1,0-0.2,0.2-0.3,0.4l0.1,0.9l5,13.4c0,0.6-0.2,1.2-0.8,1.6l0.1-0.2c-0.2,0-0.7,0.2-1.5,0.5
		c-0.5,0.2-1,0.1-1.4-0.3l-1.5-3.5l-7.1-19.8c0-0.6,0.3-1.2,1.1-1.8c0.1-0.1,0.2-0.1,0.4-0.2c0.8-0.3,1.7-0.1,2.6,0.6l14.1,10.8
		c0.1,0,0.2,0,0.3,0c0.1,0,0.2-0.1,0.3-0.3l-0.1-1l-4.9-13.1c0.2-0.8,0.5-1.4,1.1-1.8C79,94.6,79.9,94.7,80.5,95.3z M65.5,100.1
		c0,0,0.1,0,0.2,0c-0.1-0.1-0.4-0.1-1,0.1c-0.4,0.2-0.6,0.4-0.7,0.6c0.6-0.3,1.1-0.5,1.5-0.6C65.3,100.1,65.4,100.1,65.5,100.1z
		 M78.4,95.1c-0.4,0.1-0.6,0.3-0.8,0.6l0.2,0.1c0.2-0.2,0.5-0.3,0.9-0.5c0.3-0.1,0.7-0.2,1.1-0.3C79.3,94.9,78.8,95,78.4,95.1z
		 M88,120.5c0.2-0.1,0.3-0.2,0.3-0.4l-0.9,0.4C87.6,120.6,87.8,120.6,88,120.5z"/>
	<path class="censored-st3" d="M106.8,105.2c0.5,1.4,0.6,2.7,0.3,4.2c-0.3,1.4-1,2.6-2.1,3.6l-2.2,1.7l0.1-0.1c-0.5,0.3-1.3,0.6-2.1,0.9
		l-2.2,0.7c0.1,0,0.3,0,0.4,0c-3.1,0.7-5.8,0.2-8-1.5c-0.1-0.1-0.2-0.3-0.3-0.5c-0.2-0.4-0.1-1,0.1-1.6c0.3-0.6,0.7-0.9,1.1-1.1
		c0.5-0.2,1.2-0.1,2.2,0.3c1.2,0.4,2,0.7,2.4,0.6c1,0,2-0.2,2.9-0.6c1.4-0.5,2.4-1.3,3.2-2.3c0.6-1.1,0.9-1.9,0.8-2.4
		c0-0.1,0-0.3-0.1-0.4c-0.2-0.4-0.5-0.9-1-1.4l-1.6-0.5c-0.8-0.1-2.7-0.2-5.6-0.3c-2.5,0-4.4-0.3-5.7-0.7c-1.9-0.6-3.1-1.8-3.8-3.6
		c-0.2-0.5-0.3-1-0.4-1.7c-0.4-2.2,0.3-4.1,1.9-5.9c1.1-1.2,2.4-2,4-2.6c1.6-0.6,3.2-0.8,4.9-0.7c1.7,0.1,3.2,0.6,4.6,1.5
		c0.3,0.6,0.3,1.2,0.2,1.8c-0.3,0.6-0.8,0.9-1.3,1.1c-0.5,0.2-1.4,0.1-2.8-0.2c-1.4-0.3-2.4-0.4-3-0.1c-0.2,0.1-0.4,0.2-0.6,0.3
		c-0.2,0.1-0.4,0.1-0.6,0.2c-1.6,0.6-2.7,1.9-3.3,3.8c0,0.2,0.1,0.4,0.2,0.6c0.2,0.6,0.6,1.1,1.2,1.5c1.6,0.3,3.6,0.5,5.9,0.6
		c3.6,0.2,5.5,0.3,5.9,0.4C104.4,101.4,105.9,102.8,106.8,105.2z M91.3,90.3c-0.9,0.4-1.8,0.8-2.6,1.5c1.7-0.8,2.7-1.3,2.8-1.3
		c0.7-0.3,1.3-0.4,1.8-0.4c0-0.1,0-0.1,0-0.2c0.1,0,0.2,0,0.3,0c-0.1,0-0.2,0-0.3,0C92.7,89.8,92,90,91.3,90.3z M92.6,112l0.2-0.2
		c-0.2-0.1-0.5-0.1-0.8,0.1c-0.3,0.1-0.6,0.3-0.9,0.5c0.1,0.1,0.3,0.1,0.6-0.1c0.3-0.1,0.5-0.3,0.7-0.3
		C92.4,112.1,92.5,112.1,92.6,112z M93.6,93.3c-0.3,0.1-0.6,0.2-0.9,0.3c-0.3,0.1-0.5,0.2-0.7,0.3L93.6,93.3z M99.2,93.5
		c-0.3,0-0.6,0.1-0.7,0.3l0.3,0.1c0.5-0.1,0.9-0.4,1.1-0.7C99.8,93.4,99.6,93.4,99.2,93.5z M98.9,116.2c0.9-0.2,1.8-0.5,2.7-0.8
		C100.2,115.9,99.3,116.2,98.9,116.2z M100,111.9c0.1,0,0.2-0.1,0.3-0.3c0,0,0,0,0.1-0.1c0,0,0,0,0,0s-0.2,0.1-0.5,0.3l0,0l-0.2,0.1
		c0.1,0,0.2,0,0.2-0.1C99.9,112,99.9,112,100,111.9z M102.6,114.9l0.2-0.1C102.7,114.8,102.7,114.8,102.6,114.9z"/>
	<path class="censored-st3" d="M109.7,83c0.1,0,0.2-0.1,0.4-0.1c-0.2,0.1-0.8,0.5-1.8,1.2c0.4-0.1,0.8-0.3,1.1-0.4c0.3-0.1,0.6-0.2,0.9-0.4
		l1.3,3.3c0,0-0.1,0-0.1,0c-0.1,0-0.2,0.2-0.3,0.4l-0.1,0c-1.3,1.5-1.9,2.8-1.8,3.9c0.4,1.9,1.1,3.9,1.9,6c1,2.6,1.8,4.6,2.3,5.9
		c0.4,0.7,1.1,1.2,1.9,1.5c0.9,0.4,1.7,0.5,2.5,0.4c0.7,1.5,1.2,2.6,1.5,3.4c-0.1,0-0.4,0.1-0.8,0.3c-0.3,0.1-0.6,0.2-0.7,0.4
		l0.7,0.1c-1.3,0.3-2.7,0.2-4.1-0.3c-1.3-0.5-2.5-1.2-3.5-2.1c-1.2-1.3-2.2-3.1-3-5.4c-0.3-0.8-0.7-2-1.3-3.7
		c-0.5-1.6-0.9-2.9-1.3-3.7c-0.6-1.6-0.7-3.4-0.1-5.3c0.6-1.9,1.6-3.4,3-4.5C109.3,83.3,109.8,83,109.7,83z M117.2,82.5
		c1.7,0.7,3.1,1.7,4.2,3.1c1.5,3,3,7,4.6,11.9c0.5,1.5,0.5,3.1,0,4.8c-0.5,1.6-1.3,3-2.4,4.2l-1.6,1.3l0.4-0.4
		c-0.2-0.1-0.3-0.1-0.5-0.1c-0.1,0-0.2,0.1-0.4,0.2c-0.2,0.1-0.3,0.2-0.3,0.2c-0.3-0.5-0.5-1.1-0.7-1.7c-0.2-0.6-0.4-1.2-0.6-1.8
		c1.4-1.2,2.1-2.4,2.3-3.7l-0.2-1.8l-4-10.6c-0.5-0.7-1.2-1.2-2.1-1.6c-0.9-0.4-1.8-0.5-2.5-0.4l-1.3-3.4c0.3,0,0.8-0.1,1.4-0.4
		c-0.1-0.2-0.4-0.2-1.1-0.1l-0.5,0.2l0-0.2C113.7,81.7,115.4,81.8,117.2,82.5z M114.8,82c-0.1,0.1-0.3,0.1-0.8,0.1
		c0.1,0,0.2,0.1,0.3,0c0.1,0,0.3,0,0.3,0.1L114.8,82z"/>
	<path class="censored-st3" d="M133.5,102.7c-0.2,0.1-0.3,0.2-0.6,0.5c-0.2,0.2-0.4,0.4-0.5,0.4c-0.2,0.1-0.4,0-0.7-0.1l-1-0.8L122.4,80
		c-0.2-0.7,0-1.3,0.8-2c1.1-0.5,1.9-0.9,2.5-1c-0.2,0.2-0.5,0.4-1.1,0.6c-0.6,0.2-0.9,0.4-1,0.7c0.2,0,0.5-0.1,0.9-0.4
		c0.4-0.2,0.7-0.3,1-0.3l0,0.1l0.5-0.2l8.6,23.8c0,0.9-0.3,1.6-1,2l-0.8,0.2c0.8-0.4,1.2-0.7,1.2-1
		C133.8,102.6,133.7,102.7,133.5,102.7z M146.8,96c0.4,0.8,0.3,1.6-0.4,2.5c-0.2,0.1-0.4,0.2-0.5,0.3c0.2-0.4,0.3-0.6,0.3-0.7
		c-0.1,0-0.3,0-0.4,0.1c-0.1,0-0.3,0.2-0.6,0.4c-0.1,0.1-0.2,0.1-0.4,0.2c-0.1,0-0.2,0.1-0.3,0.1c0,0.1,0.3,0.2,0.8,0.2
		c-0.3,0.2-0.8,0.2-1.3,0.1s-0.9-0.4-1.1-0.7l-7.5-7.8c-1.3-0.1-2.1-0.2-2.4,0c-0.2,0.1-0.3,0.1-0.4,0.2l-1.2-3.6l3.9-1.4
		c1.4-0.8,2.2-1.8,2.1-3.3c-0.1-0.5-0.2-0.9-0.3-1.3c-0.2-0.6-0.6-1.1-1.1-1.5c-1.1-0.8-2.5-1-4.2-0.3c0,0,0.1-0.1,0.1-0.1
		c-0.9,0.1-1.9,0.4-3,0.9l-1.3-3.7c0.6-0.3,1.2-0.5,1.7-0.7c4.3-1.6,7.6-1.2,10,1.3c0.7,0.7,1.2,1.6,1.6,2.6c0.7,1.9,0.7,3.9,0,6
		c-0.1,0.3-0.4,0.8-1,1.5c-0.5,0.6-0.7,1.1-0.5,1.5c0,0.1,0.1,0.2,0.2,0.3L146.8,96z M128.9,76.3c0.3-0.1,0.6-0.2,0.9-0.4l-1.9,0.6
		l0.1,0.2C128.1,76.6,128.4,76.5,128.9,76.3z M132.4,74.9l-2,0.6l-0.2,0.2L132.4,74.9z M133.1,87c0.4-0.2,0.8-0.4,1.1-0.6
		c-0.5,0.2-1,0.4-1.4,0.6c-0.4,0.1-0.7,0.3-1,0.3C132.2,87.2,132.6,87.2,133.1,87z"/>
	<path class="censored-st3" d="M146.6,73.4l2.4,7.9l-1.7,0.7l-3.4-7.5L146.6,73.4z"/>
	<path class="censored-st3" d="M157.7,92.9l-1.1-2.2l-7.3-20.4c-0.3-1,0-1.8,1-2.5c0.1,0,0.4-0.1,1.1-0.4c0.4-0.2,0.8-0.2,1.1-0.2l-1.5,0.6
		c-0.6,0.2-1,0.5-1.2,0.9c0.4-0.1,0.8-0.2,1.1-0.4c0.3-0.1,0.6-0.2,0.9-0.3l0.9-0.3l9,24.8c-0.1,0-0.2,0-0.3,0.1
		c-0.2,0.1-0.3,0.2-0.4,0.3l-1.8,0.7c0.1,0,0.2,0.1,0.3,0.1C158.9,93.5,158.3,93.3,157.7,92.9z M168.1,90.4c-0.1,0-0.2,0-0.3,0
		c-0.1,0-0.2,0-0.2,0c-0.1,0-0.1,0.1-0.1,0.3c-1.7,0.5-2.9,0.9-3.7,1.1l-1.2-3.1c0.4-0.2,1-0.6,1.9-0.9c0.9-0.4,1.5-0.7,1.9-0.9
		c-0.5,0-0.8,0-1.1,0.2c-0.3,0.1-1.2,0.5-2.8,1.2c-0.1-0.1,0-0.3,0.1-0.4c0.1-0.1,0.2-0.1,0.4-0.1c0.3-0.1,0.7-0.3,1.3-0.5
		c0.6-0.2,1-0.3,1.3-0.5c2-0.7,3-1.8,3.1-3.3l-0.1-1.7l-4.3-11.3c-0.7-1.2-1.9-1.9-3.8-2.1l-1.3,0.4c0.1,0,0.1-0.1,0.1-0.1l-1.8,0.6
		c-0.8,0.3-1.4,0.5-1.7,0.6c-0.3-0.3-0.5-0.8-0.7-1.5c-0.3-0.9-0.4-1.5-0.5-1.7c0.6-0.3,1.2-0.6,1.8-0.8c0.6-0.2,1.2-0.4,2-0.6
		c0.1,0,0.2-0.1,0.3-0.2c0.2-0.1,0.3-0.2,0.3-0.3l-0.3-0.1l-4.2,1.6c0.7-0.4,1.4-0.7,1.9-0.9c3.7-1.3,6.5-1.4,8.4-0.1
		c2,1,3.6,3.1,4.7,6.3c0.3,0.9,0.7,2.2,1.2,3.9c0.5,1.7,0.9,3,1.2,3.9c0.2,0.6,0.4,1.1,0.7,1.6c0.4,1.3,0.4,2.7,0,4.1
		c-0.4,1.4-1.1,2.6-2.1,3.7c-1,0.8-1.6,1.2-1.8,1.3c-0.2,0.1-0.4,0.1-0.6,0.1C168.3,90.3,168.2,90.4,168.1,90.4z M159.9,64.7l-0.5,0
		l-0.1,0.2L159.9,64.7z M159.6,93.5c0.2,0,0.5,0,0.7-0.1C160.1,93.4,159.9,93.5,159.6,93.5z"/>
</g>
<g>
</g>
<g>
</g>
<g>
</g>
<g>
</g>
<g>
</g>
<g>
</g>
<g>
</g>
<g>
</g>
<g>
</g>
<g>
</g>
<g>
</g>
<g>
</g>
<g>
</g>
<g>
</g>
<g>
</g>
</svg>
